<svg width="32" height="32" viewBox="0 0 32 32" fill="none" xmlns="http://www.w3.org/2000/svg">
<rect width="32" height="32" rx="6" fill="url(#paint0_linear_95_15339)"/>
<g clip-path="url(#clip0_95_15339)">
<path d="M16 10.744C13.3678 10.7449 11.4169 12.5186 10.8873 14.6851C10.4353 16.5333 10.9629 18.4198 12.2978 19.7319C12.7888 20.2143 13.0703 20.9341 13.0703 21.7066V22.4453L14.1065 23.6562H16H17.7331L18.9297 22.4453V21.7083C18.9297 20.9444 19.2249 20.2103 19.7405 19.6942C20.7292 18.7031 21.2734 17.391 21.2734 16C21.2734 13.1639 19.0357 10.7432 16 10.744Z" fill="white"/>
<path d="M7.79688 16.5859H6.58594C6.26207 16.5859 6 16.3239 6 16C6 15.6761 6.26207 15.4141 6.58594 15.4141H7.79688C8.12074 15.4141 8.38281 15.6761 8.38281 16C8.38281 16.3239 8.12074 16.5859 7.79688 16.5859Z" fill="white"/>
<path d="M25.4141 16.5859H24.2031C23.8793 16.5859 23.6172 16.3239 23.6172 16C23.6172 15.6761 23.8793 15.4141 24.2031 15.4141H25.4141C25.7379 15.4141 26 15.6761 26 16C26 16.3239 25.7379 16.5859 25.4141 16.5859Z" fill="white"/>
<path d="M7.37341 20.9805C7.21146 20.7001 7.30759 20.3419 7.58798 20.18L8.60306 19.5941C8.88228 19.4321 9.24107 19.5282 9.40357 19.8086C9.56552 20.089 9.46939 20.4472 9.18899 20.6091L8.17392 21.1951C7.89665 21.3552 7.53716 21.2632 7.37341 20.9805Z" fill="white"/>
<path d="M22.5964 12.1914C22.4344 11.911 22.5305 11.5528 22.8109 11.3909L23.826 10.805C24.1047 10.6425 24.4646 10.7392 24.6265 11.0196C24.7884 11.2999 24.6923 11.6582 24.412 11.8201L23.3969 12.406C23.1196 12.5662 22.7601 12.4741 22.5964 12.1914Z" fill="white"/>
<path d="M19.8086 9.40363C19.5282 9.24167 19.4321 8.88351 19.5941 8.60312L20.18 7.58804C20.3419 7.30765 20.7001 7.21152 20.9805 7.37347C21.2609 7.53542 21.357 7.89359 21.1951 8.17398L20.6091 9.18906C20.4457 9.47128 20.0863 9.56402 19.8086 9.40363Z" fill="white"/>
<path d="M11.3909 9.18906L10.805 8.17398C10.643 7.89359 10.7392 7.53538 11.0196 7.37347C11.2976 7.21152 11.6576 7.30765 11.8201 7.58804L12.406 8.60312C12.568 8.88351 12.4718 9.24171 12.1914 9.40363C11.9142 9.56378 11.5547 9.47171 11.3909 9.18906Z" fill="white"/>
<path d="M23.8261 21.1951L22.811 20.6091C22.5306 20.4472 22.4345 20.089 22.5964 19.8086C22.7584 19.5282 23.1171 19.4321 23.3969 19.5941L24.412 20.18C24.6924 20.3419 24.7885 20.7001 24.6266 20.9805C24.4631 21.2628 24.1037 21.3555 23.8261 21.1951Z" fill="white"/>
<path d="M8.60312 12.406L7.58804 11.8201C7.30765 11.6581 7.21152 11.2999 7.37347 11.0196C7.53542 10.7392 7.89417 10.6425 8.17398 10.805L9.18906 11.3909C9.46945 11.5529 9.56558 11.911 9.40363 12.1914C9.23999 12.4739 8.88058 12.5663 8.60312 12.406Z" fill="white"/>
<path d="M16 22.4453H13.0703V22.8613C13.0703 24.5996 14.3572 26 16 26C17.6154 26 18.9297 24.6466 18.9297 23.0312V22.4453H16Z" fill="white"/>
<path d="M16 6C15.6761 6 15.4141 6.26207 15.4141 6.58594V7.79688C15.4141 8.12074 15.6761 8.38281 16 8.38281C16.3239 8.38281 16.5859 8.12074 16.5859 7.79688V6.58594C16.5859 6.26207 16.3239 6 16 6Z" fill="white"/>
<path d="M16.5859 7.79688V6.58594C16.5859 6.26207 16.3239 6 16 6V8.38281C16.3239 8.38281 16.5859 8.12074 16.5859 7.79688Z" fill="white"/>
<path d="M16 13.6562C15.0307 13.6562 14.2422 14.4448 14.2422 15.4141C14.2422 15.7379 14.5043 16 14.8281 16C15.152 16 15.4141 15.7379 15.4141 15.4141C15.4141 15.0908 15.6767 14.8281 16 14.8281C16.3233 14.8281 16.5859 15.0908 16.5859 15.4141C16.5859 15.6555 16.4412 15.8695 16.2163 15.9588C16.1367 15.9905 16.0698 16.0398 16 16.0852C15.6425 16.3174 15.4141 16.7079 15.4141 17.1718C15.4141 17.4957 15.6761 17.7578 16 17.7578C16.3239 17.7578 16.5859 17.4957 16.5859 17.1718L16.6495 17.0477C17.3229 16.7799 17.7578 16.1385 17.7578 15.4141C17.7578 14.4448 16.9693 13.6562 16 13.6562Z" fill="#0085DD"/>
<path d="M16 20.1016C16.3236 20.1016 16.5859 19.8392 16.5859 19.5156C16.5859 19.192 16.3236 18.9297 16 18.9297C15.6764 18.9297 15.4141 19.192 15.4141 19.5156C15.4141 19.8392 15.6764 20.1016 16 20.1016Z" fill="#0085DD"/>
</g>
<defs>
<linearGradient id="paint0_linear_95_15339" x1="32" y1="16" x2="0" y2="16" gradientUnits="userSpaceOnUse">
<stop stop-color="#9966FF"/>
<stop offset="1" stop-color="#00CCFF"/>
</linearGradient>
<clipPath id="clip0_95_15339">
<rect width="20" height="20" fill="white" transform="translate(6 6)"/>
</clipPath>
</defs>
</svg>
