<svg width="25" height="24" viewBox="0 0 25 24" fill="none" xmlns="http://www.w3.org/2000/svg">
<g clip-path="url(#clip0_468_42524)">
<path d="M23.7015 5.49811C23.2224 4.99621 22.5608 4.69963 21.808 4.69963H18.0209V4.654C18.0209 4.08366 17.7928 3.53613 17.4049 3.17111C17.0171 2.78328 16.4924 2.55515 15.9221 2.55515H9.07795C8.48479 2.55515 7.96008 2.78328 7.57224 3.17111C7.18441 3.55895 6.95627 4.08366 6.95627 4.654V4.69963H3.19202C2.43916 4.69963 1.77757 4.99621 1.29848 5.49811C0.819392 5.9772 0.5 6.66161 0.5 7.39165V18.7529C0.5 19.5057 0.796578 20.1673 1.29848 20.6464C1.77757 21.1255 2.46198 21.4449 3.19202 21.4449H21.808C22.5608 21.4449 23.2224 21.1483 23.7015 20.6464C24.1806 20.1673 24.5 19.4829 24.5 18.7529V7.39165C24.5 6.6388 24.2034 5.9772 23.7015 5.49811ZM23.3137 18.7529H23.2909C23.2909 19.1635 23.1312 19.5285 22.8574 19.8023C22.5837 20.0761 22.2186 20.2358 21.808 20.2358H3.19202C2.78137 20.2358 2.41635 20.0761 2.14259 19.8023C1.86882 19.5285 1.70913 19.1635 1.70913 18.7529V7.39165C1.70913 6.981 1.86882 6.61598 2.14259 6.34222C2.41635 6.06845 2.78137 5.90876 3.19202 5.90876H7.59506C7.93726 5.90876 8.21103 5.63499 8.21103 5.29279V4.63119C8.21103 4.38024 8.30228 4.1521 8.46198 3.99241C8.62167 3.83271 8.84981 3.74146 9.10076 3.74146H15.9221C16.173 3.74146 16.4011 3.83271 16.5608 3.99241C16.7205 4.1521 16.8118 4.38024 16.8118 4.63119V5.29279C16.8118 5.63499 17.0856 5.90876 17.4278 5.90876H21.8308C22.2414 5.90876 22.6065 6.06845 22.8802 6.34222C23.154 6.61598 23.3137 6.981 23.3137 7.39165V18.7529Z" fill="#A5A5B5"/>
<path d="M12.5001 7.46008C10.9488 7.46008 9.53433 8.09887 8.53053 9.10267C7.50391 10.1293 6.88794 11.5209 6.88794 13.0722C6.88794 14.6236 7.52672 16.038 8.53053 17.0418C9.55714 18.0684 10.9488 18.6844 12.5001 18.6844C14.0514 18.6844 15.4659 18.0456 16.4697 17.0418C17.4963 16.0152 18.1123 14.6236 18.1123 13.0722C18.1123 11.5209 17.4735 10.1065 16.4697 9.10267C15.4659 8.09887 14.0514 7.46008 12.5001 7.46008ZM15.6028 16.1977C14.8043 16.9734 13.7092 17.4753 12.5001 17.4753C11.291 17.4753 10.1959 16.9734 9.39745 16.1977C8.59897 15.3992 8.11988 14.3042 8.11988 13.0951C8.11988 11.8859 8.62178 10.7909 9.39745 9.9924C10.1959 9.19392 11.291 8.71484 12.5001 8.71484C13.7092 8.71484 14.8043 9.21674 15.6028 9.9924C16.4012 10.7909 16.8803 11.8859 16.8803 13.0951C16.9031 14.3042 16.4012 15.3992 15.6028 16.1977Z" fill="#A5A5B5"/>
<path d="M20.6218 9.67303C21.2392 9.67303 21.7396 9.17254 21.7396 8.55516C21.7396 7.93777 21.2392 7.43729 20.6218 7.43729C20.0044 7.43729 19.5039 7.93777 19.5039 8.55516C19.5039 9.17254 20.0044 9.67303 20.6218 9.67303Z" fill="#A5A5B5"/>
</g>
<defs>
<clipPath id="clip0_468_42524">
<rect width="24" height="24" fill="white" transform="translate(0.5)"/>
</clipPath>
</defs>
</svg>
