<svg width="25" height="24" viewBox="0 0 25 24" fill="none" xmlns="http://www.w3.org/2000/svg">
<g clip-path="url(#clip0_468_42509)">
<path d="M18.8975 24H6.1025C4.61723 23.998 3.19337 23.4071 2.14313 22.3569C1.09288 21.3066 0.501984 19.8828 0.5 18.3975L0.5 5.6025C0.501984 4.11723 1.09288 2.69337 2.14313 1.64313C3.19337 0.592883 4.61723 0.00198433 6.1025 0L18.8975 0C20.3828 0.00198433 21.8066 0.592883 22.8569 1.64313C23.9071 2.69337 24.498 4.11723 24.5 5.6025V18.3975C24.498 19.8828 23.9071 21.3066 22.8569 22.3569C21.8066 23.4071 20.3828 23.998 18.8975 24ZM6.1025 1.5975C5.04031 1.5975 4.02162 2.01945 3.27054 2.77054C2.51945 3.52162 2.0975 4.54031 2.0975 5.6025V18.3975C2.09948 19.4571 2.52128 20.4727 3.27053 21.222C4.01978 21.9712 5.03541 22.393 6.095 22.395H18.8975C19.9571 22.393 20.9727 21.9712 21.722 21.222C22.4712 20.4727 22.893 19.4571 22.895 18.3975V5.6025C22.893 4.54291 22.4712 3.52728 21.722 2.77803C20.9727 2.02878 19.9571 1.60698 18.8975 1.605L6.1025 1.5975Z" fill="#A5A5B5"/>
<path d="M15.2602 18.3975C15.1485 18.3978 15.038 18.3746 14.9359 18.3294C14.8339 18.2841 14.7424 18.2179 14.6677 18.135L11.2027 14.325C11.0374 14.1381 10.8342 13.9886 10.6066 13.8864C10.3789 13.7842 10.1322 13.7318 9.88266 13.7325C9.63205 13.7317 9.38412 13.784 9.15528 13.8862C8.92643 13.9883 8.72188 14.1379 8.55516 14.325L5.09016 18.135C5.02084 18.2184 4.93531 18.287 4.83876 18.3364C4.74221 18.3859 4.63664 18.4152 4.52842 18.4227C4.4202 18.4302 4.31158 18.4157 4.20913 18.3801C4.10668 18.3444 4.01252 18.2884 3.93234 18.2153C3.85217 18.1422 3.78764 18.0536 3.74266 17.9549C3.69767 17.8562 3.67317 17.7494 3.67063 17.641C3.66809 17.5325 3.68756 17.4247 3.72787 17.324C3.76818 17.2232 3.82849 17.1317 3.90516 17.055L7.37016 13.245C7.68795 12.8939 8.07562 12.6132 8.5083 12.4207C8.94098 12.2283 9.40911 12.1284 9.88266 12.1275C10.3538 12.1296 10.8194 12.23 11.2494 12.4225C11.6795 12.6149 12.0647 12.8951 12.3802 13.245L15.8452 17.0475C15.9473 17.1627 16.0142 17.3048 16.0378 17.457C16.0614 17.6091 16.0408 17.7649 15.9783 17.9056C15.9159 18.0463 15.8142 18.1661 15.6856 18.2507C15.5569 18.3352 15.4066 18.381 15.2527 18.3825L15.2602 18.3975Z" fill="#A5A5B5"/>
<path d="M20.5025 18.345C20.3908 18.3453 20.2804 18.3221 20.1783 18.2769C20.0762 18.2316 19.9848 18.1654 19.91 18.0825L17.66 15.615C17.466 15.4002 17.2225 15.2359 16.9507 15.1366C16.6788 15.0373 16.3868 15.0058 16.1 15.045C15.9217 15.025 15.7553 14.9459 15.6273 14.8202C15.4993 14.6946 15.4171 14.5297 15.3938 14.3518C15.3705 14.174 15.4074 13.9934 15.4987 13.839C15.59 13.6846 15.7304 13.5653 15.8975 13.5C16.4478 13.4202 17.0092 13.477 17.5324 13.6653C18.0556 13.8536 18.5244 14.1678 18.8975 14.58L21.1475 17.0475C21.2497 17.1627 21.3166 17.3048 21.3402 17.457C21.3638 17.6091 21.3431 17.7649 21.2807 17.9056C21.2182 18.0463 21.1166 18.1661 20.9879 18.2507C20.8592 18.3352 20.709 18.381 20.555 18.3825L20.5025 18.345Z" fill="#A5A5B5"/>
<path d="M16.4974 10.4025C16.0227 10.4025 15.5587 10.2617 15.164 9.99801C14.7694 9.73429 14.4618 9.35946 14.2801 8.92092C14.0985 8.48238 14.0509 7.99982 14.1435 7.53426C14.2361 7.06871 14.4647 6.64107 14.8004 6.30542C15.136 5.96978 15.5636 5.7412 16.0292 5.64859C16.4948 5.55599 16.9773 5.60352 17.4159 5.78517C17.8544 5.96682 18.2292 6.27443 18.4929 6.66911C18.7567 7.06379 18.8974 7.5278 18.8974 8.00248C18.8974 8.639 18.6446 9.24945 18.1945 9.69954C17.7444 10.1496 17.1339 10.4025 16.4974 10.4025ZM16.4974 7.19998C16.3387 7.19998 16.1835 7.24705 16.0516 7.33523C15.9196 7.4234 15.8167 7.54874 15.756 7.69538C15.6953 7.84201 15.6794 8.00337 15.7103 8.15904C15.7413 8.31471 15.8177 8.4577 15.93 8.56993C16.0422 8.68216 16.1852 8.75859 16.3409 8.78956C16.4965 8.82052 16.6579 8.80463 16.8045 8.74389C16.9512 8.68315 17.0765 8.5803 17.1647 8.44832C17.2528 8.31635 17.2999 8.1612 17.2999 8.00248C17.2999 7.78964 17.2154 7.58552 17.0649 7.43503C16.9144 7.28453 16.7102 7.19998 16.4974 7.19998Z" fill="#A5A5B5"/>
</g>
<defs>
<clipPath id="clip0_468_42509">
<rect width="24" height="24" fill="white" transform="translate(0.5)"/>
</clipPath>
</defs>
</svg>
