<svg width="25" height="24" viewBox="0 0 25 24" fill="none" xmlns="http://www.w3.org/2000/svg">
<g clip-path="url(#clip0_468_42516)">
<path d="M24.1789 4.48978C23.8977 4.35258 23.5564 4.46971 23.4192 4.75417L22.8637 5.89868L22.4186 5.68449L23.0042 4.47971C23.0042 4.47638 23.0076 4.47305 23.0076 4.46965C23.0109 4.46298 23.0142 4.45292 23.0176 4.44625C23.108 4.22205 23.2118 3.95766 23.2486 3.6598C23.3624 2.77295 23.0244 1.83591 22.3416 1.14986C21.6924 0.497276 20.6985 0.129151 19.7547 0.186017C19.5572 0.199416 19.3465 0.236216 19.1289 0.299814C18.7842 0.400211 18.4462 0.574208 18.1283 0.818535C17.9007 0.992531 17.5828 1.29039 17.3652 1.70871C17.3652 1.71205 17.3619 1.71538 17.3619 1.71878C17.3619 1.72218 17.3586 1.72545 17.3586 1.72545L15.2837 6.00575C15.2736 6.02248 15.2636 6.03921 15.2536 6.05928C15.2435 6.07601 15.2368 6.09608 15.2302 6.11614L9.85548 17.1934C9.77515 17.3607 9.73501 17.5481 9.74168 17.7355V17.7389L9.86214 21.3097C9.87554 21.6577 10.0061 21.9823 10.2236 22.2366L9.90568 22.8791C9.76515 23.1603 9.88228 23.5016 10.1633 23.6422C10.2437 23.6823 10.3307 23.7025 10.4143 23.7025C10.6252 23.7025 10.826 23.5853 10.9264 23.3845L11.2342 22.7587C11.2811 22.7621 11.3246 22.7654 11.3714 22.7654C11.686 22.7654 11.9972 22.6684 12.2583 22.4743L15.143 20.3593C15.2033 20.3157 15.2602 20.2622 15.3104 20.2087C15.3204 20.1986 15.3271 20.1886 15.3371 20.1785C15.4007 20.1049 15.4543 20.0213 15.4978 19.9342L21.9199 6.70513L22.365 6.91932L19.5037 12.8127C19.3665 13.0938 19.4837 13.4351 19.7681 13.5723C19.8484 13.6124 19.9321 13.6292 20.0158 13.6292C20.2266 13.6292 20.4308 13.512 20.5278 13.3079L23.6 6.97952C23.6168 6.95612 23.6335 6.92933 23.6469 6.90253C23.6603 6.87573 23.667 6.85233 23.677 6.82553L24.4434 5.24597C24.5805 4.9683 24.46 4.62698 24.1789 4.48978ZM11.5824 21.5607C11.4786 21.6343 11.3481 21.651 11.231 21.6076C11.2142 21.5975 11.1975 21.5875 11.1774 21.5774C11.1674 21.5741 11.1607 21.5708 11.1506 21.5674C11.0536 21.5004 10.9934 21.3934 10.99 21.2763L10.9097 18.9504C11.6626 19.536 12.5294 19.9577 13.4531 20.1919L11.5824 21.5607ZM14.5742 19.2282C13.2054 19.0943 11.927 18.4718 10.9766 17.4745L16.0233 7.07332L19.6275 8.81688L14.5742 19.2282ZM22.1174 3.51594C22.0973 3.6732 22.0337 3.84053 21.9701 3.99786L20.1295 7.78957L16.5219 6.04601L18.3691 2.23757C18.4695 2.0535 18.6268 1.86944 18.8209 1.72218C19.0217 1.56825 19.2359 1.45445 19.4401 1.39419C19.5772 1.35405 19.7078 1.33059 19.8182 1.32392C20.4374 1.28712 21.11 1.53478 21.5317 1.95644C21.9601 2.38476 22.1843 2.98382 22.1174 3.51594Z" fill="#A5A5B5"/>
<path d="M8.12192 22.6818C7.97799 22.6785 7.81066 22.6818 7.63666 22.6818C6.72642 22.6919 5.02966 22.7086 4.48754 22.1028C4.39381 21.9991 4.27334 21.8117 4.31687 21.4234C4.44407 20.3291 5.05979 19.1779 5.60197 18.1638L5.69231 17.9932C5.8697 17.6619 6.05376 17.3272 6.23443 16.9993C6.75315 16.0622 7.2886 15.0917 7.71359 14.071C8.02819 13.318 8.20218 12.6086 8.23231 11.9693C8.27245 11.1126 8.05832 10.3663 7.59646 9.75052C7.04428 9.01093 6.23776 8.46875 5.13339 8.08729C4.21641 7.76936 3.20577 7.60537 2.31559 7.4581C1.914 7.39117 1.53247 7.33091 1.18108 7.25731C0.873221 7.19371 0.572028 7.3945 0.511763 7.70243C0.448165 8.01029 0.64896 8.31148 0.956885 8.37175C1.33168 8.44874 1.72327 8.51228 2.13486 8.57921C3.82488 8.857 5.74251 9.1682 6.68622 10.4299C7.24507 11.1762 7.2384 12.2538 6.66282 13.6326C6.26123 14.5964 5.74251 15.5368 5.23718 16.447C5.05646 16.775 4.86906 17.1163 4.68833 17.4543L4.598 17.6217C4.00568 18.726 3.33636 19.9777 3.18577 21.2862C3.11217 21.912 3.2661 22.4407 3.64089 22.8591C4.42734 23.7325 5.9835 23.8195 7.1916 23.8195C7.34887 23.8195 7.50286 23.8195 7.64673 23.8162C7.81739 23.8162 7.97472 23.8129 8.10858 23.8162C8.11192 23.8162 8.11192 23.8162 8.11525 23.8162C8.42651 23.8162 8.68084 23.5652 8.68417 23.2539C8.6875 22.9462 8.43644 22.6851 8.12192 22.6818Z" fill="#A5A5B5"/>
</g>
<defs>
<clipPath id="clip0_468_42516">
<rect width="24" height="24" fill="white" transform="translate(0.5)"/>
</clipPath>
</defs>
</svg>
