<svg width="30" height="30" viewBox="0 0 30 30" fill="none" xmlns="http://www.w3.org/2000/svg">
<path d="M30.0001 15.3331C30.0001 14.0998 29.8979 13.1998 29.6769 12.2664H15.3059V17.8331H23.7414C23.5714 19.2165 22.653 21.2999 20.6121 22.6999L20.5835 22.8862L25.1273 26.3359L25.4421 26.3667C28.3333 23.7499 30.0001 19.8998 30.0001 15.3331Z" fill="#4285F4"/>
<path d="M15.3038 30.0003C19.4365 30.0003 22.9059 28.6669 25.44 26.3669L20.61 22.7C19.3175 23.5834 17.5827 24.2 15.3038 24.2C11.2562 24.2 7.82079 21.5834 6.59616 17.9666L6.41666 17.9816L1.69192 21.565L1.63013 21.7333C4.14715 26.6334 9.31731 30.0003 15.3038 30.0003Z" fill="#34A853"/>
<path d="M6.59869 17.9666C6.27557 17.0333 6.08856 16.0332 6.08856 14.9999C6.08856 13.9665 6.27557 12.9665 6.58169 12.0332L6.57313 11.8344L1.78917 8.19342L1.63264 8.26638C0.595256 10.2998 0 12.5832 0 14.9999C0 17.4166 0.595256 19.6999 1.63264 21.7333L6.59869 17.9666Z" fill="#FBBC05"/>
<path d="M15.3039 5.79977C18.1781 5.79977 20.1169 7.01645 21.2224 8.03321L25.5422 3.89977C22.8891 1.48306 19.4366 -0.000305176 15.3039 -0.000305176C9.31735 -0.000305176 4.14716 3.3664 1.63013 8.26645L6.57919 12.0332C7.82082 8.41652 11.2562 5.79977 15.3039 5.79977Z" fill="#EB4335"/>
</svg>
