<svg width="60" height="60" viewBox="0 0 60 60" fill="none" xmlns="http://www.w3.org/2000/svg">
<mask id="mask0_468_48688" style="mask-type:luminance" maskUnits="userSpaceOnUse" x="5" y="6" width="49" height="32">
<path fill-rule="evenodd" clipRule="evenodd" d="M53.7498 6.70837H5.4165V37.5417H13.2847C12.2453 35.2415 11.6667 32.6884 11.6667 30.0001C11.6667 19.8749 19.8748 11.6668 30 11.6668C40.1252 11.6668 48.3333 19.8749 48.3333 30.0001C48.3333 32.6884 47.7547 35.2415 46.7153 37.5417H53.7498V6.70837Z" fill="white"/>
</mask>
<g mask="url(#mask0_468_48688)">
<path fill-rule="evenodd" clipRule="evenodd" d="M48.3433 19.8198C48.3433 19.4088 48.5928 19.0389 48.974 18.8849L52.5434 17.443C52.9411 17.2823 53.375 17.5751 53.375 18.004V33.7041C53.375 34.1151 53.1255 34.485 52.7443 34.639L48.3433 36.4168V19.8198Z" fill="url(#paint0_linear_468_48688)" stroke="url(#paint1_linear_468_48688)" strokeWidth="1.00833" strokeLinecap="round" stroke-linejoin="round"/>
<mask id="mask1_468_48688" style="mask-type:luminance" maskUnits="userSpaceOnUse" x="47" y="16" width="7" height="21">
<path fill-rule="evenodd" clipRule="evenodd" d="M48.3433 19.8198C48.3433 19.4088 48.5928 19.0389 48.974 18.8849L52.5434 17.443C52.9411 17.2823 53.375 17.5751 53.375 18.004V33.7041C53.375 34.1151 53.1255 34.485 52.7443 34.639L48.3433 36.4168V19.8198Z" fill="white" stroke="white" strokeWidth="1.00833" strokeLinecap="round" stroke-linejoin="round"/>
</mask>
<g mask="url(#mask1_468_48688)">
<g style="mix-blend-mode:multiply" opacity="0.6" filter="url(#filter0_i_468_48688)">
<path d="M48.8466 26.0843L54.575 23.6739C54.8315 23.5659 54.9528 23.2684 54.8459 23.0094C54.739 22.7503 54.4445 22.6278 54.1879 22.7358L48.1499 25.2765C47.9624 25.3554 48.8466 26.0843 48.8466 26.0843Z" fill="#FABC10"/>
</g>
<g style="mix-blend-mode:multiply" opacity="0.6" filter="url(#filter1_i_468_48688)">
<path d="M47.8402 32.1821L53.5686 29.7717C53.8252 29.6637 53.9465 29.3662 53.8396 29.1072C53.7327 28.8481 53.4381 28.7256 53.1816 28.8335L47.1435 31.3743C46.956 31.4532 47.8402 32.1821 47.8402 32.1821Z" fill="#FABC10"/>
</g>
<g opacity="0.2">
<circle cx="22.9167" cy="22.9167" r="22.9167" transform="matrix(-1 0 0 1 52.7441 7.74414)" fill="#A4053A" fill-opacity="0.2" style="mix-blend-mode:multiply"/>
</g>
</g>
<path fill-rule="evenodd" clipRule="evenodd" d="M11.6567 19.8198C11.6567 19.4088 11.4072 19.0389 11.026 18.8849L7.45661 17.443C7.05893 17.2823 6.625 17.5751 6.625 18.004V33.7041C6.625 34.1151 6.87452 34.485 7.25566 34.639L11.6567 36.4168V19.8198Z" fill="url(#paint2_linear_468_48688)" stroke="url(#paint3_linear_468_48688)" strokeWidth="1.00833" strokeLinecap="round" stroke-linejoin="round"/>
<mask id="mask2_468_48688" style="mask-type:luminance" maskUnits="userSpaceOnUse" x="6" y="16" width="7" height="21">
<path fill-rule="evenodd" clipRule="evenodd" d="M11.6567 19.8198C11.6567 19.4088 11.4072 19.0389 11.026 18.8849L7.45661 17.443C7.05893 17.2823 6.625 17.5751 6.625 18.004V33.7041C6.625 34.1151 6.87452 34.485 7.25566 34.639L11.6567 36.4168V19.8198Z" fill="white" stroke="white" strokeWidth="1.00833" strokeLinecap="round" stroke-linejoin="round"/>
</mask>
<g mask="url(#mask2_468_48688)">
<g style="mix-blend-mode:multiply" opacity="0.6" filter="url(#filter2_i_468_48688)">
<path d="M11.1539 26.0843L5.4255 23.6739C5.16898 23.5659 5.04768 23.2684 5.15456 23.0094C5.26144 22.7503 5.55603 22.6278 5.81255 22.7358L11.8506 25.2765C12.0381 25.3554 11.1539 26.0843 11.1539 26.0843Z" fill="#FABC10"/>
</g>
<g style="mix-blend-mode:multiply" opacity="0.6" filter="url(#filter3_i_468_48688)">
<path d="M12.1598 32.1821L6.43136 29.7717C6.17484 29.6637 6.05354 29.3662 6.16042 29.1072C6.2673 28.8481 6.56189 28.7256 6.81841 28.8335L12.8565 31.3743C13.044 31.4532 12.1598 32.1821 12.1598 32.1821Z" fill="#FABC10"/>
</g>
<g opacity="0.2">
<circle cx="30.0002" cy="30.6608" r="22.9167" fill="#A4053A" fill-opacity="0.2" style="mix-blend-mode:multiply"/>
</g>
</g>
<path fill-rule="evenodd" clipRule="evenodd" d="M43.8597 9.79883C43.8597 9.12782 43.2165 8.64399 42.5718 8.83002L29.7709 12.5236L16.97 8.83002C16.3253 8.64399 15.6821 9.12782 15.6821 9.79883V24.7273C15.6821 25.2841 16.1336 25.7356 16.6905 25.7356H42.8513C43.4082 25.7356 43.8597 25.2841 43.8597 24.7273V9.79883Z" fill="url(#paint4_linear_468_48688)" stroke="url(#paint5_linear_468_48688)" strokeWidth="1.00833" strokeLinecap="round" stroke-linejoin="round"/>
</g>
<path fill-rule="evenodd" clipRule="evenodd" d="M29.9997 51.5417C32.7802 51.5417 35.4378 51.0149 37.8779 50.0556L42.3751 52.6521C42.6587 52.8158 43.0081 52.8158 43.2917 52.6521L48.7259 49.5146C49.0096 49.3509 49.1843 49.0483 49.1843 48.7208V42.4459C49.1843 42.1184 49.0096 41.8158 48.7259 41.6521L48.2833 41.3965C50.3481 38.0908 51.5413 34.1848 51.5413 30C51.5413 18.1029 41.8968 8.45837 29.9997 8.45837C18.1025 8.45837 8.45801 18.1029 8.45801 30C8.45801 41.8972 18.1025 51.5417 29.9997 51.5417ZM30.0001 49.7084C32.2711 49.7084 34.4524 49.3243 36.4826 48.6175V48.6174C34.4524 49.3242 32.2711 49.7083 30.0001 49.7083C19.1155 49.7083 10.2917 40.8846 10.2917 30C10.2917 30 10.2917 30.0001 10.2917 30.0001C10.2917 40.8847 19.1155 49.7084 30.0001 49.7084ZM36.4826 47.1545C34.4672 47.9165 32.2824 48.3335 30.0002 48.3335C19.875 48.3335 11.6669 40.1253 11.6669 30.0001C11.6669 19.8749 19.875 11.6668 30.0002 11.6668C40.1255 11.6668 48.3336 19.8749 48.3336 30.0001C48.3336 33.6005 47.2957 36.9585 45.5029 39.7912L43.2917 38.5146C43.0081 38.3509 42.6587 38.3509 42.3751 38.5146L36.9409 41.6521C36.6573 41.8158 36.4826 42.1184 36.4826 42.4459V47.1545ZM46.6946 40.4792L46.6946 40.4793C47.6493 38.9615 48.4027 37.3045 48.9175 35.5454C48.4027 37.3044 47.6493 38.9615 46.6946 40.4792Z" fill="url(#paint6_linear_468_48688)"/>
<mask id="mask3_468_48688" style="mask-type:luminance" maskUnits="userSpaceOnUse" x="8" y="8" width="44" height="45">
<path fill-rule="evenodd" clipRule="evenodd" d="M29.9997 51.5417C32.7802 51.5417 35.4378 51.0149 37.8779 50.0556L42.3751 52.6521C42.6587 52.8158 43.0081 52.8158 43.2917 52.6521L48.7259 49.5146C49.0096 49.3509 49.1843 49.0483 49.1843 48.7208V42.4459C49.1843 42.1184 49.0096 41.8158 48.7259 41.6521L48.2833 41.3965C50.3481 38.0908 51.5413 34.1848 51.5413 30C51.5413 18.1029 41.8968 8.45837 29.9997 8.45837C18.1025 8.45837 8.45801 18.1029 8.45801 30C8.45801 41.8972 18.1025 51.5417 29.9997 51.5417ZM30.0001 49.7084C32.2711 49.7084 34.4524 49.3243 36.4826 48.6175V48.6174C34.4524 49.3242 32.2711 49.7083 30.0001 49.7083C19.1155 49.7083 10.2917 40.8846 10.2917 30C10.2917 30 10.2917 30.0001 10.2917 30.0001C10.2917 40.8847 19.1155 49.7084 30.0001 49.7084ZM36.4826 47.1545C34.4672 47.9165 32.2824 48.3335 30.0002 48.3335C19.875 48.3335 11.6669 40.1253 11.6669 30.0001C11.6669 19.8749 19.875 11.6668 30.0002 11.6668C40.1255 11.6668 48.3336 19.8749 48.3336 30.0001C48.3336 33.6005 47.2957 36.9585 45.5029 39.7912L43.2917 38.5146C43.0081 38.3509 42.6587 38.3509 42.3751 38.5146L36.9409 41.6521C36.6573 41.8158 36.4826 42.1184 36.4826 42.4459V47.1545ZM46.6946 40.4792L46.6946 40.4793C47.6493 38.9615 48.4027 37.3045 48.9175 35.5454C48.4027 37.3044 47.6493 38.9615 46.6946 40.4792Z" fill="white"/>
</mask>
<g mask="url(#mask3_468_48688)">
<g style="mix-blend-mode:multiply" opacity="0.3">
<path fill-rule="evenodd" clipRule="evenodd" d="M36.6667 5L30 30L23.3333 5H36.6667ZM30.0002 29.9999L30 30L29.9999 30L17.0363 7.60828L7.60819 17.0364L29.9999 30L5 23.3333V36.6667L30 30L30 30.0001L7.60853 42.9636L17.0366 52.3917L29.9998 30.0007L23.3333 55H36.6667L30.0001 30.0003L30.0002 30L55 36.6667V23.3333L30.0002 29.9999ZM30.0002 29.9999L52.392 17.0363L42.9639 7.60824L30.0002 29.9999ZM30.0001 30L30 30.0001L30 30L30.0001 30Z" fill="#FFD640"/>
</g>
</g>
<path d="M13.3022 42.7295C17.1724 47.81 23.2478 51.0833 30.0792 51.0833C31.2552 51.0833 32.4088 50.9863 33.5326 50.7998" stroke="url(#paint7_linear_468_48688)" strokeWidth="0.9625" strokeLinecap="round" stroke-linejoin="round"/>
<path opacity="0.4" d="M51.0837 30C51.0837 18.356 41.6443 8.91663 30.0003 8.91663C18.3563 8.91663 8.91699 18.356 8.91699 30" stroke="white" strokeWidth="0.916667" strokeLinecap="round" stroke-linejoin="round"/>
<path opacity="0.4" d="M44.8154 39.9737C44.2703 39.6591 43.1803 39.0297 43.1803 39.0297C42.9676 38.9069 42.7055 38.9069 42.4928 39.0297C41.8537 39.3987 41.4008 39.6602 41.1342 39.8141C40.5794 40.1344 40.1266 40.3959 39.7757 40.5984C39.1719 40.947 38.2662 41.47 37.0586 42.1672" stroke="white" strokeWidth="0.916667" strokeLinecap="round"/>
<path opacity="0.4" d="M48.7916 45.8584V48.7539C48.7916 48.9189 48.703 49.0712 48.5594 49.1526L43.18 52.2042C42.9673 52.327 42.7052 52.327 42.4925 52.2042C41.8534 51.8352 41.4005 51.5737 41.1339 51.4198C40.5791 51.0995 40.1263 50.838 39.7754 50.6354" stroke="#FDB115" strokeWidth="0.916667" strokeLinecap="round" stroke-linejoin="round"/>
<path d="M42.4923 39.0297C41.8532 39.3987 41.4004 39.6601 41.1338 39.814" stroke="white" strokeWidth="0.916667" strokeLinecap="round"/>
<path opacity="0.2" d="M12.1699 35.9505C14.659 43.4124 21.7013 48.7917 30 48.7917C31.1153 48.7917 32.208 48.6946 33.27 48.5082" stroke="#EDAA2F" strokeWidth="0.916667" strokeLinecap="round" stroke-linejoin="round"/>
<path opacity="0.6" d="M20.3569 46.1322C23.1761 47.821 26.4747 48.7917 30 48.7917" stroke="white" strokeWidth="0.916667" strokeLinecap="round" stroke-linejoin="round"/>
<path opacity="0.2" d="M12.7095 22.6277C15.5758 15.9138 22.2383 11.2083 29.9999 11.2083C37.7614 11.2083 44.424 15.9138 47.2903 22.6277" stroke="#DA731B" strokeWidth="0.916667" strokeLinecap="round" stroke-linejoin="round"/>
<path opacity="0.2" d="M20.3569 13.8678C23.1761 12.179 26.4747 11.2083 30 11.2083C33.5253 11.2083 36.8239 12.179 39.643 13.8678" stroke="#DA731B" strokeWidth="0.916667" strokeLinecap="round" stroke-linejoin="round"/>
<g filter="url(#filter4_d_468_48688)">
<path fill-rule="evenodd" clipRule="evenodd" d="M42.6045 41.6874L46.042 45.5832L42.6045 49.479L39.167 45.5832L42.6045 41.6874Z" fill="black" fill-opacity="0.01"/>
</g>
<g filter="url(#filter5_i_468_48688)">
<path fill-rule="evenodd" clipRule="evenodd" d="M42.6045 41.6874L46.042 45.5832L42.6045 49.479L39.167 45.5832L42.6045 41.6874Z" fill="url(#paint8_linear_468_48688)"/>
</g>
<path fill-rule="evenodd" clipRule="evenodd" d="M42.6045 41.6874L46.042 45.5832L42.6045 49.479L39.167 45.5832L42.6045 41.6874Z" stroke="white" strokeWidth="0.916667" strokeLinecap="round" stroke-linejoin="round"/>
<path fill-rule="evenodd" clipRule="evenodd" d="M42.6049 42.077L45.6604 45.5833L42.6049 49.0895L39.5493 45.5833L42.6049 42.077Z" fill="#009EF7"/>
<path fill-rule="evenodd" clipRule="evenodd" d="M42.6049 42.077L41.5136 45.5833H39.5493L42.6049 42.077Z" fill="url(#paint9_linear_468_48688)"/>
<path fill-rule="evenodd" clipRule="evenodd" d="M42.6045 42.077L41.5132 45.5833H43.6957L42.6045 42.077Z" fill="url(#paint10_linear_468_48688)"/>
<path fill-rule="evenodd" clipRule="evenodd" d="M42.6045 42.077L45.66 45.5833H43.6958L42.6045 42.077Z" fill="url(#paint11_linear_468_48688)"/>
<path fill-rule="evenodd" clipRule="evenodd" d="M42.6049 49.0894L41.5136 45.5831H39.5493L42.6049 49.0894Z" fill="url(#paint12_linear_468_48688)"/>
<path fill-rule="evenodd" clipRule="evenodd" d="M42.6045 49.0894L41.5132 45.5831H43.6957L42.6045 49.0894Z" fill="url(#paint13_linear_468_48688)"/>
<path fill-rule="evenodd" clipRule="evenodd" d="M42.6045 49.0894L45.66 45.5831H43.6958L42.6045 49.0894Z" fill="url(#paint14_linear_468_48688)"/>
<g filter="url(#filter6_d_468_48688)">
<path fill-rule="evenodd" clipRule="evenodd" d="M36.7654 43.3604L36.567 43.2821C36.4457 43.2343 36.3862 43.0971 36.434 42.9758C36.458 42.915 36.5062 42.8668 36.567 42.8428L36.7654 42.7646C36.9941 42.6744 37.1752 42.4933 37.2654 42.2645L37.3437 42.0662C37.3915 41.9449 37.5286 41.8853 37.6499 41.9332C37.7108 41.9572 37.759 42.0053 37.783 42.0662L37.8612 42.2645C37.9514 42.4933 38.1325 42.6744 38.3612 42.7646L38.5596 42.8428C38.6809 42.8906 38.7405 43.0278 38.6926 43.1491C38.6686 43.2099 38.6204 43.2581 38.5596 43.2821L38.3612 43.3604C38.1325 43.4506 37.9514 43.6316 37.8612 43.8604L37.783 44.0587C37.7351 44.1801 37.598 44.2396 37.4767 44.1918C37.4158 44.1678 37.3677 44.1196 37.3437 44.0587L37.2654 43.8604C37.1752 43.6316 36.9941 43.4506 36.7654 43.3604Z" fill="white"/>
</g>
<g filter="url(#filter7_d_468_48688)">
<path fill-rule="evenodd" clipRule="evenodd" d="M47.8345 42.274L47.5965 42.1801C47.4509 42.1227 47.3794 41.9581 47.4368 41.8125C47.4656 41.7395 47.5234 41.6817 47.5965 41.6529L47.8345 41.559C48.109 41.4508 48.3263 41.2335 48.4345 40.959L48.5284 40.721C48.5858 40.5754 48.7504 40.5039 48.896 40.5613C48.969 40.5901 49.0268 40.6479 49.0556 40.721L49.1495 40.959C49.2577 41.2335 49.475 41.4508 49.7495 41.559L49.9875 41.6529C50.1331 41.7103 50.2046 41.8749 50.1472 42.0205C50.1184 42.0935 50.0605 42.1513 49.9875 42.1801L49.7495 42.274C49.475 42.3822 49.2577 42.5995 49.1495 42.874L49.0556 43.112C48.9982 43.2576 48.8336 43.3291 48.688 43.2717C48.615 43.2429 48.5572 43.1851 48.5284 43.112L48.4345 42.874C48.3263 42.5995 48.109 42.3822 47.8345 42.274Z" fill="white"/>
</g>
<g filter="url(#filter8_d_468_48688)">
<path fill-rule="evenodd" clipRule="evenodd" d="M36.376 50.0657L36.138 49.9718C35.9924 49.9144 35.9209 49.7499 35.9783 49.6043C36.0071 49.5313 36.0649 49.4735 36.138 49.4447L36.376 49.3508C36.6505 49.2425 36.8678 49.0252 36.976 48.7507L37.0699 48.5127C37.1273 48.3671 37.2919 48.2957 37.4375 48.3531C37.5105 48.3819 37.5683 48.4397 37.5971 48.5127L37.691 48.7507C37.7992 49.0252 38.0165 49.2425 38.291 49.3508L38.529 49.4447C38.6746 49.5021 38.7461 49.6666 38.6887 49.8122C38.6599 49.8852 38.6021 49.943 38.529 49.9718L38.291 50.0657C38.0165 50.174 37.7992 50.3913 37.691 50.6658L37.5971 50.9038C37.5397 51.0494 37.3751 51.1208 37.2295 51.0634C37.1565 51.0346 37.0987 50.9768 37.0699 50.9038L36.976 50.6658C36.8678 50.3913 36.6505 50.174 36.376 50.0657Z" fill="white"/>
</g>
<g filter="url(#filter9_d_468_48688)">
<path fill-rule="evenodd" clipRule="evenodd" d="M47.1677 49.1995L47.0487 49.1525C46.9759 49.1238 46.9402 49.0416 46.9689 48.9688C46.9833 48.9323 47.0122 48.9034 47.0487 48.889L47.1677 48.842C47.305 48.7879 47.4136 48.6792 47.4677 48.542L47.5147 48.423C47.5434 48.3502 47.6257 48.3145 47.6985 48.3432C47.735 48.3576 47.7639 48.3865 47.7783 48.423L47.8252 48.542C47.8793 48.6792 47.988 48.7879 48.1252 48.842L48.2443 48.889C48.317 48.9177 48.3528 48.9999 48.3241 49.0727C48.3097 49.1092 48.2808 49.1381 48.2443 49.1525L48.1252 49.1995C47.988 49.2536 47.8793 49.3623 47.8252 49.4995L47.7783 49.6185C47.7496 49.6913 47.6673 49.727 47.5945 49.6983C47.558 49.6839 47.5291 49.655 47.5147 49.6185L47.4677 49.4995C47.4136 49.3623 47.305 49.2536 47.1677 49.1995Z" fill="white"/>
</g>
<defs>
<filter id="filter0_i_468_48688" x="48.124" y="22.6965" width="6.76074" height="4.22115" filterUnits="userSpaceOnUse" color-interpolation-filters="sRGB">
<feFlood flood-opacity="0" result="BackgroundImageFix"/>
<feBlend mode="normal" in="SourceGraphic" in2="BackgroundImageFix" result="shape"/>
<feColorMatrix in="SourceAlpha" type="matrix" values="0 0 0 0 0 0 0 0 0 0 0 0 0 0 0 0 0 0 127 0" result="hardAlpha"/>
<feOffset dy="0.833333"/>
<feGaussianBlur stdDeviation="0.416667"/>
<feComposite in2="hardAlpha" operator="arithmetic" k2="-1" k3="1"/>
<feColorMatrix type="matrix" values="0 0 0 0 0.976471 0 0 0 0 0.713726 0 0 0 0 0.0352941 0 0 0 1 0"/>
<feBlend mode="normal" in2="shape" result="effect1_innerShadow_468_48688"/>
</filter>
<filter id="filter1_i_468_48688" x="47.1177" y="28.7943" width="6.76074" height="4.22115" filterUnits="userSpaceOnUse" color-interpolation-filters="sRGB">
<feFlood flood-opacity="0" result="BackgroundImageFix"/>
<feBlend mode="normal" in="SourceGraphic" in2="BackgroundImageFix" result="shape"/>
<feColorMatrix in="SourceAlpha" type="matrix" values="0 0 0 0 0 0 0 0 0 0 0 0 0 0 0 0 0 0 127 0" result="hardAlpha"/>
<feOffset dy="0.833333"/>
<feGaussianBlur stdDeviation="0.416667"/>
<feComposite in2="hardAlpha" operator="arithmetic" k2="-1" k3="1"/>
<feColorMatrix type="matrix" values="0 0 0 0 0.976471 0 0 0 0 0.713726 0 0 0 0 0.0352941 0 0 0 1 0"/>
<feBlend mode="normal" in2="shape" result="effect1_innerShadow_468_48688"/>
</filter>
<filter id="filter2_i_468_48688" x="5.11572" y="22.6965" width="6.76074" height="4.22115" filterUnits="userSpaceOnUse" color-interpolation-filters="sRGB">
<feFlood flood-opacity="0" result="BackgroundImageFix"/>
<feBlend mode="normal" in="SourceGraphic" in2="BackgroundImageFix" result="shape"/>
<feColorMatrix in="SourceAlpha" type="matrix" values="0 0 0 0 0 0 0 0 0 0 0 0 0 0 0 0 0 0 127 0" result="hardAlpha"/>
<feOffset dy="0.833333"/>
<feGaussianBlur stdDeviation="0.416667"/>
<feComposite in2="hardAlpha" operator="arithmetic" k2="-1" k3="1"/>
<feColorMatrix type="matrix" values="0 0 0 0 0.976471 0 0 0 0 0.713726 0 0 0 0 0.0352941 0 0 0 1 0"/>
<feBlend mode="normal" in2="shape" result="effect1_innerShadow_468_48688"/>
</filter>
<filter id="filter3_i_468_48688" x="6.12158" y="28.7943" width="6.76074" height="4.22115" filterUnits="userSpaceOnUse" color-interpolation-filters="sRGB">
<feFlood flood-opacity="0" result="BackgroundImageFix"/>
<feBlend mode="normal" in="SourceGraphic" in2="BackgroundImageFix" result="shape"/>
<feColorMatrix in="SourceAlpha" type="matrix" values="0 0 0 0 0 0 0 0 0 0 0 0 0 0 0 0 0 0 127 0" result="hardAlpha"/>
<feOffset dy="0.833333"/>
<feGaussianBlur stdDeviation="0.416667"/>
<feComposite in2="hardAlpha" operator="arithmetic" k2="-1" k3="1"/>
<feColorMatrix type="matrix" values="0 0 0 0 0.976471 0 0 0 0 0.713726 0 0 0 0 0.0352941 0 0 0 1 0"/>
<feBlend mode="normal" in2="shape" result="effect1_innerShadow_468_48688"/>
</filter>
<filter id="filter4_d_468_48688" x="38.3337" y="41.6874" width="8.54167" height="9.45829" filterUnits="userSpaceOnUse" color-interpolation-filters="sRGB">
<feFlood flood-opacity="0" result="BackgroundImageFix"/>
<feColorMatrix in="SourceAlpha" type="matrix" values="0 0 0 0 0 0 0 0 0 0 0 0 0 0 0 0 0 0 127 0" result="hardAlpha"/>
<feOffset dy="0.833333"/>
<feGaussianBlur stdDeviation="0.416667"/>
<feColorMatrix type="matrix" values="0 0 0 0 0.996078 0 0 0 0 0.733333 0 0 0 0 0.105882 0 0 0 1 0"/>
<feBlend mode="normal" in2="BackgroundImageFix" result="effect1_dropShadow_468_48688"/>
<feBlend mode="normal" in="SourceGraphic" in2="effect1_dropShadow_468_48688" result="shape"/>
</filter>
<filter id="filter5_i_468_48688" x="38.7085" y="41.229" width="7.79199" height="9.54171" filterUnits="userSpaceOnUse" color-interpolation-filters="sRGB">
<feFlood flood-opacity="0" result="BackgroundImageFix"/>
<feBlend mode="normal" in="SourceGraphic" in2="BackgroundImageFix" result="shape"/>
<feColorMatrix in="SourceAlpha" type="matrix" values="0 0 0 0 0 0 0 0 0 0 0 0 0 0 0 0 0 0 127 0" result="hardAlpha"/>
<feOffset dy="0.833333"/>
<feGaussianBlur stdDeviation="0.416667"/>
<feComposite in2="hardAlpha" operator="arithmetic" k2="-1" k3="1"/>
<feColorMatrix type="matrix" values="0 0 0 0 0.927748 0 0 0 0 0.568655 0 0 0 0 0 0 0 0 1 0"/>
<feBlend mode="normal" in2="shape" result="effect1_innerShadow_468_48688"/>
</filter>
<filter id="filter6_d_468_48688" x="35.5841" y="41.0833" width="3.95817" height="3.95829" filterUnits="userSpaceOnUse" color-interpolation-filters="sRGB">
<feFlood flood-opacity="0" result="BackgroundImageFix"/>
<feColorMatrix in="SourceAlpha" type="matrix" values="0 0 0 0 0 0 0 0 0 0 0 0 0 0 0 0 0 0 127 0" result="hardAlpha"/>
<feOffset/>
<feGaussianBlur stdDeviation="0.416667"/>
<feColorMatrix type="matrix" values="0 0 0 0 1 0 0 0 0 0.94902 0 0 0 0 0.305882 0 0 0 1 0"/>
<feBlend mode="normal" in2="BackgroundImageFix" result="effect1_dropShadow_468_48688"/>
<feBlend mode="normal" in="SourceGraphic" in2="effect1_dropShadow_468_48688" result="shape"/>
</filter>
<filter id="filter7_d_468_48688" x="46.5837" y="39.7082" width="4.41667" height="4.41667" filterUnits="userSpaceOnUse" color-interpolation-filters="sRGB">
<feFlood flood-opacity="0" result="BackgroundImageFix"/>
<feColorMatrix in="SourceAlpha" type="matrix" values="0 0 0 0 0 0 0 0 0 0 0 0 0 0 0 0 0 0 127 0" result="hardAlpha"/>
<feOffset/>
<feGaussianBlur stdDeviation="0.416667"/>
<feColorMatrix type="matrix" values="0 0 0 0 1 0 0 0 0 0.94902 0 0 0 0 0.305882 0 0 0 1 0"/>
<feBlend mode="normal" in2="BackgroundImageFix" result="effect1_dropShadow_468_48688"/>
<feBlend mode="normal" in="SourceGraphic" in2="effect1_dropShadow_468_48688" result="shape"/>
</filter>
<filter id="filter8_d_468_48688" x="35.1252" y="47.4999" width="4.41667" height="4.41667" filterUnits="userSpaceOnUse" color-interpolation-filters="sRGB">
<feFlood flood-opacity="0" result="BackgroundImageFix"/>
<feColorMatrix in="SourceAlpha" type="matrix" values="0 0 0 0 0 0 0 0 0 0 0 0 0 0 0 0 0 0 127 0" result="hardAlpha"/>
<feOffset/>
<feGaussianBlur stdDeviation="0.416667"/>
<feColorMatrix type="matrix" values="0 0 0 0 1 0 0 0 0 0.94902 0 0 0 0 0.305882 0 0 0 1 0"/>
<feBlend mode="normal" in2="BackgroundImageFix" result="effect1_dropShadow_468_48688"/>
<feBlend mode="normal" in="SourceGraphic" in2="effect1_dropShadow_468_48688" result="shape"/>
</filter>
<filter id="filter9_d_468_48688" x="46.1257" y="47.4999" width="3.04167" height="3.04167" filterUnits="userSpaceOnUse" color-interpolation-filters="sRGB">
<feFlood flood-opacity="0" result="BackgroundImageFix"/>
<feColorMatrix in="SourceAlpha" type="matrix" values="0 0 0 0 0 0 0 0 0 0 0 0 0 0 0 0 0 0 127 0" result="hardAlpha"/>
<feOffset/>
<feGaussianBlur stdDeviation="0.416667"/>
<feColorMatrix type="matrix" values="0 0 0 0 1 0 0 0 0 0.94902 0 0 0 0 0.305882 0 0 0 1 0"/>
<feBlend mode="normal" in2="BackgroundImageFix" result="effect1_dropShadow_468_48688"/>
<feBlend mode="normal" in="SourceGraphic" in2="effect1_dropShadow_468_48688" result="shape"/>
</filter>
<linearGradient id="paint0_linear_468_48688" x1="53.375" y1="17.1071" x2="53.375" y2="36.4168" gradientUnits="userSpaceOnUse">
<stop stop-color="#F7C71A"/>
<stop offset="1" stop-color="#FBAA00"/>
</linearGradient>
<linearGradient id="paint1_linear_468_48688" x1="53.375" y1="17.1071" x2="53.375" y2="36.4168" gradientUnits="userSpaceOnUse">
<stop stop-color="#FFDF6B"/>
<stop offset="1" stop-color="#F8A60A"/>
</linearGradient>
<linearGradient id="paint2_linear_468_48688" x1="6.625" y1="17.1071" x2="6.625" y2="36.4168" gradientUnits="userSpaceOnUse">
<stop stop-color="#F7C71A"/>
<stop offset="1" stop-color="#FBAA00"/>
</linearGradient>
<linearGradient id="paint3_linear_468_48688" x1="6.625" y1="17.1071" x2="6.625" y2="36.4168" gradientUnits="userSpaceOnUse">
<stop stop-color="#FFDF6B"/>
<stop offset="1" stop-color="#F8A60A"/>
</linearGradient>
<linearGradient id="paint4_linear_468_48688" x1="15.6821" y1="8.81787" x2="15.6821" y2="25.7356" gradientUnits="userSpaceOnUse">
<stop stop-color="#F7C71A"/>
<stop offset="1" stop-color="#FBAA00"/>
</linearGradient>
<linearGradient id="paint5_linear_468_48688" x1="15.6821" y1="8.81787" x2="15.6821" y2="25.7356" gradientUnits="userSpaceOnUse">
<stop stop-color="#FFDF6B"/>
<stop offset="1" stop-color="#F8A60A"/>
</linearGradient>
<linearGradient id="paint6_linear_468_48688" x1="8.45801" y1="8.45837" x2="8.45801" y2="52.7749" gradientUnits="userSpaceOnUse">
<stop stop-color="#FFD541"/>
<stop offset="1" stop-color="#FFF550"/>
</linearGradient>
<linearGradient id="paint7_linear_468_48688" x1="34.7062" y1="50.9643" x2="34.6078" y2="42.1122" gradientUnits="userSpaceOnUse">
<stop stop-color="#F8C417"/>
<stop offset="1" stop-color="#FFD937"/>
</linearGradient>
<linearGradient id="paint8_linear_468_48688" x1="39.167" y1="41.6874" x2="39.167" y2="49.479" gradientUnits="userSpaceOnUse">
<stop stop-color="#FCA50E"/>
<stop offset="1" stop-color="#FFC823"/>
</linearGradient>
<linearGradient id="paint9_linear_468_48688" x1="39.5493" y1="42.077" x2="39.5493" y2="45.5833" gradientUnits="userSpaceOnUse">
<stop stop-color="#27DEEB"/>
<stop offset="1" stop-color="#08C9FF"/>
</linearGradient>
<linearGradient id="paint10_linear_468_48688" x1="41.5132" y1="42.077" x2="41.5132" y2="45.5833" gradientUnits="userSpaceOnUse">
<stop stop-color="#8AFFFF"/>
<stop offset="1" stop-color="#0DF3FF"/>
</linearGradient>
<linearGradient id="paint11_linear_468_48688" x1="42.6045" y1="42.077" x2="42.6045" y2="45.5833" gradientUnits="userSpaceOnUse">
<stop stop-color="#27DEEB"/>
<stop offset="1" stop-color="#08C9FF"/>
</linearGradient>
<linearGradient id="paint12_linear_468_48688" x1="39.5493" y1="45.5831" x2="39.5493" y2="49.0894" gradientUnits="userSpaceOnUse">
<stop stop-color="#009BF6"/>
<stop offset="1" stop-color="#00B5FF"/>
</linearGradient>
<linearGradient id="paint13_linear_468_48688" x1="41.5132" y1="45.5831" x2="41.5132" y2="49.0894" gradientUnits="userSpaceOnUse">
<stop stop-color="#00BAF3"/>
<stop offset="1" stop-color="#11B0E2"/>
</linearGradient>
<linearGradient id="paint14_linear_468_48688" x1="42.6045" y1="45.5831" x2="42.6045" y2="49.0894" gradientUnits="userSpaceOnUse">
<stop stop-color="#009BF6"/>
<stop offset="1" stop-color="#00B5FF"/>
</linearGradient>
</defs>
</svg>
