<svg width="60" height="60" viewBox="0 0 60 60" fill="none" xmlns="http://www.w3.org/2000/svg">
<mask id="mask0_468_48698" style="mask-type:luminance" maskUnits="userSpaceOnUse" x="5" y="6" width="49" height="32">
<path fill-rule="evenodd" clipRule="evenodd" d="M53.7498 6.70837H5.4165V37.5417H13.2848C12.2453 35.2414 11.6667 32.6883 11.6667 30C11.6667 19.8748 19.8748 11.6667 30 11.6667C40.1252 11.6667 48.3333 19.8748 48.3333 30C48.3333 32.6883 47.7547 35.2414 46.7152 37.5417H53.7498V6.70837Z" fill="white"/>
</mask>
<g mask="url(#mask0_468_48698)">
<path fill-rule="evenodd" clipRule="evenodd" d="M47.4168 17.4671C47.4168 17.0683 47.6628 16.7108 48.0353 16.5682L51.6746 15.1752C52.0527 15.0305 52.4585 15.3097 52.4585 15.7145V30.6164C52.4585 31.0153 52.2125 31.3728 51.8401 31.5153L47.4168 33.2085V17.4671Z" fill="url(#paint0_linear_468_48698)" stroke="url(#paint1_linear_468_48698)" strokeWidth="0.9625" strokeLinecap="round" stroke-linejoin="round"/>
<mask id="mask1_468_48698" style="mask-type:luminance" maskUnits="userSpaceOnUse" x="46" y="14" width="7" height="20">
<path fill-rule="evenodd" clipRule="evenodd" d="M47.4168 17.4671C47.4168 17.0683 47.6628 16.7108 48.0353 16.5682L51.6746 15.1752C52.0527 15.0305 52.4585 15.3097 52.4585 15.7145V30.6164C52.4585 31.0153 52.2125 31.3728 51.8401 31.5153L47.4168 33.2085V17.4671Z" fill="white" stroke="white" strokeWidth="0.9625" strokeLinecap="round" stroke-linejoin="round"/>
</mask>
<g mask="url(#mask1_468_48698)">
<g opacity="0.2">
<circle cx="22.9167" cy="22.9167" r="22.9167" transform="matrix(-1 0 0 1 52.7441 7.74414)" fill="#A4053A" fill-opacity="0.2" style="mix-blend-mode:multiply"/>
</g>
</g>
<path fill-rule="evenodd" clipRule="evenodd" d="M12.1252 17.4671C12.1252 17.0683 11.8792 16.7108 11.5067 16.5682L7.86744 15.1752C7.48931 15.0305 7.0835 15.3097 7.0835 15.7145V30.6164C7.0835 31.0153 7.32945 31.3728 7.70192 31.5153L12.1252 33.2085V17.4671Z" fill="url(#paint2_linear_468_48698)" stroke="url(#paint3_linear_468_48698)" strokeWidth="0.9625" strokeLinecap="round" stroke-linejoin="round"/>
<mask id="mask2_468_48698" style="mask-type:luminance" maskUnits="userSpaceOnUse" x="6" y="14" width="7" height="20">
<path fill-rule="evenodd" clipRule="evenodd" d="M12.1252 17.4671C12.1252 17.0683 11.8792 16.7108 11.5067 16.5682L7.86744 15.1752C7.48931 15.0305 7.0835 15.3097 7.0835 15.7145V30.6164C7.0835 31.0153 7.32945 31.3728 7.70192 31.5153L12.1252 33.2085V17.4671Z" fill="white" stroke="white" strokeWidth="0.9625" strokeLinecap="round" stroke-linejoin="round"/>
</mask>
<g mask="url(#mask2_468_48698)">
<g opacity="0.2">
<circle cx="30.0002" cy="30.6608" r="22.9167" fill="#A4053A" fill-opacity="0.2" style="mix-blend-mode:multiply"/>
</g>
</g>
<path fill-rule="evenodd" clipRule="evenodd" d="M42.8333 8.84531C42.8333 8.19762 42.2065 7.7348 41.5875 7.92546L30.2292 11.4241L18.8708 7.92546C18.2518 7.7348 17.625 8.19762 17.625 8.84531V23.0792C17.625 23.6108 18.0559 24.0417 18.5875 24.0417H41.8708C42.4024 24.0417 42.8333 23.6108 42.8333 23.0792V8.84531Z" fill="url(#paint4_linear_468_48698)" stroke="url(#paint5_linear_468_48698)" strokeWidth="0.9625" strokeLinecap="round" stroke-linejoin="round"/>
</g>
<path fill-rule="evenodd" clipRule="evenodd" d="M29.9997 51.5417C32.7802 51.5417 35.4378 51.0149 37.8779 50.0556L42.3751 52.6521C42.6587 52.8158 43.0081 52.8158 43.2917 52.6521L48.7259 49.5146C49.0096 49.3509 49.1843 49.0483 49.1843 48.7208V42.4459C49.1843 42.1184 49.0096 41.8158 48.7259 41.6521L48.2833 41.3965C50.3481 38.0908 51.5413 34.1848 51.5413 30C51.5413 18.1029 41.8968 8.45837 29.9997 8.45837C18.1025 8.45837 8.45801 18.1029 8.45801 30C8.45801 41.8972 18.1025 51.5417 29.9997 51.5417ZM36.4826 47.1545C34.4672 47.9164 32.2824 48.3334 30.0002 48.3334C19.875 48.3334 11.6669 40.1253 11.6669 30.0001C11.6669 19.8749 19.875 11.6668 30.0002 11.6668C40.1255 11.6668 48.3336 19.8749 48.3336 30.0001C48.3336 33.6005 47.2957 36.9585 45.5029 39.7912L43.2917 38.5146C43.0081 38.3509 42.6587 38.3509 42.3751 38.5146L36.9409 41.6521C36.6573 41.8158 36.4826 42.1184 36.4826 42.4459V47.1545Z" fill="url(#paint6_linear_468_48698)"/>
<mask id="mask3_468_48698" style="mask-type:luminance" maskUnits="userSpaceOnUse" x="8" y="8" width="44" height="45">
<path fill-rule="evenodd" clipRule="evenodd" d="M29.9997 51.5417C32.7802 51.5417 35.4378 51.0149 37.8779 50.0556L42.3751 52.6521C42.6587 52.8158 43.0081 52.8158 43.2917 52.6521L48.7259 49.5146C49.0096 49.3509 49.1843 49.0483 49.1843 48.7208V42.4459C49.1843 42.1184 49.0096 41.8158 48.7259 41.6521L48.2833 41.3965C50.3481 38.0908 51.5413 34.1848 51.5413 30C51.5413 18.1029 41.8968 8.45837 29.9997 8.45837C18.1025 8.45837 8.45801 18.1029 8.45801 30C8.45801 41.8972 18.1025 51.5417 29.9997 51.5417ZM36.4826 47.1545C34.4672 47.9164 32.2824 48.3334 30.0002 48.3334C19.875 48.3334 11.6669 40.1253 11.6669 30.0001C11.6669 19.8749 19.875 11.6668 30.0002 11.6668C40.1255 11.6668 48.3336 19.8749 48.3336 30.0001C48.3336 33.6005 47.2957 36.9585 45.5029 39.7912L43.2917 38.5146C43.0081 38.3509 42.6587 38.3509 42.3751 38.5146L36.9409 41.6521C36.6573 41.8158 36.4826 42.1184 36.4826 42.4459V47.1545Z" fill="white"/>
</mask>
<g mask="url(#mask3_468_48698)">
<g style="mix-blend-mode:multiply" opacity="0.3">
<path fill-rule="evenodd" clipRule="evenodd" d="M36.6667 5.83337L30 30.8334L23.3333 5.83337H36.6667ZM30.0002 30.8333L30 30.8334L29.9999 30.8334L17.0363 8.44166L7.60819 17.8697L29.9999 30.8334L5 24.1667V37.5L30 30.8334L30 30.8335L7.60853 43.7969L17.0366 53.225L29.9998 30.8341L23.3333 55.8334H36.6667L30.0001 30.8336L30.0002 30.8334L55 37.5V24.1667L30.0002 30.8333ZM30.0002 30.8333L52.392 17.8697L42.9639 8.44161L30.0002 30.8333ZM30.0001 30.8334L30 30.8335L30 30.8334L30.0001 30.8334Z" fill="#FFD640"/>
</g>
</g>
<path opacity="0.2" d="M12.1699 35.9505C14.659 43.4124 21.7013 48.7917 30 48.7917C31.1153 48.7917 32.208 48.6946 33.27 48.5082" stroke="#EDAA2F" strokeWidth="0.916667" strokeLinecap="round" stroke-linejoin="round"/>
<path opacity="0.6" d="M20.3569 46.1322C23.1761 47.821 26.4747 48.7917 30 48.7917" stroke="white" strokeWidth="0.916667" strokeLinecap="round" stroke-linejoin="round"/>
<path opacity="0.2" d="M12.7046 22.6389C15.5683 15.919 22.2339 11.2083 29.9998 11.2083C37.7657 11.2083 44.4313 15.919 47.295 22.6389" stroke="#DA731B" strokeWidth="0.916667" strokeLinecap="round" stroke-linejoin="round"/>
<path opacity="0.2" d="M20.3569 13.8678C23.1761 12.179 26.4747 11.2083 30 11.2083C33.5253 11.2083 36.8239 12.179 39.643 13.8678" stroke="#DA731B" strokeWidth="0.916667" strokeLinecap="round" stroke-linejoin="round"/>
<path d="M13.3022 42.7295C17.1724 47.81 23.2478 51.0833 30.0792 51.0833C31.2552 51.0833 32.4088 50.9863 33.5326 50.7998" stroke="url(#paint7_linear_468_48698)" strokeWidth="0.9625" strokeLinecap="round" stroke-linejoin="round"/>
<path opacity="0.4" d="M51.0837 30C51.0837 18.356 41.6443 8.91663 30.0003 8.91663C18.3563 8.91663 8.91699 18.356 8.91699 30" stroke="white" strokeWidth="0.916667" strokeLinecap="round" stroke-linejoin="round"/>
<path opacity="0.4" d="M44.8891 40.0162C44.3195 39.6873 43.1803 39.0296 43.1803 39.0296C42.9676 38.9068 42.7055 38.9068 42.4928 39.0296C41.8537 39.3986 41.4008 39.66 41.1342 39.814C40.5794 40.1343 40.1266 40.3957 39.7757 40.5983C39.1719 40.9469 38.2662 41.4698 37.0586 42.167" stroke="white" strokeWidth="0.916667" strokeLinecap="round"/>
<path opacity="0.4" d="M48.7916 45.8583V48.7538C48.7916 48.9188 48.703 49.0711 48.5594 49.1525L43.18 52.204C42.9673 52.3268 42.7052 52.3268 42.4925 52.204C41.8534 51.835 41.4005 51.5736 41.1339 51.4197C40.5791 51.0994 40.1263 50.8379 39.7754 50.6353" stroke="#FDB115" strokeWidth="0.916667" strokeLinecap="round" stroke-linejoin="round"/>
<path d="M42.4923 39.0295C41.8532 39.3985 41.4004 39.66 41.1338 39.8139" stroke="white" strokeWidth="0.916667" strokeLinecap="round"/>
<g filter="url(#filter0_d_468_48698)">
<path fill-rule="evenodd" clipRule="evenodd" d="M36.7649 43.3602L36.5665 43.282C36.4452 43.2342 36.3857 43.097 36.4335 42.9757C36.4575 42.9148 36.5057 42.8667 36.5665 42.8427L36.7649 42.7644C36.9937 42.6742 37.1747 42.4932 37.2649 42.2644L37.3432 42.0661C37.391 41.9447 37.5281 41.8852 37.6495 41.933C37.7103 41.957 37.7585 42.0052 37.7825 42.0661L37.8607 42.2644C37.9509 42.4932 38.132 42.6742 38.3607 42.7644L38.5591 42.8427C38.6804 42.8905 38.74 43.0277 38.6921 43.149C38.6681 43.2098 38.62 43.258 38.5591 43.282L38.3607 43.3602C38.132 43.4504 37.9509 43.6315 37.8607 43.8603L37.7825 44.0586C37.7346 44.1799 37.5975 44.2395 37.4762 44.1916C37.4153 44.1676 37.3672 44.1195 37.3432 44.0586L37.2649 43.8603C37.1747 43.6315 36.9937 43.4504 36.7649 43.3602Z" fill="white"/>
</g>
<g filter="url(#filter1_d_468_48698)">
<path fill-rule="evenodd" clipRule="evenodd" d="M42.8335 48.0581L41.039 48.6963C40.7356 48.8042 40.4184 48.5737 40.4273 48.2518L40.4796 46.3479L39.3182 44.8385C39.1218 44.5832 39.243 44.2104 39.5519 44.1193L41.3787 43.5808L42.4554 42.0098C42.6375 41.7441 43.0295 41.7441 43.2116 42.0098L44.2883 43.5808L46.1151 44.1193C46.424 44.2104 46.5452 44.5832 46.3488 44.8385L45.1874 46.3479L45.2397 48.2518C45.2486 48.5737 44.9314 48.8042 44.628 48.6963L42.8335 48.0581Z" fill="black" fill-opacity="0.01"/>
</g>
<g filter="url(#filter2_i_468_48698)">
<path fill-rule="evenodd" clipRule="evenodd" d="M42.8335 48.0581L41.039 48.6963C40.7356 48.8042 40.4184 48.5737 40.4273 48.2518L40.4796 46.3479L39.3182 44.8385C39.1218 44.5832 39.243 44.2104 39.5519 44.1193L41.3787 43.5808L42.4554 42.0098C42.6375 41.7441 43.0295 41.7441 43.2116 42.0098L44.2883 43.5808L46.1151 44.1193C46.424 44.2104 46.5452 44.5832 46.3488 44.8385L45.1874 46.3479L45.2397 48.2518C45.2486 48.5737 44.9314 48.8042 44.628 48.6963L42.8335 48.0581Z" fill="url(#paint8_linear_468_48698)"/>
</g>
<path fill-rule="evenodd" clipRule="evenodd" d="M42.8335 48.0581L41.039 48.6963C40.7356 48.8042 40.4184 48.5737 40.4273 48.2518L40.4796 46.3479L39.3182 44.8385C39.1218 44.5832 39.243 44.2104 39.5519 44.1193L41.3787 43.5808L42.4554 42.0098C42.6375 41.7441 43.0295 41.7441 43.2116 42.0098L44.2883 43.5808L46.1151 44.1193C46.424 44.2104 46.5452 44.5832 46.3488 44.8385L45.1874 46.3479L45.2397 48.2518C45.2486 48.5737 44.9314 48.8042 44.628 48.6963L42.8335 48.0581Z" stroke="white" strokeWidth="0.916667" strokeLinecap="round" stroke-linejoin="round"/>
<path opacity="0.4" d="M42.8338 45.583V42.2688L41.6494 43.9508L42.8338 45.583Z" fill="url(#paint9_linear_468_48698)"/>
<path opacity="0.8" d="M42.8337 45.5832L41.6493 43.9509L39.6816 44.559L42.8337 45.5832Z" fill="url(#paint10_linear_468_48698)"/>
<path opacity="0.5" d="M42.8333 45.583L40.9156 46.2069L40.8853 48.2643L42.8333 45.583Z" fill="url(#paint11_linear_468_48698)"/>
<path opacity="0.4" d="M44.7816 48.2643L44.7512 46.2069L42.8335 45.583L44.7816 48.2643Z" fill="url(#paint12_linear_468_48698)"/>
<path d="M44.7512 46.2069L45.9855 44.5588L42.8335 45.583L44.7512 46.2069Z" fill="#FEBA1B"/>
<path opacity="0.6" d="M45.9855 44.559L44.0179 43.9509L42.8335 45.5832L45.9855 44.559Z" fill="url(#paint13_linear_468_48698)"/>
<g filter="url(#filter3_d_468_48698)">
<path fill-rule="evenodd" clipRule="evenodd" d="M47.8345 42.274L47.5965 42.1801C47.4509 42.1227 47.3794 41.9581 47.4368 41.8125C47.4656 41.7395 47.5234 41.6817 47.5965 41.6529L47.8345 41.559C48.109 41.4508 48.3263 41.2335 48.4345 40.959L48.5284 40.721C48.5858 40.5754 48.7504 40.5039 48.896 40.5613C48.969 40.5901 49.0268 40.6479 49.0556 40.721L49.1495 40.959C49.2577 41.2335 49.475 41.4508 49.7495 41.559L49.9875 41.6529C50.1331 41.7103 50.2046 41.8749 50.1472 42.0205C50.1184 42.0935 50.0605 42.1513 49.9875 42.1801L49.7495 42.274C49.475 42.3822 49.2577 42.5995 49.1495 42.874L49.0556 43.112C48.9982 43.2576 48.8336 43.3291 48.688 43.2717C48.615 43.2429 48.5572 43.1851 48.5284 43.112L48.4345 42.874C48.3263 42.5995 48.109 42.3822 47.8345 42.274Z" fill="white"/>
</g>
<g filter="url(#filter4_d_468_48698)">
<path fill-rule="evenodd" clipRule="evenodd" d="M36.376 50.0656L36.138 49.9717C35.9924 49.9143 35.9209 49.7497 35.9783 49.6042C36.0071 49.5311 36.0649 49.4733 36.138 49.4445L36.376 49.3507C36.6505 49.2424 36.8678 49.0251 36.976 48.7506L37.0699 48.5126C37.1273 48.367 37.2919 48.2956 37.4375 48.353C37.5105 48.3818 37.5683 48.4396 37.5971 48.5126L37.691 48.7506C37.7992 49.0251 38.0165 49.2424 38.291 49.3507L38.529 49.4445C38.6746 49.502 38.7461 49.6665 38.6887 49.8121C38.6599 49.8851 38.6021 49.9429 38.529 49.9717L38.291 50.0656C38.0165 50.1739 37.7992 50.3911 37.691 50.6656L37.5971 50.9037C37.5397 51.0492 37.3751 51.1207 37.2295 51.0633C37.1565 51.0345 37.0987 50.9767 37.0699 50.9037L36.976 50.6656C36.8678 50.3911 36.6505 50.1739 36.376 50.0656Z" fill="white"/>
</g>
<g filter="url(#filter5_d_468_48698)">
<path fill-rule="evenodd" clipRule="evenodd" d="M47.1672 49.1994L47.0482 49.1524C46.9754 49.1237 46.9397 49.0414 46.9684 48.9687C46.9828 48.9321 47.0117 48.9032 47.0482 48.8888L47.1672 48.8419C47.3045 48.7878 47.4131 48.6791 47.4673 48.5419L47.5142 48.4229C47.5429 48.3501 47.6252 48.3143 47.698 48.343C47.7345 48.3574 47.7634 48.3864 47.7778 48.4229L47.8247 48.5419C47.8789 48.6791 47.9875 48.7878 48.1247 48.8419L48.2438 48.8888C48.3166 48.9175 48.3523 48.9998 48.3236 49.0726C48.3092 49.1091 48.2803 49.138 48.2438 49.1524L48.1247 49.1994C47.9875 49.2535 47.8789 49.3621 47.8247 49.4994L47.7778 49.6184C47.7491 49.6912 47.6668 49.7269 47.594 49.6982C47.5575 49.6838 47.5286 49.6549 47.5142 49.6184L47.4673 49.4994C47.4131 49.3621 47.3045 49.2535 47.1672 49.1994Z" fill="white"/>
</g>
<defs>
<filter id="filter0_d_468_48698" x="35.5837" y="41.0832" width="3.95817" height="3.95829" filterUnits="userSpaceOnUse" color-interpolation-filters="sRGB">
<feFlood flood-opacity="0" result="BackgroundImageFix"/>
<feColorMatrix in="SourceAlpha" type="matrix" values="0 0 0 0 0 0 0 0 0 0 0 0 0 0 0 0 0 0 127 0" result="hardAlpha"/>
<feOffset/>
<feGaussianBlur stdDeviation="0.416667"/>
<feColorMatrix type="matrix" values="0 0 0 0 1 0 0 0 0 0.94902 0 0 0 0 0.305882 0 0 0 1 0"/>
<feBlend mode="normal" in2="BackgroundImageFix" result="effect1_dropShadow_468_48698"/>
<feBlend mode="normal" in="SourceGraphic" in2="effect1_dropShadow_468_48698" result="shape"/>
</filter>
<filter id="filter1_d_468_48698" x="38.3893" y="41.8105" width="8.88835" height="8.57926" filterUnits="userSpaceOnUse" color-interpolation-filters="sRGB">
<feFlood flood-opacity="0" result="BackgroundImageFix"/>
<feColorMatrix in="SourceAlpha" type="matrix" values="0 0 0 0 0 0 0 0 0 0 0 0 0 0 0 0 0 0 127 0" result="hardAlpha"/>
<feOffset dy="0.833333"/>
<feGaussianBlur stdDeviation="0.416667"/>
<feColorMatrix type="matrix" values="0 0 0 0 0.996078 0 0 0 0 0.733333 0 0 0 0 0.105882 0 0 0 1 0"/>
<feBlend mode="normal" in2="BackgroundImageFix" result="effect1_dropShadow_468_48698"/>
<feBlend mode="normal" in="SourceGraphic" in2="effect1_dropShadow_468_48698" result="shape"/>
</filter>
<filter id="filter2_i_468_48698" x="38.7642" y="41.3522" width="8.13867" height="8.66305" filterUnits="userSpaceOnUse" color-interpolation-filters="sRGB">
<feFlood flood-opacity="0" result="BackgroundImageFix"/>
<feBlend mode="normal" in="SourceGraphic" in2="BackgroundImageFix" result="shape"/>
<feColorMatrix in="SourceAlpha" type="matrix" values="0 0 0 0 0 0 0 0 0 0 0 0 0 0 0 0 0 0 127 0" result="hardAlpha"/>
<feOffset dy="0.833333"/>
<feGaussianBlur stdDeviation="0.416667"/>
<feComposite in2="hardAlpha" operator="arithmetic" k2="-1" k3="1"/>
<feColorMatrix type="matrix" values="0 0 0 0 0.927748 0 0 0 0 0.568655 0 0 0 0 0 0 0 0 1 0"/>
<feBlend mode="normal" in2="shape" result="effect1_innerShadow_468_48698"/>
</filter>
<filter id="filter3_d_468_48698" x="46.5837" y="39.7082" width="4.41667" height="4.41667" filterUnits="userSpaceOnUse" color-interpolation-filters="sRGB">
<feFlood flood-opacity="0" result="BackgroundImageFix"/>
<feColorMatrix in="SourceAlpha" type="matrix" values="0 0 0 0 0 0 0 0 0 0 0 0 0 0 0 0 0 0 127 0" result="hardAlpha"/>
<feOffset/>
<feGaussianBlur stdDeviation="0.416667"/>
<feColorMatrix type="matrix" values="0 0 0 0 1 0 0 0 0 0.94902 0 0 0 0 0.305882 0 0 0 1 0"/>
<feBlend mode="normal" in2="BackgroundImageFix" result="effect1_dropShadow_468_48698"/>
<feBlend mode="normal" in="SourceGraphic" in2="effect1_dropShadow_468_48698" result="shape"/>
</filter>
<filter id="filter4_d_468_48698" x="35.1252" y="47.4998" width="4.41667" height="4.41667" filterUnits="userSpaceOnUse" color-interpolation-filters="sRGB">
<feFlood flood-opacity="0" result="BackgroundImageFix"/>
<feColorMatrix in="SourceAlpha" type="matrix" values="0 0 0 0 0 0 0 0 0 0 0 0 0 0 0 0 0 0 127 0" result="hardAlpha"/>
<feOffset/>
<feGaussianBlur stdDeviation="0.416667"/>
<feColorMatrix type="matrix" values="0 0 0 0 1 0 0 0 0 0.94902 0 0 0 0 0.305882 0 0 0 1 0"/>
<feBlend mode="normal" in2="BackgroundImageFix" result="effect1_dropShadow_468_48698"/>
<feBlend mode="normal" in="SourceGraphic" in2="effect1_dropShadow_468_48698" result="shape"/>
</filter>
<filter id="filter5_d_468_48698" x="46.1252" y="47.4998" width="3.04167" height="3.04167" filterUnits="userSpaceOnUse" color-interpolation-filters="sRGB">
<feFlood flood-opacity="0" result="BackgroundImageFix"/>
<feColorMatrix in="SourceAlpha" type="matrix" values="0 0 0 0 0 0 0 0 0 0 0 0 0 0 0 0 0 0 127 0" result="hardAlpha"/>
<feOffset/>
<feGaussianBlur stdDeviation="0.416667"/>
<feColorMatrix type="matrix" values="0 0 0 0 1 0 0 0 0 0.94902 0 0 0 0 0.305882 0 0 0 1 0"/>
<feBlend mode="normal" in2="BackgroundImageFix" result="effect1_dropShadow_468_48698"/>
<feBlend mode="normal" in="SourceGraphic" in2="effect1_dropShadow_468_48698" result="shape"/>
</filter>
<linearGradient id="paint0_linear_468_48698" x1="52.4585" y1="14.8751" x2="52.4585" y2="33.2085" gradientUnits="userSpaceOnUse">
<stop stop-color="#F7C71A"/>
<stop offset="1" stop-color="#FBAA00"/>
</linearGradient>
<linearGradient id="paint1_linear_468_48698" x1="52.4585" y1="14.8751" x2="52.4585" y2="33.2085" gradientUnits="userSpaceOnUse">
<stop stop-color="#FFDF6B"/>
<stop offset="1" stop-color="#F8A60A"/>
</linearGradient>
<linearGradient id="paint2_linear_468_48698" x1="7.0835" y1="14.8751" x2="7.0835" y2="33.2085" gradientUnits="userSpaceOnUse">
<stop stop-color="#F7C71A"/>
<stop offset="1" stop-color="#FBAA00"/>
</linearGradient>
<linearGradient id="paint3_linear_468_48698" x1="7.0835" y1="14.8751" x2="7.0835" y2="33.2085" gradientUnits="userSpaceOnUse">
<stop stop-color="#FFDF6B"/>
<stop offset="1" stop-color="#F8A60A"/>
</linearGradient>
<linearGradient id="paint4_linear_468_48698" x1="17.625" y1="7.88501" x2="17.625" y2="24.0417" gradientUnits="userSpaceOnUse">
<stop stop-color="#F7C71A"/>
<stop offset="1" stop-color="#FBAA00"/>
</linearGradient>
<linearGradient id="paint5_linear_468_48698" x1="17.625" y1="7.88501" x2="17.625" y2="24.0417" gradientUnits="userSpaceOnUse">
<stop stop-color="#FFDF6B"/>
<stop offset="1" stop-color="#F8A60A"/>
</linearGradient>
<linearGradient id="paint6_linear_468_48698" x1="8.45801" y1="8.45837" x2="8.45801" y2="52.7749" gradientUnits="userSpaceOnUse">
<stop stop-color="#FFD541"/>
<stop offset="1" stop-color="#FFF550"/>
</linearGradient>
<linearGradient id="paint7_linear_468_48698" x1="34.7062" y1="50.9643" x2="34.6078" y2="42.1122" gradientUnits="userSpaceOnUse">
<stop stop-color="#F8C417"/>
<stop offset="1" stop-color="#FFD937"/>
</linearGradient>
<linearGradient id="paint8_linear_468_48698" x1="38.7085" y1="41.4581" x2="38.7085" y2="49.7081" gradientUnits="userSpaceOnUse">
<stop stop-color="#FCA50E"/>
<stop offset="1" stop-color="#FFC823"/>
</linearGradient>
<linearGradient id="paint9_linear_468_48698" x1="41.6494" y1="41.4402" x2="39.6896" y2="42.841" gradientUnits="userSpaceOnUse">
<stop stop-color="#FFEC36" stop-opacity="0.467505"/>
<stop offset="1" stop-color="#FFF7AB"/>
</linearGradient>
<linearGradient id="paint10_linear_468_48698" x1="39.7016" y1="44.3538" x2="40.1904" y2="46.2418" gradientUnits="userSpaceOnUse">
<stop stop-color="#FFED08" stop-opacity="0.8"/>
<stop offset="1" stop-color="white"/>
</linearGradient>
<linearGradient id="paint11_linear_468_48698" x1="41.8593" y1="48.9346" x2="43.4245" y2="46.6602" gradientUnits="userSpaceOnUse">
<stop stop-color="#FFED08" stop-opacity="0.01"/>
<stop offset="1" stop-color="#FFEF63"/>
</linearGradient>
<linearGradient id="paint12_linear_468_48698" x1="42.8335" y1="44.9127" x2="41.2683" y2="47.1871" gradientUnits="userSpaceOnUse">
<stop stop-color="#FFEC36" stop-opacity="0.467505"/>
<stop offset="1" stop-color="#FFE94A"/>
</linearGradient>
<linearGradient id="paint13_linear_468_48698" x1="42.8335" y1="43.5429" x2="42.3384" y2="45.455" gradientUnits="userSpaceOnUse">
<stop stop-color="#FFEC36" stop-opacity="0.467505"/>
<stop offset="1" stop-color="#FFF7AB"/>
</linearGradient>
</defs>
</svg>
