<svg width="60" height="60" viewBox="0 0 60 60" fill="none" xmlns="http://www.w3.org/2000/svg">
<path fill-rule="evenodd" clipRule="evenodd" d="M29.9997 51.5417C32.7802 51.5417 35.4378 51.0149 37.8779 50.0556L42.3751 52.6521C42.6587 52.8158 43.0081 52.8158 43.2917 52.6521L48.7259 49.5146C49.0096 49.3509 49.1843 49.0483 49.1843 48.7208V42.4459C49.1843 42.1184 49.0096 41.8158 48.7259 41.6521L48.2833 41.3965C50.3481 38.0908 51.5413 34.1848 51.5413 30C51.5413 18.1029 41.8968 8.45837 29.9997 8.45837C18.1025 8.45837 8.45801 18.1029 8.45801 30C8.45801 41.8972 18.1025 51.5417 29.9997 51.5417ZM36.4826 47.1545C34.4672 47.9164 32.2824 48.3334 30.0002 48.3334C19.875 48.3334 11.6669 40.1253 11.6669 30.0001C11.6669 19.8749 19.875 11.6668 30.0002 11.6668C40.1255 11.6668 48.3336 19.8749 48.3336 30.0001C48.3336 33.6005 47.2957 36.9585 45.5029 39.7912L43.2917 38.5146C43.0081 38.3509 42.6587 38.3509 42.3751 38.5146L36.9409 41.6521C36.6573 41.8158 36.4826 42.1184 36.4826 42.4459V47.1545Z" fill="url(#paint0_linear_468_48708)"/>
<mask id="mask0_468_48708" style="mask-type:luminance" maskUnits="userSpaceOnUse" x="8" y="8" width="44" height="45">
<path fill-rule="evenodd" clipRule="evenodd" d="M29.9997 51.5417C32.7802 51.5417 35.4378 51.0149 37.8779 50.0556L42.3751 52.6521C42.6587 52.8158 43.0081 52.8158 43.2917 52.6521L48.7259 49.5146C49.0096 49.3509 49.1843 49.0483 49.1843 48.7208V42.4459C49.1843 42.1184 49.0096 41.8158 48.7259 41.6521L48.2833 41.3965C50.3481 38.0908 51.5413 34.1848 51.5413 30C51.5413 18.1029 41.8968 8.45837 29.9997 8.45837C18.1025 8.45837 8.45801 18.1029 8.45801 30C8.45801 41.8972 18.1025 51.5417 29.9997 51.5417ZM36.4826 47.1545C34.4672 47.9164 32.2824 48.3334 30.0002 48.3334C19.875 48.3334 11.6669 40.1253 11.6669 30.0001C11.6669 19.8749 19.875 11.6668 30.0002 11.6668C40.1255 11.6668 48.3336 19.8749 48.3336 30.0001C48.3336 33.6005 47.2957 36.9585 45.5029 39.7912L43.2917 38.5146C43.0081 38.3509 42.6587 38.3509 42.3751 38.5146L36.9409 41.6521C36.6573 41.8158 36.4826 42.1184 36.4826 42.4459V47.1545Z" fill="white"/>
</mask>
<g mask="url(#mask0_468_48708)">
<g style="mix-blend-mode:multiply" opacity="0.3">
<path fill-rule="evenodd" clipRule="evenodd" d="M30 29.9999L29.9999 29.9999L29.9999 30L29.9999 30L30 30L29.9998 30.0001L17.0362 52.3917L7.60812 42.9636L29.9995 30.0001L5 36.6667V23.3333L29.9998 29.9999L7.60819 17.0364L17.0363 7.60828L29.9999 29.9999L29.9999 29.9998L23.3333 5H36.6667L30.0002 29.9994L42.9635 7.60824L52.3915 17.0363L30 29.9998L30 30L30 29.9999ZM30 30L55 36.6667V23.3333L30 30ZM30 30L36.6667 55H23.3333L30 30Z" fill="#FFD640"/>
</g>
</g>
<path opacity="0.2" d="M12.1699 35.9505C14.659 43.4124 21.7013 48.7917 30 48.7917C31.1153 48.7917 32.208 48.6946 33.27 48.5082" stroke="#EDAA2F" strokeWidth="0.916667" strokeLinecap="round" stroke-linejoin="round"/>
<path opacity="0.6" d="M20.3569 46.1322C23.1761 47.821 26.4747 48.7917 30 48.7917" stroke="white" strokeWidth="0.916667" strokeLinecap="round" stroke-linejoin="round"/>
<path d="M13.3022 42.7295C17.1724 47.81 23.2478 51.0833 30.0792 51.0833C31.2552 51.0833 32.4088 50.9863 33.5326 50.7998" stroke="url(#paint1_linear_468_48708)" strokeWidth="0.916667" strokeLinecap="round" stroke-linejoin="round"/>
<path opacity="0.4" d="M51.0832 30C51.0832 18.356 41.6438 8.91663 29.9998 8.91663C18.3558 8.91663 8.9165 18.356 8.9165 30" stroke="white" strokeWidth="0.916667" strokeLinecap="round" stroke-linejoin="round"/>
<path opacity="0.2" d="M12.769 22.4903C15.6672 15.8497 22.2916 11.2083 30.0002 11.2083C37.7087 11.2083 44.3332 15.8497 47.2313 22.4903" stroke="#DA731B" strokeWidth="0.916667" strokeLinecap="round" stroke-linejoin="round"/>
<path opacity="0.2" d="M20.3569 13.8678C23.1761 12.179 26.4747 11.2083 30 11.2083C33.5253 11.2083 36.8239 12.179 39.643 13.8678" stroke="#DA731B" strokeWidth="0.916667" strokeLinecap="round" stroke-linejoin="round"/>
<path opacity="0.4" d="M44.8151 39.9738C44.27 39.659 43.1798 39.0296 43.1798 39.0296C42.9671 38.9068 42.705 38.9068 42.4923 39.0296C41.8532 39.3986 41.4003 39.66 41.1337 39.814C40.5789 40.1343 40.1261 40.3957 39.7752 40.5983C39.1714 40.9469 38.2657 41.4698 37.0581 42.167" stroke="white" strokeWidth="0.916667" strokeLinecap="round"/>
<path opacity="0.4" d="M48.7916 45.8583V48.7538C48.7916 48.9188 48.703 49.0711 48.5594 49.1525L43.18 52.204C42.9673 52.3268 42.7052 52.3268 42.4925 52.204C41.8534 51.835 41.4005 51.5736 41.1339 51.4197C40.5791 51.0994 40.1263 50.8379 39.7754 50.6353" stroke="#FDB115" strokeWidth="0.916667" strokeLinecap="round" stroke-linejoin="round"/>
<path d="M42.4923 39.0295C41.8532 39.3985 41.4004 39.66 41.1338 39.8139" stroke="white" strokeWidth="0.916667" strokeLinecap="round"/>
<g filter="url(#filter0_d_468_48708)">
<path fill-rule="evenodd" clipRule="evenodd" d="M36.7649 43.3604L36.5665 43.2821C36.4452 43.2343 36.3857 43.0971 36.4335 42.9758C36.4575 42.915 36.5057 42.8668 36.5665 42.8428L36.7649 42.7646C36.9937 42.6744 37.1747 42.4933 37.2649 42.2645L37.3432 42.0662C37.391 41.9449 37.5281 41.8853 37.6495 41.9332C37.7103 41.9572 37.7585 42.0053 37.7825 42.0662L37.8607 42.2645C37.9509 42.4933 38.132 42.6744 38.3607 42.7646L38.5591 42.8428C38.6804 42.8906 38.74 43.0278 38.6921 43.1491C38.6681 43.2099 38.62 43.2581 38.5591 43.2821L38.3607 43.3604C38.132 43.4506 37.9509 43.6316 37.8607 43.8604L37.7825 44.0587C37.7346 44.1801 37.5975 44.2396 37.4762 44.1918C37.4153 44.1678 37.3672 44.1196 37.3432 44.0587L37.2649 43.8604C37.1747 43.6316 36.9937 43.4506 36.7649 43.3604Z" fill="white"/>
</g>
<g filter="url(#filter1_d_468_48708)">
<path fill-rule="evenodd" clipRule="evenodd" d="M47.8345 42.274L47.5965 42.1801C47.4509 42.1227 47.3794 41.9581 47.4368 41.8125C47.4656 41.7395 47.5234 41.6817 47.5965 41.6529L47.8345 41.559C48.109 41.4508 48.3263 41.2335 48.4345 40.959L48.5284 40.721C48.5858 40.5754 48.7504 40.5039 48.896 40.5613C48.969 40.5901 49.0268 40.6479 49.0556 40.721L49.1495 40.959C49.2577 41.2335 49.475 41.4508 49.7495 41.559L49.9875 41.6529C50.1331 41.7103 50.2046 41.8749 50.1472 42.0205C50.1184 42.0935 50.0605 42.1513 49.9875 42.1801L49.7495 42.274C49.475 42.3822 49.2577 42.5995 49.1495 42.874L49.0556 43.112C48.9982 43.2576 48.8336 43.3291 48.688 43.2717C48.615 43.2429 48.5572 43.1851 48.5284 43.112L48.4345 42.874C48.3263 42.5995 48.109 42.3822 47.8345 42.274Z" fill="white"/>
</g>
<path fill-rule="evenodd" clipRule="evenodd" d="M42.8335 48.0583L41.039 48.6964C40.7356 48.8043 40.4184 48.5738 40.4273 48.2519L40.4796 46.3481L39.3182 44.8386C39.1218 44.5834 39.243 44.2105 39.5519 44.1195L41.3787 43.5809L42.4554 42.0099C42.6375 41.7443 43.0295 41.7443 43.2116 42.0099L44.2883 43.5809L46.1151 44.1195C46.424 44.2105 46.5452 44.5834 46.3488 44.8386L45.1874 46.3481L45.2397 48.2519C45.2486 48.5738 44.9314 48.8043 44.628 48.6964L42.8335 48.0583Z" fill="url(#paint2_linear_468_48708)" stroke="white" strokeWidth="0.916667" strokeLinecap="round" stroke-linejoin="round"/>
<g filter="url(#filter2_d_468_48708)">
<path fill-rule="evenodd" clipRule="evenodd" d="M36.376 50.0657L36.138 49.9718C35.9924 49.9144 35.9209 49.7499 35.9783 49.6043C36.0071 49.5313 36.0649 49.4735 36.138 49.4447L36.376 49.3508C36.6505 49.2425 36.8678 49.0252 36.976 48.7507L37.0699 48.5127C37.1273 48.3671 37.2919 48.2957 37.4375 48.3531C37.5105 48.3819 37.5683 48.4397 37.5971 48.5127L37.691 48.7507C37.7992 49.0252 38.0165 49.2425 38.291 49.3508L38.529 49.4447C38.6746 49.5021 38.7461 49.6666 38.6887 49.8122C38.6599 49.8852 38.6021 49.943 38.529 49.9718L38.291 50.0657C38.0165 50.174 37.7992 50.3913 37.691 50.6658L37.5971 50.9038C37.5397 51.0494 37.3751 51.1208 37.2295 51.0634C37.1565 51.0346 37.0987 50.9768 37.0699 50.9038L36.976 50.6658C36.8678 50.3913 36.6505 50.174 36.376 50.0657Z" fill="white"/>
</g>
<g filter="url(#filter3_d_468_48708)">
<path fill-rule="evenodd" clipRule="evenodd" d="M47.1672 49.1995L47.0482 49.1525C46.9754 49.1238 46.9397 49.0416 46.9684 48.9688C46.9828 48.9323 47.0117 48.9034 47.0482 48.889L47.1672 48.842C47.3045 48.7879 47.4131 48.6792 47.4673 48.542L47.5142 48.423C47.5429 48.3502 47.6252 48.3145 47.698 48.3432C47.7345 48.3576 47.7634 48.3865 47.7778 48.423L47.8247 48.542C47.8789 48.6792 47.9875 48.7879 48.1247 48.842L48.2438 48.889C48.3166 48.9177 48.3523 48.9999 48.3236 49.0727C48.3092 49.1092 48.2803 49.1381 48.2438 49.1525L48.1247 49.1995C47.9875 49.2536 47.8789 49.3623 47.8247 49.4995L47.7778 49.6185C47.7491 49.6913 47.6668 49.727 47.594 49.6983C47.5575 49.6839 47.5286 49.655 47.5142 49.6185L47.4673 49.4995C47.4131 49.3623 47.3045 49.2536 47.1672 49.1995Z" fill="white"/>
</g>
<defs>
<filter id="filter0_d_468_48708" x="35.5837" y="41.0833" width="3.95817" height="3.95829" filterUnits="userSpaceOnUse" color-interpolation-filters="sRGB">
<feFlood flood-opacity="0" result="BackgroundImageFix"/>
<feColorMatrix in="SourceAlpha" type="matrix" values="0 0 0 0 0 0 0 0 0 0 0 0 0 0 0 0 0 0 127 0" result="hardAlpha"/>
<feOffset/>
<feGaussianBlur stdDeviation="0.416667"/>
<feColorMatrix type="matrix" values="0 0 0 0 1 0 0 0 0 0.94902 0 0 0 0 0.305882 0 0 0 1 0"/>
<feBlend mode="normal" in2="BackgroundImageFix" result="effect1_dropShadow_468_48708"/>
<feBlend mode="normal" in="SourceGraphic" in2="effect1_dropShadow_468_48708" result="shape"/>
</filter>
<filter id="filter1_d_468_48708" x="46.5837" y="39.7082" width="4.41667" height="4.41667" filterUnits="userSpaceOnUse" color-interpolation-filters="sRGB">
<feFlood flood-opacity="0" result="BackgroundImageFix"/>
<feColorMatrix in="SourceAlpha" type="matrix" values="0 0 0 0 0 0 0 0 0 0 0 0 0 0 0 0 0 0 127 0" result="hardAlpha"/>
<feOffset/>
<feGaussianBlur stdDeviation="0.416667"/>
<feColorMatrix type="matrix" values="0 0 0 0 1 0 0 0 0 0.94902 0 0 0 0 0.305882 0 0 0 1 0"/>
<feBlend mode="normal" in2="BackgroundImageFix" result="effect1_dropShadow_468_48708"/>
<feBlend mode="normal" in="SourceGraphic" in2="effect1_dropShadow_468_48708" result="shape"/>
</filter>
<filter id="filter2_d_468_48708" x="35.1252" y="47.4999" width="4.41667" height="4.41667" filterUnits="userSpaceOnUse" color-interpolation-filters="sRGB">
<feFlood flood-opacity="0" result="BackgroundImageFix"/>
<feColorMatrix in="SourceAlpha" type="matrix" values="0 0 0 0 0 0 0 0 0 0 0 0 0 0 0 0 0 0 127 0" result="hardAlpha"/>
<feOffset/>
<feGaussianBlur stdDeviation="0.416667"/>
<feColorMatrix type="matrix" values="0 0 0 0 1 0 0 0 0 0.94902 0 0 0 0 0.305882 0 0 0 1 0"/>
<feBlend mode="normal" in2="BackgroundImageFix" result="effect1_dropShadow_468_48708"/>
<feBlend mode="normal" in="SourceGraphic" in2="effect1_dropShadow_468_48708" result="shape"/>
</filter>
<filter id="filter3_d_468_48708" x="46.1252" y="47.4999" width="3.04167" height="3.04167" filterUnits="userSpaceOnUse" color-interpolation-filters="sRGB">
<feFlood flood-opacity="0" result="BackgroundImageFix"/>
<feColorMatrix in="SourceAlpha" type="matrix" values="0 0 0 0 0 0 0 0 0 0 0 0 0 0 0 0 0 0 127 0" result="hardAlpha"/>
<feOffset/>
<feGaussianBlur stdDeviation="0.416667"/>
<feColorMatrix type="matrix" values="0 0 0 0 1 0 0 0 0 0.94902 0 0 0 0 0.305882 0 0 0 1 0"/>
<feBlend mode="normal" in2="BackgroundImageFix" result="effect1_dropShadow_468_48708"/>
<feBlend mode="normal" in="SourceGraphic" in2="effect1_dropShadow_468_48708" result="shape"/>
</filter>
<linearGradient id="paint0_linear_468_48708" x1="8.45801" y1="8.45837" x2="8.45801" y2="52.7749" gradientUnits="userSpaceOnUse">
<stop stop-color="#F9B800"/>
<stop offset="1" stop-color="#FDE046"/>
</linearGradient>
<linearGradient id="paint1_linear_468_48708" x1="34.7062" y1="50.9643" x2="34.6078" y2="42.1122" gradientUnits="userSpaceOnUse">
<stop stop-color="#F8C417"/>
<stop offset="1" stop-color="#FFD937"/>
</linearGradient>
<linearGradient id="paint2_linear_468_48708" x1="38.7085" y1="41.4583" x2="38.7085" y2="49.7083" gradientUnits="userSpaceOnUse">
<stop stop-color="#FCA50E"/>
<stop offset="1" stop-color="#FFC823"/>
</linearGradient>
</defs>
</svg>
