<svg width="24" height="25" viewBox="0 0 24 25" fill="none" xmlns="http://www.w3.org/2000/svg">
<g filter="url(#filter0_d_468_48710)">
<path fill-rule="evenodd" clipRule="evenodd" d="M9.3335 12H14.6668V22.7788C14.6668 23.0302 14.3991 23.1911 14.1771 23.0732L12.0002 21.9167L9.82321 23.0732C9.6012 23.1911 9.3335 23.0302 9.3335 22.7788V12Z" fill="#7F45F6"/>
</g>
<mask id="mask0_468_48710" style="mask-type:luminance" maskUnits="userSpaceOnUse" x="9" y="12" width="6" height="12">
<path fill-rule="evenodd" clipRule="evenodd" d="M9.3335 12H14.6668V22.7788C14.6668 23.0302 14.3991 23.1911 14.1771 23.0732L12.0002 21.9167L9.82321 23.0732C9.6012 23.1911 9.3335 23.0302 9.3335 22.7788V12Z" fill="white"/>
</mask>
<g mask="url(#mask0_468_48710)">
<path fill-rule="evenodd" clipRule="evenodd" d="M10.6665 17.3334H13.3332V23.3334H10.6665V17.3334Z" fill="white"/>
</g>
<path style="mix-blend-mode:multiply" opacity="0.2" fill-rule="evenodd" clipRule="evenodd" d="M11.2161 5.56946C11.6834 5.22994 12.3162 5.22994 12.7835 5.56946L18.5075 9.7282C18.9748 10.0677 19.1704 10.6695 18.9919 11.2189L16.8055 17.9479C16.627 18.4972 16.1151 18.8692 15.5374 18.8692H8.46218C7.88455 18.8692 7.37261 18.4972 7.19411 17.9479L5.00773 11.2189C4.82923 10.6695 5.02478 10.0677 5.49209 9.7282L11.2161 5.56946Z" fill="#0298F3"/>
<path fill-rule="evenodd" clipRule="evenodd" d="M11.2164 4.90278C11.6838 4.56325 12.3166 4.56325 12.7839 4.90278L18.5079 9.06151C18.9752 9.40103 19.1707 10.0029 18.9922 10.5522L16.8059 17.2812C16.6274 17.8306 16.1154 18.2025 15.5378 18.2025H8.46253C7.8849 18.2025 7.37296 17.8306 7.19446 17.2812L5.00808 10.5522C4.82958 10.0029 5.02513 9.40104 5.49244 9.06151L11.2164 4.90278Z" fill="url(#paint0_linear_468_48710)" stroke="#FEFFFF" stroke-opacity="0.2" strokeWidth="0.333333"/>
<mask id="mask1_468_48710" style="mask-type:luminance" maskUnits="userSpaceOnUse" x="4" y="4" width="16" height="15">
<path fill-rule="evenodd" clipRule="evenodd" d="M11.2164 4.90278C11.6838 4.56325 12.3166 4.56325 12.7839 4.90278L18.5079 9.06151C18.9752 9.40103 19.1707 10.0029 18.9922 10.5522L16.8059 17.2812C16.6274 17.8306 16.1154 18.2025 15.5378 18.2025H8.46253C7.8849 18.2025 7.37296 17.8306 7.19446 17.2812L5.00808 10.5522C4.82958 10.0029 5.02513 9.40104 5.49244 9.06151L11.2164 4.90278Z" fill="white" stroke="white" strokeWidth="0.333333"/>
</mask>
<g mask="url(#mask1_468_48710)">
<path d="M12.6859 5.03763C12.277 4.74055 11.7233 4.74055 11.3144 5.03763L5.59037 9.19637C5.18147 9.49345 5.01037 10.02 5.16656 10.5007L7.35293 17.2297C7.50912 17.7104 7.95707 18.0359 8.4625 18.0359H15.5378C16.0432 18.0359 16.4911 17.7104 16.6473 17.2297L18.8337 10.5007C18.9899 10.02 18.8188 9.49345 18.4099 9.19637L12.6859 5.03763Z" stroke="#94B4BD" strokeWidth="0.333333" strokeLinecap="round"/>
<path d="M16.647 17.2297L18.8333 10.5007" stroke="#B1CDD0" strokeWidth="0.333333" strokeLinecap="round"/>
<path d="M5.1665 10.5007L7.35288 17.2297" stroke="#B1CDD0" strokeWidth="0.333333" strokeLinecap="round"/>
<path d="M18.8337 10.5007C18.9899 10.02 18.8188 9.49345 18.4099 9.19637L12.6859 5.03763C12.277 4.74055 11.7233 4.74055 11.3144 5.03763L5.59037 9.19637C5.18147 9.49345 5.01037 10.02 5.16656 10.5007" stroke="#C3E6E7" strokeWidth="0.333333" strokeLinecap="round"/>
<path opacity="0.4" d="M12.6858 5.03763C12.2769 4.74055 11.7232 4.74055 11.3143 5.03763L5.59033 9.19637" stroke="#E5FEFF" strokeWidth="0.333333" strokeLinecap="round"/>
<path d="M11.3143 5.0376L9.8833 6.07728" stroke="white" strokeWidth="0.333333" strokeLinecap="round"/>
</g>
<g filter="url(#filter1_d_468_48710)">
<path fill-rule="evenodd" clipRule="evenodd" d="M11.608 6.95133C11.8416 6.78156 12.158 6.78156 12.3917 6.95133L16.6803 10.0672C16.9139 10.2369 17.0117 10.5378 16.9225 10.8125L15.2844 15.8541C15.1951 16.1287 14.9391 16.3147 14.6503 16.3147H9.34934C9.06053 16.3147 8.80456 16.1287 8.71531 15.8541L7.07721 10.8125C6.98796 10.5378 7.08573 10.2369 7.31939 10.0672L11.608 6.95133Z" fill="url(#paint1_linear_468_48710)"/>
<path d="M16.7782 9.93233L12.4897 6.81649C12.1976 6.60429 11.8021 6.60429 11.51 6.81649L7.22143 9.93233C6.92936 10.1445 6.80714 10.5207 6.9187 10.864L8.5568 15.9056C8.66836 16.2489 8.98832 16.4814 9.34934 16.4814H14.6503C15.0114 16.4814 15.3313 16.2489 15.4429 15.9056L17.081 10.864C17.1925 10.5207 17.0703 10.1445 16.7782 9.93233Z" stroke="#94A0A4" stroke-opacity="0.06" strokeWidth="0.333333"/>
</g>
<mask id="mask2_468_48710" style="mask-type:luminance" maskUnits="userSpaceOnUse" x="7" y="6" width="10" height="11">
<path fill-rule="evenodd" clipRule="evenodd" d="M11.608 6.95133C11.8416 6.78156 12.158 6.78156 12.3917 6.95133L16.6803 10.0672C16.9139 10.2369 17.0117 10.5378 16.9225 10.8125L15.2844 15.8541C15.1951 16.1287 14.9391 16.3147 14.6503 16.3147H9.34934C9.06053 16.3147 8.80456 16.1287 8.71531 15.8541L7.07721 10.8125C6.98796 10.5378 7.08573 10.2369 7.31939 10.0672L11.608 6.95133Z" fill="white"/>
</mask>
<g mask="url(#mask2_468_48710)">
<g style="mix-blend-mode:multiply" opacity="0.2">
<path fill-rule="evenodd" clipRule="evenodd" d="M11.9998 12L6.6665 13.3333V10.6666L11.9998 12ZM11.9998 12L13.3332 6.66663H10.6665L11.9998 12ZM11.9998 12L17.3332 10.6666V13.3333L11.9998 12ZM11.9998 12L14.8283 7.28591L16.7139 9.17153L11.9998 12ZM11.9998 12L14.8283 16.714L16.7139 14.8284L11.9998 12ZM11.9998 12L10.6665 17.3333H13.3332L11.9998 12ZM11.9998 12L9.17141 16.714L7.28579 14.8284L11.9998 12Z" fill="url(#paint2_linear_468_48710)"/>
<path d="M9.17141 7.28591L7.28579 9.17153L11.9998 12L9.17141 7.28591Z" fill="url(#paint3_linear_468_48710)"/>
</g>
<path d="M11.1699 7.47571C10.9385 7.64384 10.7598 7.77368 10.6338 7.86521" stroke="white" strokeWidth="0.333333" strokeLinecap="round"/>
</g>
<g filter="url(#filter2_d_468_48710)">
<path d="M11.1498 10.8299L11.9999 9.5896L12.85 10.8299L14.2923 11.2551L13.3753 12.4469L13.4167 13.95L11.9999 13.4462L10.5831 13.95L10.6245 12.4469L9.70752 11.2551L11.1498 10.8299Z" fill="white"/>
<path d="M12.2749 9.40116C12.2127 9.31047 12.1099 9.25627 11.9999 9.25627C11.89 9.25627 11.7871 9.31047 11.725 9.40116L10.9419 10.5437L9.61327 10.9354C9.50782 10.9665 9.42447 11.0476 9.3905 11.1521C9.35653 11.2567 9.37629 11.3713 9.44334 11.4584L10.288 12.5562L10.2499 13.9408C10.2469 14.0507 10.2983 14.155 10.3872 14.2197C10.4761 14.2843 10.5912 14.3009 10.6948 14.2641L11.9999 13.8L13.305 14.2641C13.4086 14.3009 13.5237 14.2843 13.6126 14.2197C13.7016 14.155 13.7529 14.0507 13.7499 13.9408L13.7118 12.5562L14.5565 11.4584C14.6235 11.3713 14.6433 11.2567 14.6093 11.1521C14.5754 11.0476 14.492 10.9665 14.3866 10.9354L13.0579 10.5437L12.2749 9.40116Z" stroke="white" strokeWidth="0.666667" stroke-linejoin="round"/>
</g>
<g filter="url(#filter3_i_468_48710)">
<path d="M11.1498 10.8299L11.9999 9.5896L12.85 10.8299L14.2923 11.2551L13.3753 12.4469L13.4167 13.95L11.9999 13.4462L10.5831 13.95L10.6245 12.4469L9.70752 11.2551L11.1498 10.8299Z" fill="url(#paint4_linear_468_48710)"/>
</g>
<g filter="url(#filter4_d_468_48710)">
<path fill-rule="evenodd" clipRule="evenodd" d="M10.2024 16.5066L10.087 16.4611C10.0164 16.4333 9.98178 16.3535 10.0096 16.2829C10.0236 16.2475 10.0516 16.2195 10.087 16.2055L10.2024 16.16C10.3355 16.1075 10.4409 16.0021 10.4933 15.869L10.5389 15.7536C10.5667 15.6831 10.6465 15.6484 10.7171 15.6762C10.7525 15.6902 10.7805 15.7182 10.7945 15.7536L10.84 15.869C10.8925 16.0021 10.9978 16.1075 11.1309 16.16L11.2463 16.2055C11.3169 16.2333 11.3516 16.3131 11.3237 16.3837C11.3098 16.4191 11.2817 16.4471 11.2463 16.4611L11.1309 16.5066C10.9978 16.5591 10.8925 16.6644 10.84 16.7975L10.7945 16.9129C10.7666 16.9835 10.6868 17.0182 10.6163 16.9903C10.5809 16.9764 10.5528 16.9484 10.5389 16.9129L10.4933 16.7975C10.4409 16.6644 10.3355 16.5591 10.2024 16.5066Z" fill="white"/>
</g>
<g filter="url(#filter5_d_468_48710)">
<path fill-rule="evenodd" clipRule="evenodd" d="M15.9195 10.7166L15.7753 10.6597C15.687 10.6249 15.6437 10.5252 15.6785 10.437C15.696 10.3927 15.731 10.3577 15.7753 10.3402L15.9195 10.2833C16.0859 10.2177 16.2176 10.086 16.2832 9.91965L16.3401 9.77539C16.3749 9.68717 16.4746 9.64385 16.5628 9.67865C16.6071 9.6961 16.6421 9.73114 16.6596 9.77539L16.7165 9.91965C16.7821 10.086 16.9138 10.2177 17.0801 10.2833L17.2244 10.3402C17.3126 10.375 17.3559 10.4747 17.3211 10.563C17.3037 10.6072 17.2687 10.6423 17.2244 10.6597L17.0801 10.7166C16.9138 10.7822 16.7821 10.9139 16.7165 11.0803L16.6596 11.2245C16.6248 11.3128 16.5251 11.3561 16.4368 11.3213C16.3926 11.3038 16.3575 11.2688 16.3401 11.2245L16.2832 11.0803C16.2176 10.9139 16.0859 10.7822 15.9195 10.7166Z" fill="white"/>
</g>
<g filter="url(#filter6_d_468_48710)">
<path fill-rule="evenodd" clipRule="evenodd" d="M7.81832 12.2966L7.73177 12.2625C7.67883 12.2416 7.65284 12.1818 7.67372 12.1288C7.68419 12.1023 7.70521 12.0812 7.73177 12.0708L7.81832 12.0366C7.91814 11.9973 7.99715 11.9183 8.03652 11.8184L8.07065 11.7319C8.09153 11.6789 8.15137 11.653 8.20431 11.6738C8.23086 11.6843 8.25188 11.7053 8.26236 11.7319L8.29649 11.8184C8.33586 11.9183 8.41487 11.9973 8.51469 12.0366L8.60124 12.0708C8.65418 12.0917 8.68017 12.1515 8.65929 12.2044C8.64882 12.231 8.6278 12.252 8.60124 12.2625L8.51469 12.2966C8.41487 12.336 8.33586 12.415 8.29649 12.5148L8.26236 12.6014C8.24148 12.6543 8.18164 12.6803 8.1287 12.6594C8.10215 12.6489 8.08113 12.6279 8.07065 12.6014L8.03652 12.5148C7.99715 12.415 7.91814 12.336 7.81832 12.2966Z" fill="white"/>
</g>
<defs>
<filter id="filter0_d_468_48710" x="8.66683" y="12" width="6.66683" height="12.4459" filterUnits="userSpaceOnUse" color-interpolation-filters="sRGB">
<feFlood flood-opacity="0" result="BackgroundImageFix"/>
<feColorMatrix in="SourceAlpha" type="matrix" values="0 0 0 0 0 0 0 0 0 0 0 0 0 0 0 0 0 0 127 0" result="hardAlpha"/>
<feOffset dy="0.666667"/>
<feGaussianBlur stdDeviation="0.333333"/>
<feColorMatrix type="matrix" values="0 0 0 0 0.333333 0 0 0 0 0.790431 0 0 0 0 0.819608 0 0 0 0.2 0"/>
<feBlend mode="normal" in2="BackgroundImageFix" result="effect1_dropShadow_468_48710"/>
<feBlend mode="normal" in="SourceGraphic" in2="effect1_dropShadow_468_48710" result="shape"/>
</filter>
<filter id="filter1_d_468_48710" x="6.04427" y="6.15739" width="11.911" height="11.4907" filterUnits="userSpaceOnUse" color-interpolation-filters="sRGB">
<feFlood flood-opacity="0" result="BackgroundImageFix"/>
<feColorMatrix in="SourceAlpha" type="matrix" values="0 0 0 0 0 0 0 0 0 0 0 0 0 0 0 0 0 0 127 0" result="hardAlpha"/>
<feOffset dy="0.333333"/>
<feGaussianBlur stdDeviation="0.333333"/>
<feColorMatrix type="matrix" values="0 0 0 0 0.0196078 0 0 0 0 0.443137 0 0 0 0 0.643137 0 0 0 0.12 0"/>
<feBlend mode="normal" in2="BackgroundImageFix" result="effect1_dropShadow_468_48710"/>
<feBlend mode="normal" in="SourceGraphic" in2="effect1_dropShadow_468_48710" result="shape"/>
</filter>
<filter id="filter2_d_468_48710" x="8.37435" y="8.58964" width="7.2513" height="7.02706" filterUnits="userSpaceOnUse" color-interpolation-filters="sRGB">
<feFlood flood-opacity="0" result="BackgroundImageFix"/>
<feColorMatrix in="SourceAlpha" type="matrix" values="0 0 0 0 0 0 0 0 0 0 0 0 0 0 0 0 0 0 127 0" result="hardAlpha"/>
<feOffset dy="0.333333"/>
<feGaussianBlur stdDeviation="0.333333"/>
<feColorMatrix type="matrix" values="0 0 0 0 0.596078 0 0 0 0 0.745098 0 0 0 0 0.780392 0 0 0 0.5 0"/>
<feBlend mode="normal" in2="BackgroundImageFix" result="effect1_dropShadow_468_48710"/>
<feBlend mode="normal" in="SourceGraphic" in2="effect1_dropShadow_468_48710" result="shape"/>
</filter>
<filter id="filter3_i_468_48710" x="9.70752" y="9.5896" width="4.58496" height="4.69368" filterUnits="userSpaceOnUse" color-interpolation-filters="sRGB">
<feFlood flood-opacity="0" result="BackgroundImageFix"/>
<feBlend mode="normal" in="SourceGraphic" in2="BackgroundImageFix" result="shape"/>
<feColorMatrix in="SourceAlpha" type="matrix" values="0 0 0 0 0 0 0 0 0 0 0 0 0 0 0 0 0 0 127 0" result="hardAlpha"/>
<feOffset dy="0.333333"/>
<feGaussianBlur stdDeviation="0.166667"/>
<feComposite in2="hardAlpha" operator="arithmetic" k2="-1" k3="1"/>
<feColorMatrix type="matrix" values="0 0 0 0 0.508286 0 0 0 0 0.694443 0 0 0 0 0.72829 0 0 0 0.4 0"/>
<feBlend mode="normal" in2="shape" result="effect1_innerShadow_468_48710"/>
</filter>
<filter id="filter4_d_468_48710" x="9.33333" y="15" width="2.66683" height="2.66671" filterUnits="userSpaceOnUse" color-interpolation-filters="sRGB">
<feFlood flood-opacity="0" result="BackgroundImageFix"/>
<feColorMatrix in="SourceAlpha" type="matrix" values="0 0 0 0 0 0 0 0 0 0 0 0 0 0 0 0 0 0 127 0" result="hardAlpha"/>
<feOffset/>
<feGaussianBlur stdDeviation="0.333333"/>
<feColorMatrix type="matrix" values="0 0 0 0 0.705882 0 0 0 0 0.823529 0 0 0 0 0.831373 0 0 0 1 0"/>
<feBlend mode="normal" in2="BackgroundImageFix" result="effect1_dropShadow_468_48710"/>
<feBlend mode="normal" in="SourceGraphic" in2="effect1_dropShadow_468_48710" result="shape"/>
</filter>
<filter id="filter5_d_468_48710" x="14.9998" y="8.99996" width="2.99984" height="2.99996" filterUnits="userSpaceOnUse" color-interpolation-filters="sRGB">
<feFlood flood-opacity="0" result="BackgroundImageFix"/>
<feColorMatrix in="SourceAlpha" type="matrix" values="0 0 0 0 0 0 0 0 0 0 0 0 0 0 0 0 0 0 127 0" result="hardAlpha"/>
<feOffset/>
<feGaussianBlur stdDeviation="0.333333"/>
<feColorMatrix type="matrix" values="0 0 0 0 0.705882 0 0 0 0 0.823529 0 0 0 0 0.831373 0 0 0 1 0"/>
<feBlend mode="normal" in2="BackgroundImageFix" result="effect1_dropShadow_468_48710"/>
<feBlend mode="normal" in="SourceGraphic" in2="effect1_dropShadow_468_48710" result="shape"/>
</filter>
<filter id="filter6_d_468_48710" x="6.99984" y="11" width="2.33333" height="2.33333" filterUnits="userSpaceOnUse" color-interpolation-filters="sRGB">
<feFlood flood-opacity="0" result="BackgroundImageFix"/>
<feColorMatrix in="SourceAlpha" type="matrix" values="0 0 0 0 0 0 0 0 0 0 0 0 0 0 0 0 0 0 127 0" result="hardAlpha"/>
<feOffset/>
<feGaussianBlur stdDeviation="0.333333"/>
<feColorMatrix type="matrix" values="0 0 0 0 0.705882 0 0 0 0 0.823529 0 0 0 0 0.831373 0 0 0 1 0"/>
<feBlend mode="normal" in2="BackgroundImageFix" result="effect1_dropShadow_468_48710"/>
<feBlend mode="normal" in="SourceGraphic" in2="effect1_dropShadow_468_48710" result="shape"/>
</filter>
<linearGradient id="paint0_linear_468_48710" x1="4.3335" y1="4.33337" x2="4.3335" y2="19.6667" gradientUnits="userSpaceOnUse">
<stop stop-color="#C4ECEB"/>
<stop offset="1" stop-color="#A7BCC1"/>
</linearGradient>
<linearGradient id="paint1_linear_468_48710" x1="6.6665" y1="6.66663" x2="6.6665" y2="17.3333" gradientUnits="userSpaceOnUse">
<stop stop-color="#F0FBFE"/>
<stop offset="1" stop-color="#C0DCDC"/>
</linearGradient>
<linearGradient id="paint2_linear_468_48710" x1="7.15973" y1="6.66663" x2="7.15973" y2="16.3468" gradientUnits="userSpaceOnUse">
<stop stop-color="#AFD4D6"/>
<stop offset="1" stop-color="#B9D9DB" stop-opacity="0.57"/>
</linearGradient>
<linearGradient id="paint3_linear_468_48710" x1="7.15973" y1="6.66663" x2="7.15973" y2="16.3468" gradientUnits="userSpaceOnUse">
<stop stop-color="#AFD4D6"/>
<stop offset="1" stop-color="#B9D9DB" stop-opacity="0.57"/>
</linearGradient>
<linearGradient id="paint4_linear_468_48710" x1="9.70752" y1="9.5896" x2="9.70752" y2="13.95" gradientUnits="userSpaceOnUse">
<stop stop-color="#B7D6D8"/>
<stop offset="1" stop-color="#A7BCC1"/>
</linearGradient>
</defs>
</svg>
