<svg width="60" height="60" viewBox="0 0 60 60" fill="none" xmlns="http://www.w3.org/2000/svg">
<path fill-rule="evenodd" clipRule="evenodd" d="M37.7528 50.1042C35.3471 51.0326 32.7328 51.5416 29.9997 51.5416C18.1025 51.5416 8.45801 41.8971 8.45801 29.9999C8.45801 18.1028 18.1025 8.45825 29.9997 8.45825C41.8968 8.45825 51.5413 18.1028 51.5413 29.9999C51.5413 34.6142 50.0906 38.8896 47.6203 42.3949L49.4815 43.7471C49.9424 44.0821 50.1353 44.6757 49.9593 45.2176L47.8026 51.8552C47.6265 52.397 47.1215 52.7639 46.5517 52.7639H39.5726C39.0028 52.7639 38.4978 52.397 38.3218 51.8552L37.7528 50.1042ZM36.7595 47.047C34.6679 47.8771 32.3872 48.3333 30 48.3333C19.8748 48.3333 11.6667 40.1252 11.6667 30C11.6667 19.8748 19.8748 11.6667 30 11.6667C40.1252 11.6667 48.3333 19.8748 48.3333 30C48.3333 33.9095 47.1096 37.5331 45.0244 40.5089L43.8352 39.6449C43.3743 39.31 42.7501 39.31 42.2891 39.6449L36.6429 43.7471C36.1819 44.0821 35.989 44.6757 36.1651 45.2176L36.7595 47.047Z" fill="url(#paint0_linear_468_48727)"/>
<mask id="mask0_468_48727" style="mask-type:alpha" maskUnits="userSpaceOnUse" x="8" y="8" width="44" height="45">
<path fill-rule="evenodd" clipRule="evenodd" d="M37.7528 50.1042C35.3471 51.0326 32.7328 51.5416 29.9997 51.5416C18.1025 51.5416 8.45801 41.8971 8.45801 29.9999C8.45801 18.1028 18.1025 8.45825 29.9997 8.45825C41.8968 8.45825 51.5413 18.1028 51.5413 29.9999C51.5413 34.6142 50.0906 38.8896 47.6203 42.3949L49.4815 43.7471C49.9424 44.0821 50.1353 44.6757 49.9593 45.2176L47.8026 51.8552C47.6265 52.397 47.1215 52.7639 46.5517 52.7639H39.5726C39.0028 52.7639 38.4978 52.397 38.3218 51.8552L37.7528 50.1042ZM36.7595 47.047C34.6679 47.8771 32.3872 48.3333 30 48.3333C19.8748 48.3333 11.6667 40.1252 11.6667 30C11.6667 19.8748 19.8748 11.6667 30 11.6667C40.1252 11.6667 48.3333 19.8748 48.3333 30C48.3333 33.9095 47.1096 37.5331 45.0244 40.5089L43.8352 39.6449C43.3743 39.31 42.7501 39.31 42.2891 39.6449L36.6429 43.7471C36.1819 44.0821 35.989 44.6757 36.1651 45.2176L36.7595 47.047Z" fill="url(#paint1_linear_468_48727)"/>
</mask>
<g mask="url(#mask0_468_48727)">
<g style="mix-blend-mode:multiply" opacity="0.3">
<path fill-rule="evenodd" clipRule="evenodd" d="M30 30.8332L29.9999 30.8333L29.9999 30.8333L29.9999 30.8334L30 30.8334L29.9998 30.8334L17.0362 53.225L7.60812 43.7969L29.9995 30.8335L5 37.5V24.1667L29.9998 30.8333L7.60819 17.8697L17.0363 8.44165L29.9999 30.8333L29.9999 30.8331L23.3333 5.83337H36.6667L30.0002 30.8328L42.9635 8.44161L52.3915 17.8697L30 30.8332L30 30.8334L30 30.8332ZM30 30.8334L55 37.5V24.1667L30 30.8334ZM30 30.8334L36.6667 55.8334H23.3333L30 30.8334Z" fill="#FFD640"/>
</g>
</g>
<path opacity="0.2" d="M13.8096 39.5456C17.0795 45.0798 23.1061 48.7917 29.9997 48.7917C31.1151 48.7917 32.2078 48.6946 33.2697 48.5082" stroke="#F68A2D" strokeWidth="0.916667" strokeLinecap="round" stroke-linejoin="round"/>
<path opacity="0.3" d="M20.3569 46.1322C23.1761 47.821 26.4747 48.7917 30 48.7917" stroke="white" strokeWidth="0.916667" strokeLinecap="round" stroke-linejoin="round"/>
<path opacity="0.2" d="M12.7861 22.4505C15.6934 15.8311 22.3067 11.2083 29.9998 11.2083C37.6929 11.2083 44.3063 15.8311 47.2135 22.4505" stroke="#DA731B" strokeWidth="0.916667" strokeLinecap="round" stroke-linejoin="round"/>
<path opacity="0.2" d="M20.3569 13.8678C23.1761 12.179 26.4747 11.2083 30 11.2083C33.5253 11.2083 36.8239 12.179 39.643 13.8678" stroke="#DA731B" strokeWidth="0.916667" strokeLinecap="round" stroke-linejoin="round"/>
<path opacity="0.4" d="M44.8419 40.8684C44.4465 40.5763 43.6557 39.992 43.6557 39.992C43.2675 39.697 42.7418 39.697 42.3536 39.992L36.875 44.1249" stroke="white" strokeWidth="0.916667" strokeLinecap="round" stroke-linejoin="round"/>
<path opacity="0.4" d="M43.6557 39.992C43.2675 39.697 42.7418 39.697 42.3536 39.992L36.875 44.1249" stroke="white" strokeWidth="0.916667" strokeLinecap="round" stroke-linejoin="round"/>
<path d="M42.3537 39.9921L40.9951 41.0245" stroke="white" strokeWidth="0.916667" strokeLinecap="round"/>
<path opacity="0.5" d="M40.5415 52.2834H45.8123" stroke="#DA731B" strokeWidth="0.916667" strokeLinecap="round" stroke-linejoin="round"/>
<path opacity="0.5" d="M13.3022 42.7295C17.1724 47.81 23.2478 51.0833 30.0792 51.0833C31.2552 51.0833 32.4088 50.9863 33.5326 50.7998" stroke="#DA731B" strokeWidth="0.916667" strokeLinecap="round" stroke-linejoin="round"/>
<path opacity="0.4" d="M51.0832 30C51.0832 18.356 41.6438 8.91663 29.9998 8.91663C18.3558 8.91663 8.9165 18.356 8.9165 30" stroke="white" strokeWidth="0.916667" strokeLinecap="round" stroke-linejoin="round"/>
<g filter="url(#filter0_i_468_48727)">
<path fill-rule="evenodd" clipRule="evenodd" d="M43.0628 49.1933L41.2226 49.8477C40.9069 49.9599 40.577 49.7202 40.5862 49.3853L40.6399 47.433L39.4489 45.8851C39.2446 45.6196 39.3707 45.2317 39.692 45.137L41.5654 44.5848L42.6695 42.9737C42.8589 42.6974 43.2667 42.6974 43.456 42.9737L44.5602 44.5848L46.4335 45.137C46.7549 45.2317 46.8809 45.6196 46.6766 45.8851L45.4856 47.433L45.5393 49.3853C45.5485 49.7202 45.2186 49.9599 44.903 49.8477L43.0628 49.1933Z" fill="url(#paint2_linear_468_48727)"/>
</g>
<path fill-rule="evenodd" clipRule="evenodd" d="M43.0628 49.1933L41.2226 49.8477C40.9069 49.9599 40.577 49.7202 40.5862 49.3853L40.6399 47.433L39.4489 45.8851C39.2446 45.6196 39.3707 45.2317 39.692 45.137L41.5654 44.5848L42.6695 42.9737C42.8589 42.6974 43.2667 42.6974 43.456 42.9737L44.5602 44.5848L46.4335 45.137C46.7549 45.2317 46.8809 45.6196 46.6766 45.8851L45.4856 47.433L45.5393 49.3853C45.5485 49.7202 45.2186 49.9599 44.903 49.8477L43.0628 49.1933Z" stroke="#FFE9D1" strokeWidth="0.916667" strokeLinecap="round" stroke-linejoin="round"/>
<defs>
<filter id="filter0_i_468_48727" x="38.8911" y="42.3081" width="8.34326" height="8.85958" filterUnits="userSpaceOnUse" color-interpolation-filters="sRGB">
<feFlood flood-opacity="0" result="BackgroundImageFix"/>
<feBlend mode="normal" in="SourceGraphic" in2="BackgroundImageFix" result="shape"/>
<feColorMatrix in="SourceAlpha" type="matrix" values="0 0 0 0 0 0 0 0 0 0 0 0 0 0 0 0 0 0 127 0" result="hardAlpha"/>
<feOffset dy="0.833333"/>
<feGaussianBlur stdDeviation="0.416667"/>
<feComposite in2="hardAlpha" operator="arithmetic" k2="-1" k3="1"/>
<feColorMatrix type="matrix" values="0 0 0 0 0.921569 0 0 0 0 0.447059 0 0 0 0 0.105882 0 0 0 1 0"/>
<feBlend mode="normal" in2="shape" result="effect1_innerShadow_468_48727"/>
</filter>
<linearGradient id="paint0_linear_468_48727" x1="8.45801" y1="8.45825" x2="8.45801" y2="52.764" gradientUnits="userSpaceOnUse">
<stop stop-color="#FDDA9D"/>
<stop offset="1" stop-color="#EFB35E"/>
</linearGradient>
<linearGradient id="paint1_linear_468_48727" x1="8.45801" y1="8.45825" x2="8.45801" y2="52.764" gradientUnits="userSpaceOnUse">
<stop stop-color="#FDDA9D"/>
<stop offset="1" stop-color="#EFB35E"/>
</linearGradient>
<linearGradient id="paint2_linear_468_48727" x1="38.8169" y1="42.3999" x2="38.8169" y2="50.8916" gradientUnits="userSpaceOnUse">
<stop stop-color="#FD9B41"/>
<stop offset="1" stop-color="#F48224"/>
</linearGradient>
</defs>
</svg>
