<svg width="28" height="28" viewBox="0 0 28 28" fill="none" xmlns="http://www.w3.org/2000/svg">
<g clip-path="url(#clip0_67_9832)">
<path d="M9.74655 20.5873L7.41328 18.254C7.29396 18.1318 7.12619 18.0693 6.95595 18.0837C6.78686 18.0959 6.63139 18.181 6.53011 18.317L0.117203 27.0667C-0.07611 27.3244 -0.0238853 27.6901 0.233847 27.8833C0.441269 28.0389 0.726399 28.0389 0.933821 27.8833L9.6835 21.4669C9.94336 21.2766 9.99974 20.9115 9.80938 20.6517C9.79172 20.6276 9.77231 20.6049 9.7512 20.5838L9.74655 20.5873Z" fill="#CFD8DC"/>
<path d="M17.3295 16.5041L11.4964 10.671C10.5151 9.907 9.29243 9.51999 8.0502 9.5802C6.42407 9.52332 4.84421 10.1272 3.67071 11.2543C2.72339 12.2016 2.82139 13.6657 3.96235 15.607C5.03987 17.2965 6.31246 18.8534 7.75386 20.2455C10.0743 22.5647 13.0037 24.9749 15.1386 24.9749C15.7403 24.9902 16.3215 24.7563 16.745 24.3286C19.1739 21.9009 18.5685 17.7442 17.3295 16.5041Z" fill="#D32F2F"/>
<path d="M21.9961 11.8377L16.1629 6.00452C15.9352 5.77681 15.5659 5.77681 15.3381 6.00452L10.6716 10.671C9.90867 11.434 9.97167 13.1209 12.4216 15.579C14.021 17.1784 15.2961 17.7605 16.2014 17.7605C16.6204 17.7754 17.0275 17.6196 17.3295 17.3289L21.996 12.6624C22.2238 12.4347 22.2238 12.0654 21.9961 11.8377Z" fill="#F44336"/>
<path d="M27.9552 10.2778C27.865 10.0597 27.6522 9.91738 27.4162 9.91732C26.1516 9.91732 23.375 8.55002 21.4127 6.5878C19.4505 4.62557 18.0832 1.85012 18.0832 0.58437C18.0838 0.262218 17.8231 0.000602445 17.5009 9.05136e-07C17.3456 -0.000272522 17.1966 0.0614127 17.0869 0.171385C14.7046 2.5548 13.9604 6.61929 17.6702 10.3292C19.0816 11.8976 21.0682 12.8274 23.1767 12.9062C24.9304 12.8861 26.6041 12.1687 27.828 10.9124C27.9946 10.746 28.0448 10.4957 27.9552 10.2778Z" fill="#D32F2F"/>
<path d="M24.3294 3.67131C21.8584 1.20155 19.6244 0.00109863 17.5 0.00109863C17.1778 0.00109863 16.9166 0.262276 16.9166 0.584429C16.9166 2.32622 18.5639 5.38975 20.5868 7.41382C22.6098 9.4379 25.6757 11.084 27.4162 11.084C27.7384 11.084 27.9996 10.8229 27.9996 10.5007C27.9996 8.37514 26.7991 6.14102 24.3294 3.67131Z" fill="#F44336"/>
</g>
<defs>
<clipPath id="clip0_67_9832">
<rect width="28" height="28" fill="white"/>
</clipPath>
</defs>
</svg>
