<svg width="24" height="25" viewBox="0 0 24 25" fill="none" xmlns="http://www.w3.org/2000/svg">
<g filter="url(#filter0_d_468_48661)">
<path fill-rule="evenodd" clipRule="evenodd" d="M6.6665 11H11.9998V21.1273C11.9998 21.3751 11.7391 21.5363 11.5174 21.4255L9.33317 20.3333L7.14891 21.4255C6.92728 21.5363 6.6665 21.3751 6.6665 21.1273V11Z" fill="#7F45F6"/>
</g>
<g filter="url(#filter1_d_468_48661)">
<path fill-rule="evenodd" clipRule="evenodd" d="M8 12H13.3333V22.1273C13.3333 22.3751 13.0726 22.5363 12.8509 22.4255L10.6667 21.3333L8.4824 22.4255C8.26077 22.5363 8 22.3751 8 22.1273V12Z" fill="#50E2C2"/>
</g>
<g filter="url(#filter2_d_468_48661)">
<path fill-rule="evenodd" clipRule="evenodd" d="M12 11H17.3333V21.1273C17.3333 21.3751 17.0726 21.5363 16.8509 21.4255L14.6667 20.3333L12.4824 21.4255C12.2608 21.5363 12 21.3751 12 21.1273V11Z" fill="#7F45F6"/>
</g>
<g filter="url(#filter3_d_468_48661)">
<path fill-rule="evenodd" clipRule="evenodd" d="M10.6665 12H15.9998V22.1273C15.9998 22.3751 15.7391 22.5363 15.5174 22.4255L13.3332 21.3333L11.1489 22.4255C10.9273 22.5363 10.6665 22.3751 10.6665 22.1273V12Z" fill="#50E2C2"/>
</g>
<g filter="url(#filter4_d_468_48661)">
<path fill-rule="evenodd" clipRule="evenodd" d="M9.3335 12.6666H14.6668V22.7939C14.6668 23.0417 14.4061 23.2029 14.1844 23.0921L12.0002 22L9.8159 23.0921C9.59427 23.2029 9.3335 23.0417 9.3335 22.7939V12.6666Z" fill="white"/>
</g>
<mask id="mask0_468_48661" style="mask-type:luminance" maskUnits="userSpaceOnUse" x="9" y="12" width="6" height="12">
<path fill-rule="evenodd" clipRule="evenodd" d="M9.3335 12.6666H14.6668V22.7939C14.6668 23.0417 14.4061 23.2029 14.1844 23.0921L12.0002 22L9.8159 23.0921C9.59427 23.2029 9.3335 23.0417 9.3335 22.7939V12.6666Z" fill="white"/>
</mask>
<g mask="url(#mask0_468_48661)">
<rect x="10.6665" y="12.6666" width="2.66667" height="10.6667" fill="#F55462"/>
</g>
<path style="mix-blend-mode:multiply" opacity="0.1" fill-rule="evenodd" clipRule="evenodd" d="M11.3332 5.8853C11.7457 5.64712 12.254 5.64712 12.6665 5.8853L17.9727 8.94883C18.3853 9.18701 18.6394 9.62718 18.6394 10.1035V16.2306C18.6394 16.707 18.3853 17.1471 17.9727 17.3853L12.6665 20.4488C12.254 20.687 11.7457 20.687 11.3332 20.4488L6.02702 17.3853C5.61448 17.1471 5.36035 16.707 5.36035 16.2306L5.36035 10.1035C5.36035 9.62718 5.61448 9.18701 6.02702 8.94883L11.3332 5.8853Z" fill="black"/>
<path fill-rule="evenodd" clipRule="evenodd" d="M8.27223 13.0412L6.60556 12.3745V12.0412L4.93561 11.3454C4.79126 11.2852 4.63682 11.4066 4.66112 11.5611L4.89492 13.0475C4.91253 13.1595 4.98579 13.2548 5.08942 13.3006L8.27223 14.7079V13.0412Z" fill="url(#paint0_linear_468_48661)" stroke="url(#paint1_linear_468_48661)" strokeWidth="0.333333" strokeLinecap="round" stroke-linejoin="round"/>
<path fill-rule="evenodd" clipRule="evenodd" d="M7.60524 11.3746L5.93857 10.7079V10.3746L4.26862 9.67877C4.12426 9.61862 3.96983 9.73997 3.99413 9.89446L4.22793 11.3809C4.24554 11.4928 4.3188 11.5882 4.42242 11.634L7.60524 13.0412V11.3746Z" fill="url(#paint2_linear_468_48661)" stroke="url(#paint3_linear_468_48661)" strokeWidth="0.333333" strokeLinecap="round" stroke-linejoin="round"/>
<path fill-rule="evenodd" clipRule="evenodd" d="M6.93874 9.70795L5.27207 9.04129V8.70795L3.60212 8.01214C3.45776 7.95199 3.30333 8.07334 3.32762 8.22783L3.56143 9.71429C3.57903 9.82622 3.65229 9.92154 3.75592 9.96736L6.93874 11.3746V9.70795Z" fill="url(#paint4_linear_468_48661)" stroke="url(#paint5_linear_468_48661)" strokeWidth="0.333333" strokeLinecap="round" stroke-linejoin="round"/>
<path fill-rule="evenodd" clipRule="evenodd" d="M6.27214 8.04122L4.60547 7.37455V7.04122L2.93552 6.34541C2.79116 6.28526 2.63673 6.40661 2.66103 6.5611L2.89483 8.04756C2.91243 8.15949 2.98569 8.25481 3.08932 8.30063L6.27214 9.70789V8.04122Z" fill="url(#paint6_linear_468_48661)" stroke="url(#paint7_linear_468_48661)" strokeWidth="0.333333" strokeLinecap="round" stroke-linejoin="round"/>
<mask id="mask1_468_48661" style="mask-type:luminance" maskUnits="userSpaceOnUse" x="2" y="6" width="7" height="9">
<path fill-rule="evenodd" clipRule="evenodd" d="M3.40354 8.70935C3.3751 8.52857 3.25679 8.37462 3.08942 8.30062C2.98579 8.2548 2.91253 8.15947 2.89492 8.04754L2.66112 6.56108C2.65538 6.52458 2.65986 6.4872 2.67408 6.45309C2.71656 6.35112 2.83365 6.30291 2.93561 6.34539L4.4529 6.9776C4.54535 7.01612 4.60556 7.10644 4.60556 7.20659C4.60556 7.30802 4.66732 7.39924 4.7615 7.43691L5.85316 7.87358C6.10626 7.97482 6.27223 8.21996 6.27223 8.49256V9.0822C6.27223 9.29903 6.40424 9.49401 6.60556 9.57454C6.80689 9.65507 6.9389 9.85005 6.9389 10.0669V10.7489C6.9389 10.9657 7.07091 11.1607 7.27223 11.2412C7.47355 11.3217 7.60556 11.5167 7.60556 11.7336V12.4155C7.60556 12.6324 7.73758 12.8273 7.9389 12.9079C8.14022 12.9884 8.27223 13.1834 8.27223 13.4002V13.6842C8.27223 14.1661 7.77671 14.4888 7.33598 14.2939L5.08942 13.3006C4.98579 13.2548 4.91253 13.1595 4.89492 13.0475L4.73687 12.0427C4.70844 11.8619 4.59012 11.708 4.42275 11.6339C4.31912 11.5881 4.24586 11.4928 4.22826 11.3809L4.0702 10.376C4.04177 10.1952 3.92345 10.0413 3.75608 9.96728C3.65245 9.92146 3.5792 9.82614 3.56159 9.71421L3.40354 8.70935Z" fill="white" stroke="white" strokeWidth="0.333333"/>
</mask>
<g mask="url(#mask1_468_48661)">
<g opacity="0.1">
<path fill-rule="evenodd" clipRule="evenodd" d="M10.9994 4.22558C11.6182 3.86831 12.3806 3.86831 12.9994 4.22558L18.2323 7.24676C18.8511 7.60402 19.2323 8.26428 19.2323 8.97881V15.0212C19.2323 15.7357 18.8511 16.396 18.2323 16.7532L12.9994 19.7744C12.3806 20.1317 11.6182 20.1317 10.9994 19.7744L5.7666 16.7532C5.1478 16.396 4.7666 15.7357 4.7666 15.0212L4.7666 8.97881C4.7666 8.26428 5.1478 7.60402 5.7666 7.24676L10.9994 4.22558Z" fill="black" style="mix-blend-mode:multiply"/>
</g>
</g>
<path fill-rule="evenodd" clipRule="evenodd" d="M15.7278 13.0412L17.3944 12.3745V12.0412L19.0644 11.3454C19.2087 11.2852 19.3632 11.4066 19.3389 11.5611L19.1051 13.0475C19.0875 13.1595 19.0142 13.2548 18.9106 13.3006L15.7278 14.7079V13.0412Z" fill="url(#paint8_linear_468_48661)" stroke="url(#paint9_linear_468_48661)" strokeWidth="0.333333" strokeLinecap="round" stroke-linejoin="round"/>
<path fill-rule="evenodd" clipRule="evenodd" d="M16.3943 11.3746L18.0609 10.7079V10.3746L19.7309 9.67877C19.8752 9.61862 20.0297 9.73997 20.0054 9.89446L19.7716 11.3809C19.754 11.4928 19.6807 11.5882 19.5771 11.634L16.3943 13.0412V11.3746Z" fill="url(#paint10_linear_468_48661)" stroke="url(#paint11_linear_468_48661)" strokeWidth="0.333333" strokeLinecap="round" stroke-linejoin="round"/>
<path fill-rule="evenodd" clipRule="evenodd" d="M17.0613 9.70795L18.7279 9.04129V8.70795L20.3979 8.01214C20.5422 7.95199 20.6967 8.07334 20.6724 8.22783L20.4386 9.71429C20.421 9.82622 20.3477 9.92154 20.2441 9.96736L17.0613 11.3746V9.70795Z" fill="url(#paint12_linear_468_48661)" stroke="url(#paint13_linear_468_48661)" strokeWidth="0.333333" strokeLinecap="round" stroke-linejoin="round"/>
<path fill-rule="evenodd" clipRule="evenodd" d="M17.7278 8.04121L19.3944 7.37454V7.04121L21.0644 6.34539C21.2087 6.28524 21.3632 6.4066 21.3389 6.56108L21.1051 8.04754C21.0875 8.15947 21.0142 8.2548 20.9106 8.30062L17.7278 9.70787V8.04121Z" fill="url(#paint14_linear_468_48661)" stroke="url(#paint15_linear_468_48661)" strokeWidth="0.333333" strokeLinecap="round" stroke-linejoin="round"/>
<mask id="mask2_468_48661" style="mask-type:luminance" maskUnits="userSpaceOnUse" x="15" y="6" width="7" height="9">
<path fill-rule="evenodd" clipRule="evenodd" d="M20.5965 8.70935C20.6249 8.52857 20.7432 8.37462 20.9106 8.30062C21.0142 8.2548 21.0875 8.15947 21.1051 8.04754L21.3389 6.56108C21.3446 6.52458 21.3401 6.4872 21.3259 6.45309C21.2834 6.35112 21.1663 6.30291 21.0644 6.34539L19.5471 6.9776C19.4547 7.01612 19.3944 7.10644 19.3944 7.20659C19.3944 7.30802 19.3327 7.39924 19.2385 7.43691L18.1468 7.87358C17.8937 7.97482 17.7278 8.21996 17.7278 8.49256V9.0822C17.7278 9.29903 17.5958 9.49401 17.3944 9.57454C17.1931 9.65507 17.0611 9.85005 17.0611 10.0669V10.7489C17.0611 10.9657 16.9291 11.1607 16.7278 11.2412C16.5264 11.3217 16.3944 11.5167 16.3944 11.7336V12.4155C16.3944 12.6324 16.2624 12.8273 16.0611 12.9079C15.8598 12.9884 15.7278 13.1834 15.7278 13.4002V13.6842C15.7278 14.1661 16.2233 14.4888 16.664 14.2939L18.9106 13.3006C19.0142 13.2548 19.0875 13.1595 19.1051 13.0475L19.2631 12.0427C19.2916 11.8619 19.4099 11.708 19.5773 11.6339C19.6809 11.5881 19.7541 11.4928 19.7717 11.3809L19.9298 10.376C19.9582 10.1952 20.0765 10.0413 20.2439 9.96728C20.3475 9.92146 20.4208 9.82614 20.4384 9.71421L20.5965 8.70935Z" fill="white" stroke="white" strokeWidth="0.333333"/>
</mask>
<g mask="url(#mask2_468_48661)">
<g opacity="0.1">
<path fill-rule="evenodd" clipRule="evenodd" d="M12.9996 4.22558C12.3808 3.86831 11.6184 3.86831 10.9996 4.22558L5.76674 7.24676C5.14794 7.60402 4.76674 8.26428 4.76674 8.97881V15.0212C4.76674 15.7357 5.14794 16.396 5.76674 16.7532L10.9996 19.7744C11.6184 20.1317 12.3808 20.1317 12.9996 19.7744L18.2324 16.7532C18.8512 16.396 19.2324 15.7357 19.2324 15.0212L19.2324 8.97881C19.2324 8.26428 18.8512 7.60402 18.2324 7.24676L12.9996 4.22558Z" fill="black" style="mix-blend-mode:multiply"/>
</g>
</g>
<path fill-rule="evenodd" clipRule="evenodd" d="M5.9998 14L4.82446 14.5877C4.72564 14.6371 4.65772 14.7322 4.64312 14.8418L4.38654 16.7661C4.36466 16.9302 4.54027 17.0483 4.68402 16.9662L6.66647 15.8333L5.9998 14Z" fill="url(#paint16_linear_468_48661)" stroke="url(#paint17_linear_468_48661)" strokeWidth="0.333333" strokeLinecap="round" stroke-linejoin="round"/>
<path fill-rule="evenodd" clipRule="evenodd" d="M17.9998 14L19.1752 14.5877C19.274 14.6371 19.3419 14.7322 19.3565 14.8418L19.6131 16.7661C19.635 16.9302 19.4594 17.0483 19.3156 16.9662L17.3332 15.8333L17.9998 14Z" fill="url(#paint18_linear_468_48661)" stroke="url(#paint19_linear_468_48661)" strokeWidth="0.333333" strokeLinecap="round" stroke-linejoin="round"/>
<path d="M14.7434 5.35056C14.8927 5.43476 14.833 5.66241 14.6615 5.66241H9.33841C9.16688 5.66241 9.10722 5.43452 9.25673 5.35046L11.9222 3.85187C11.973 3.82331 12.035 3.82335 12.0858 3.85197L14.7434 5.35056Z" fill="url(#paint20_linear_468_48661)" stroke="url(#paint21_linear_468_48661)" strokeWidth="0.333333" strokeLinecap="round" stroke-linejoin="round"/>
<g filter="url(#filter5_i_468_48661)">
<path fill-rule="evenodd" clipRule="evenodd" d="M18 16.6768C18 16.7959 17.9365 16.9059 17.8333 16.9655L13 19.756C12.3812 20.1133 11.6188 20.1133 11 19.756L6.16667 16.9655C6.06353 16.9059 6 16.7959 6 16.6768V15.3764C6 15.1194 6.27844 14.9591 6.50067 15.0881L11.0629 17.7361C11.6424 18.0725 12.3576 18.0725 12.9371 17.7361L17.4993 15.0881C17.7216 14.9591 18 15.1194 18 15.3764V16.6768Z" fill="url(#paint22_linear_468_48661)"/>
</g>
<path d="M17.8333 16.6768C17.8333 16.7364 17.8016 16.7914 17.75 16.8212L12.9167 19.6117C12.3494 19.9392 11.6506 19.9392 11.0833 19.6117L6.25 16.8212L6.16667 16.9655L6.25 16.8212C6.19843 16.7914 6.16667 16.7364 6.16667 16.6768V15.3764C6.16667 15.2479 6.30589 15.1677 6.417 15.2322L10.9793 17.8803C11.6104 18.2466 12.3896 18.2466 13.0207 17.8803L17.583 15.2322C17.6941 15.1677 17.8333 15.2479 17.8333 15.3764V16.6768Z" stroke="url(#paint23_linear_468_48661)" strokeWidth="0.333333" strokeLinecap="round" stroke-linejoin="round"/>
<mask id="path-26-inside-1_468_48661" fill="white">
<path fill-rule="evenodd" clipRule="evenodd" d="M10.5189 6.43223C10.6117 6.37041 10.6674 6.26632 10.6674 6.15486V4.10067C10.6674 3.77089 10.2397 3.64136 10.0567 3.91574L9.21253 5.18174L6.83191 6.57014C6.72949 6.62988 6.6665 6.73952 6.6665 6.85808V8.37717C6.6665 8.64339 6.96319 8.80219 7.18471 8.65454L8.05096 8.07716C8.05176 8.07664 8.05256 8.07611 8.05336 8.07558L10.5189 6.43223Z"/>
</mask>
<path fill-rule="evenodd" clipRule="evenodd" d="M10.5189 6.43223C10.6117 6.37041 10.6674 6.26632 10.6674 6.15486V4.10067C10.6674 3.77089 10.2397 3.64136 10.0567 3.91574L9.21253 5.18174L6.83191 6.57014C6.72949 6.62988 6.6665 6.73952 6.6665 6.85808V8.37717C6.6665 8.64339 6.96319 8.80219 7.18471 8.65454L8.05096 8.07716C8.05176 8.07664 8.05256 8.07611 8.05336 8.07558L10.5189 6.43223Z" fill="url(#paint24_linear_468_48661)"/>
<path d="M10.5189 6.43223L10.7038 6.7096L10.5189 6.43223ZM10.0567 3.91574L10.334 4.10067V4.10067L10.0567 3.91574ZM9.21253 5.18174L9.38046 5.46968C9.42429 5.44412 9.46171 5.40889 9.48986 5.36667L9.21253 5.18174ZM6.83191 6.57014L6.66398 6.2822H6.66398L6.83191 6.57014ZM7.18471 8.65454L7.36958 8.93191H7.36958L7.18471 8.65454ZM8.05096 8.07716L7.86805 7.79849L7.86609 7.7998L8.05096 8.07716ZM8.05336 8.07558L7.86849 7.79821L7.86848 7.79821L8.05336 8.07558ZM10.334 6.15486L10.334 6.15486L10.7038 6.7096C10.8893 6.58596 11.0007 6.37778 11.0007 6.15486H10.334ZM10.334 4.10067V6.15486H11.0007V4.10067H10.334ZM10.334 4.10067L10.334 4.10067H11.0007C11.0007 3.4411 10.1453 3.18205 9.77937 3.73082L10.334 4.10067ZM9.48986 5.36667L10.334 4.10067L9.77937 3.73082L8.9352 4.99681L9.48986 5.36667ZM6.99984 6.85808L9.38046 5.46968L9.0446 4.8938L6.66398 6.2822L6.99984 6.85808ZM6.99984 6.85808H6.99984L6.66398 6.2822C6.45913 6.40167 6.33317 6.62095 6.33317 6.85808H6.99984ZM6.99984 8.37717V6.85808H6.33317V8.37717H6.99984ZM6.99984 8.37717H6.99984H6.33317C6.33317 8.90961 6.92654 9.22721 7.36958 8.93191L6.99984 8.37717ZM7.86609 7.7998L6.99984 8.37717L7.36958 8.93191L8.23584 8.35453L7.86609 7.7998ZM7.86848 7.79821C7.86842 7.79826 7.86828 7.79835 7.86806 7.79849L8.23387 8.35583C8.23524 8.35493 8.23671 8.35396 8.23824 8.35294L7.86848 7.79821ZM10.334 6.15486L7.86849 7.79821L8.23824 8.35294L10.7038 6.7096L10.334 6.15486Z" fill="url(#paint25_linear_468_48661)" mask="url(#path-26-inside-1_468_48661)"/>
<mask id="path-28-inside-2_468_48661" fill="white">
<path fill-rule="evenodd" clipRule="evenodd" d="M13.482 6.43223C13.3892 6.37041 13.3335 6.26632 13.3335 6.15486V4.10067C13.3335 3.77089 13.7612 3.64136 13.9442 3.91574L14.7883 5.18174L17.169 6.57014C17.2714 6.62988 17.3344 6.73952 17.3344 6.85808V8.37717C17.3344 8.64339 17.0377 8.80219 16.8162 8.65454L15.9499 8.07717C15.9491 8.07664 15.9483 8.07611 15.9475 8.07558L13.482 6.43223Z"/>
</mask>
<path fill-rule="evenodd" clipRule="evenodd" d="M13.482 6.43223C13.3892 6.37041 13.3335 6.26632 13.3335 6.15486V4.10067C13.3335 3.77089 13.7612 3.64136 13.9442 3.91574L14.7883 5.18174L17.169 6.57014C17.2714 6.62988 17.3344 6.73952 17.3344 6.85808V8.37717C17.3344 8.64339 17.0377 8.80219 16.8162 8.65454L15.9499 8.07717C15.9491 8.07664 15.9483 8.07611 15.9475 8.07558L13.482 6.43223Z" fill="url(#paint26_linear_468_48661)"/>
<path d="M13.482 6.43223L13.2971 6.7096H13.2971L13.482 6.43223ZM13.9442 3.91574L13.6668 4.10067H13.6668L13.9442 3.91574ZM14.7883 5.18174L14.511 5.36667C14.5392 5.40889 14.5766 5.44412 14.6204 5.46968L14.7883 5.18174ZM17.169 6.57014L17.3369 6.2822V6.2822L17.169 6.57014ZM16.8162 8.65454L16.6313 8.93191H16.6313L16.8162 8.65454ZM15.9499 8.07717L16.1348 7.7998L16.1328 7.79848L15.9499 8.07717ZM15.9475 8.07558L15.7626 8.35294L15.7626 8.35295L15.9475 8.07558ZM13.0002 6.15486C13.0002 6.37778 13.1116 6.58596 13.2971 6.7096L13.6668 6.15486L13.6668 6.15486H13.0002ZM13.0002 4.10067V6.15486H13.6668V4.10067H13.0002ZM14.2215 3.73082C13.8556 3.18205 13.0002 3.4411 13.0002 4.10067H13.6668L13.6668 4.10067L14.2215 3.73082ZM15.0657 4.99681L14.2215 3.73082L13.6668 4.10067L14.511 5.36667L15.0657 4.99681ZM17.3369 6.2822L14.9563 4.8938L14.6204 5.46968L17.001 6.85808L17.3369 6.2822ZM17.6677 6.85808C17.6677 6.62095 17.5417 6.40167 17.3369 6.2822L17.001 6.85808H17.001H17.6677ZM17.6677 8.37717V6.85808H17.001V8.37717H17.6677ZM16.6313 8.93191C17.0743 9.22721 17.6677 8.90961 17.6677 8.37717H17.001H17.001L16.6313 8.93191ZM15.765 8.35454L16.6313 8.93191L17.001 8.37717L16.1348 7.7998L15.765 8.35454ZM15.7626 8.35295C15.7641 8.35393 15.7656 8.3549 15.767 8.35586L16.1328 7.79848C16.1327 7.79839 16.1325 7.7983 16.1324 7.7982L15.7626 8.35295ZM13.2971 6.7096L15.7626 8.35294L16.1324 7.79821L13.6668 6.15486L13.2971 6.7096Z" fill="url(#paint27_linear_468_48661)" mask="url(#path-28-inside-2_468_48661)"/>
<path fill-rule="evenodd" clipRule="evenodd" d="M11.3335 4.71827C11.746 4.4801 12.2543 4.4801 12.6668 4.71827L17.973 7.78181C18.3856 8.01998 18.6397 8.46015 18.6397 8.93651V15.0636C18.6397 15.5399 18.3856 15.9801 17.973 16.2183L12.6668 19.2818C12.2543 19.52 11.746 19.52 11.3335 19.2818L6.0273 16.2183C5.61477 15.9801 5.36063 15.5399 5.36063 15.0636V8.93651C5.36063 8.46015 5.61477 8.01998 6.0273 7.78181L11.3335 4.71827Z" fill="url(#paint28_linear_468_48661)" stroke="#FFF04D" stroke-opacity="0.4" strokeWidth="0.333333"/>
<mask id="mask3_468_48661" style="mask-type:luminance" maskUnits="userSpaceOnUse" x="5" y="4" width="14" height="16">
<path fill-rule="evenodd" clipRule="evenodd" d="M11.3335 4.71827C11.746 4.4801 12.2543 4.4801 12.6668 4.71827L17.973 7.78181C18.3856 8.01998 18.6397 8.46015 18.6397 8.93651V15.0636C18.6397 15.5399 18.3856 15.9801 17.973 16.2183L12.6668 19.2818C12.2543 19.52 11.746 19.52 11.3335 19.2818L6.0273 16.2183C5.61477 15.9801 5.36063 15.5399 5.36063 15.0636V8.93651C5.36063 8.46015 5.61477 8.01998 6.0273 7.78181L11.3335 4.71827Z" fill="white"/>
</mask>
<g mask="url(#mask3_468_48661)">
<g style="mix-blend-mode:multiply" opacity="0.4">
<path d="M12 12L14 4H10L12 12L7.75737 4.92893L4.92895 7.75736L12 12L4 10V14L12 12L4.92895 16.2426L7.75738 19.0711L12 12L10 20H14L12 12L16.2426 19.0711L19.0711 16.2426L12 12L20 14V10L12 12L19.0711 7.75736L16.2426 4.92893L12 12Z" fill="#FFD640"/>
</g>
<g filter="url(#filter6_di_468_48661)">
<path fill-rule="evenodd" clipRule="evenodd" d="M17.2238 8.39616L12.5056 5.66894C12.1928 5.48812 11.8074 5.48812 11.4946 5.66894L6.77643 8.39616C6.46362 8.57698 6.27091 8.91114 6.27091 9.27277V11.2402L5.8884 11.8147C5.81389 11.9266 5.81389 12.0723 5.8884 12.1842L6.27091 12.7586V14.7272C6.27091 15.0888 6.46362 15.423 6.77643 15.6038L11.4946 18.331C11.8074 18.5119 12.1928 18.5119 12.5056 18.331L17.2238 15.6038C17.5366 15.423 17.7293 15.0888 17.7293 14.7272V12.7587L18.1118 12.1842C18.1863 12.0723 18.1863 11.9266 18.1118 11.8147L17.7293 11.2402V9.27277C17.7293 8.91114 17.5366 8.57698 17.2238 8.39616ZM6.60783 12.7587V14.7272C6.60783 14.9683 6.7363 15.1911 6.94484 15.3116L11.663 18.0388C11.8715 18.1594 12.1285 18.1594 12.337 18.0388L17.0552 15.3116C17.2637 15.1911 17.3922 14.9683 17.3922 14.7272V12.7583L17.0098 12.1842C16.9353 12.0723 16.9353 11.9266 17.0098 11.8147L17.3922 11.2405V9.27276C17.3922 9.03168 17.2637 8.8089 17.0552 8.68836L12.337 5.96114C12.1285 5.84059 11.8715 5.84059 11.663 5.96114L6.94484 8.68836C6.7363 8.8089 6.60783 9.03168 6.60783 9.27276V11.2401L6.9904 11.8147C7.06491 11.9266 7.06491 12.0723 6.9904 12.1842L6.60783 12.7587Z" fill="#676763"/>
</g>
<mask id="mask4_468_48661" style="mask-type:luminance" maskUnits="userSpaceOnUse" x="5" y="5" width="14" height="14">
<path fill-rule="evenodd" clipRule="evenodd" d="M17.2238 8.39616L12.5056 5.66894C12.1928 5.48812 11.8074 5.48812 11.4946 5.66894L6.77643 8.39616C6.46362 8.57698 6.27091 8.91114 6.27091 9.27277V11.2402L5.8884 11.8147C5.81389 11.9266 5.81389 12.0723 5.8884 12.1842L6.27091 12.7586V14.7272C6.27091 15.0888 6.46362 15.423 6.77643 15.6038L11.4946 18.331C11.8074 18.5119 12.1928 18.5119 12.5056 18.331L17.2238 15.6038C17.5366 15.423 17.7293 15.0888 17.7293 14.7272V12.7587L18.1118 12.1842C18.1863 12.0723 18.1863 11.9266 18.1118 11.8147L17.7293 11.2402V9.27277C17.7293 8.91114 17.5366 8.57698 17.2238 8.39616ZM6.60783 12.7587V14.7272C6.60783 14.9683 6.7363 15.1911 6.94484 15.3116L11.663 18.0388C11.8715 18.1594 12.1285 18.1594 12.337 18.0388L17.0552 15.3116C17.2637 15.1911 17.3922 14.9683 17.3922 14.7272V12.7583L17.0098 12.1842C16.9353 12.0723 16.9353 11.9266 17.0098 11.8147L17.3922 11.2405V9.27276C17.3922 9.03168 17.2637 8.8089 17.0552 8.68836L12.337 5.96114C12.1285 5.84059 11.8715 5.84059 11.663 5.96114L6.94484 8.68836C6.7363 8.8089 6.60783 9.03168 6.60783 9.27276V11.2401L6.9904 11.8147C7.06491 11.9266 7.06491 12.0723 6.9904 12.1842L6.60783 12.7587Z" fill="white"/>
</mask>
<g mask="url(#mask4_468_48661)">
<g style="mix-blend-mode:multiply" opacity="0.4">
<path fill-rule="evenodd" clipRule="evenodd" d="M12 12L4 10V14L12 12ZM12 12L14 4H10L12 12ZM12 12L20 14V10L12 12ZM12 12L16.2426 4.92893L19.0711 7.75736L12 12ZM12 12L19.0711 16.2426L16.2426 19.0711L12 12ZM12 12L7.75736 19.0711L4.92893 16.2426L12 12ZM12 12L14 20H10L12 12Z" fill="#5A5951"/>
<path d="M7.75736 4.92893L4.92893 7.75736L12 12L7.75736 4.92893Z" fill="#5A5951"/>
</g>
</g>
<path d="M12.5835 4.8626C12.2226 4.6542 11.7778 4.6542 11.4169 4.8626L6.11068 7.92614C5.74971 8.13454 5.52734 8.51969 5.52734 8.9365L5.52734 15.0636C5.52734 15.4804 5.74971 15.8655 6.11068 16.0739L11.4169 19.1375C11.7778 19.3459 12.2226 19.3459 12.5835 19.1375L17.8897 16.0739C18.2507 15.8655 18.4731 15.4804 18.4731 15.0636V8.9365C18.4731 8.51969 18.2507 8.13454 17.8897 7.92614L12.5835 4.8626Z" stroke="#FAB90A" strokeWidth="0.333333"/>
<path opacity="0.4" d="M12.5835 19.1375C13.2076 18.7772 13.6497 18.5219 13.91 18.3716" stroke="white" strokeWidth="0.333333" strokeLinecap="round"/>
<path d="M18.4731 15.0636V8.9365C18.4731 8.51969 18.2507 8.13454 17.8897 7.92614L12.5835 4.8626C12.2226 4.6542 11.7778 4.6542 11.4169 4.8626L6.11068 7.92614C5.74971 8.13454 5.52734 8.51969 5.52734 8.9365L5.52734 15.0636" stroke="#FAC81C" strokeWidth="0.333333" strokeLinecap="round"/>
<path opacity="0.6" d="M18.4731 8.9365C18.4731 8.51969 18.2507 8.13454 17.8897 7.92614L12.5835 4.8626C12.2226 4.6542 11.7778 4.6542 11.4169 4.8626L6.11068 7.92614C5.74971 8.13454 5.52734 8.51969 5.52734 8.9365" stroke="#FFE56A" strokeWidth="0.333333" strokeLinecap="round"/>
<path opacity="0.6" d="M12.5834 4.8626C12.2225 4.6542 11.7777 4.6542 11.4168 4.8626C11.4168 4.8626 9.64804 5.88378 8.76367 6.39437" stroke="white" strokeWidth="0.333333" strokeLinecap="round"/>
<path d="M11.4169 4.86255C11.4169 4.86255 10.4808 5.403 10.0903 5.62843" stroke="white" strokeWidth="0.333333" strokeLinecap="round"/>
</g>
<g filter="url(#filter7_d_468_48661)">
<path fill-rule="evenodd" clipRule="evenodd" d="M11.6665 6.85908C11.8728 6.73999 12.1269 6.73999 12.3332 6.85908L16.2853 9.14084C16.4916 9.25993 16.6186 9.48002 16.6186 9.71819V14.2817C16.6186 14.5199 16.4916 14.74 16.2853 14.8591L12.3332 17.1408C12.1269 17.2599 11.8728 17.2599 11.6665 17.1408L7.71437 14.8591C7.5081 14.74 7.38104 14.5199 7.38104 14.2817V9.71819C7.38104 9.48002 7.5081 9.25993 7.71437 9.14084L11.6665 6.85908Z" fill="url(#paint29_linear_468_48661)"/>
<path d="M12.4165 6.71474C12.1587 6.56588 11.841 6.56588 11.5832 6.71474L7.63104 8.99651C7.3732 9.14537 7.21437 9.42047 7.21437 9.71819V14.2817C7.21437 14.5794 7.3732 14.8546 7.63104 15.0034L11.5832 17.2852C11.841 17.434 12.1587 17.434 12.4165 17.2852L16.3686 15.0034C16.6265 14.8546 16.7853 14.5794 16.7853 14.2817V9.71819C16.7853 9.42047 16.6265 9.14537 16.3686 8.99651L12.4165 6.71474Z" stroke="#F5900D" stroke-opacity="0.1" strokeWidth="0.333333" style="mix-blend-mode:multiply"/>
</g>
<mask id="mask5_468_48661" style="mask-type:luminance" maskUnits="userSpaceOnUse" x="7" y="6" width="10" height="12">
<path fill-rule="evenodd" clipRule="evenodd" d="M11.6665 6.85908C11.8728 6.73999 12.1269 6.73999 12.3332 6.85908L16.2853 9.14084C16.4916 9.25993 16.6186 9.48002 16.6186 9.71819V14.2817C16.6186 14.5199 16.4916 14.74 16.2853 14.8591L12.3332 17.1408C12.1269 17.2599 11.8728 17.2599 11.6665 17.1408L7.71437 14.8591C7.5081 14.74 7.38104 14.5199 7.38104 14.2817V9.71819C7.38104 9.48002 7.5081 9.25993 7.71437 9.14084L11.6665 6.85908Z" fill="white"/>
</mask>
<g mask="url(#mask5_468_48661)">
<g style="mix-blend-mode:multiply" opacity="0.3">
<path fill-rule="evenodd" clipRule="evenodd" d="M11.9998 12L6.6665 13.3333V10.6666L11.9998 12ZM11.9998 12L13.3332 6.66663H10.6665L11.9998 12ZM11.9998 12L17.3332 10.6666V13.3333L11.9998 12ZM11.9998 12L14.8283 7.28591L16.7139 9.17153L11.9998 12ZM11.9998 12L14.8283 16.714L16.7139 14.8284L11.9998 12ZM11.9998 12L10.6665 17.3333H13.3332L11.9998 12ZM11.9998 12L9.17141 16.714L7.28579 14.8284L11.9998 12Z" fill="#FFD640"/>
<path d="M9.17141 7.28591L7.28579 9.17153L11.9998 12L9.17141 7.28591Z" fill="#FFD640"/>
</g>
<path opacity="0.4" d="M16.2021 9.28528L12.25 7.00351C12.0953 6.91419 11.9047 6.91419 11.75 7.00351C11.2852 7.27187 10.9558 7.46201 10.762 7.57395C10.3585 7.80691 10.0291 7.99706 9.77392 8.14439C9.33479 8.39792 8.6761 8.77822 7.79785 9.28528" stroke="white" strokeWidth="0.333333" strokeLinecap="round"/>
<path d="M11.7498 7.00342C11.2849 7.27177 10.9556 7.46192 10.7617 7.57386" stroke="white" strokeWidth="0.333333" strokeLinecap="round"/>
<path opacity="0.4" d="M16.2021 14.7034L12.25 16.9851C12.0953 17.0745 11.9047 17.0745 11.75 16.9851" stroke="white" strokeWidth="0.333333" strokeLinecap="round"/>
</g>
<g filter="url(#filter8_d_468_48661)">
<mask id="path-49-outside-3_468_48661" maskUnits="userSpaceOnUse" x="8" y="8.93457" width="8" height="7" fill="black">
<rect fill="white" x="8" y="8.93457" width="8" height="7"/>
<path fill-rule="evenodd" clipRule="evenodd" d="M9 11.6666L10 9.93457H14L15 11.6666H9ZM12 14.6667L15 11.6667H9L12 14.6667Z"/>
</mask>
<path fill-rule="evenodd" clipRule="evenodd" d="M9 11.6666L10 9.93457H14L15 11.6666H9ZM12 14.6667L15 11.6667H9L12 14.6667Z" fill="white"/>
<path d="M10 9.93457V9.2679C9.76182 9.2679 9.54174 9.39497 9.42265 9.60124L10 9.93457ZM9 11.6666L8.42265 11.3333C8.30356 11.5396 8.30356 11.7937 8.42265 12C8.54174 12.2062 8.76182 12.3333 9 12.3333V11.6666ZM14 9.93457L14.5774 9.60124C14.4583 9.39497 14.2382 9.2679 14 9.2679V9.93457ZM15 11.6666V12.3333C15.2382 12.3333 15.4583 12.2062 15.5774 12C15.6964 11.7937 15.6964 11.5396 15.5774 11.3333L15 11.6666ZM15 11.6667L15.4714 12.1381C15.6621 11.9474 15.7191 11.6607 15.6159 11.4115C15.5127 11.1624 15.2696 11 15 11V11.6667ZM12 14.6667L11.5286 15.1381C11.7889 15.3984 12.2111 15.3984 12.4714 15.1381L12 14.6667ZM9 11.6667V11C8.73036 11 8.48727 11.1624 8.38408 11.4115C8.28089 11.6607 8.33793 11.9474 8.5286 12.1381L9 11.6667ZM9.42265 9.60124L8.42265 11.3333L9.57735 12L10.5774 10.2679L9.42265 9.60124ZM14 9.2679H10V10.6012H14V9.2679ZM15.5774 11.3333L14.5774 9.60124L13.4227 10.2679L14.4227 12L15.5774 11.3333ZM9 12.3333H15V11H9V12.3333ZM14.5286 11.1953L11.5286 14.1953L12.4714 15.1381L15.4714 12.1381L14.5286 11.1953ZM9 12.3333H15V11H9V12.3333ZM12.4714 14.1953L9.4714 11.1953L8.5286 12.1381L11.5286 15.1381L12.4714 14.1953Z" fill="white" mask="url(#path-49-outside-3_468_48661)"/>
</g>
<path fill-rule="evenodd" clipRule="evenodd" d="M12 14.6666L15 11.6666H9L12 14.6666Z" fill="url(#paint30_linear_468_48661)"/>
<path fill-rule="evenodd" clipRule="evenodd" d="M12 14.6666L11 11.6666H13L12 14.6666Z" fill="url(#paint31_linear_468_48661)"/>
<path d="M10 9.93457L9 11.6666H15L14 9.93457H10Z" fill="url(#paint32_linear_468_48661)"/>
<path d="M10 9.93458L11 11.6666H9L10 9.93458Z" fill="url(#paint33_linear_468_48661)"/>
<path d="M12 9.93458L13 11.6666H11L12 9.93458Z" fill="url(#paint34_linear_468_48661)"/>
<path d="M14 9.93458L15 11.6666H13L14 9.93458Z" fill="url(#paint35_linear_468_48661)"/>
<g filter="url(#filter9_d_468_48661)">
<path fill-rule="evenodd" clipRule="evenodd" d="M15.6371 9.9266L15.464 9.85833C15.3581 9.81657 15.3062 9.69689 15.3479 9.59102C15.3689 9.53791 15.4109 9.49587 15.464 9.47492L15.6371 9.40665C15.8368 9.32791 15.9948 9.16989 16.0735 8.97026L16.1418 8.79715C16.1835 8.69127 16.3032 8.6393 16.4091 8.68105C16.4622 8.702 16.5043 8.74404 16.5252 8.79715L16.5935 8.97026C16.6722 9.16989 16.8302 9.32791 17.0299 9.40665L17.203 9.47492C17.3088 9.51668 17.3608 9.63636 17.3191 9.74223C17.2981 9.79534 17.2561 9.83738 17.203 9.85833L17.0299 9.9266C16.8302 10.0053 16.6722 10.1634 16.5935 10.363L16.5252 10.5361C16.4834 10.642 16.3638 10.694 16.2579 10.6522C16.2048 10.6313 16.1627 10.5892 16.1418 10.5361L16.0735 10.363C15.9948 10.1634 15.8368 10.0053 15.6371 9.9266Z" fill="white"/>
</g>
<g filter="url(#filter10_d_468_48661)">
<path fill-rule="evenodd" clipRule="evenodd" d="M8.86893 15.1734L8.75352 15.1278C8.68294 15.1 8.64828 15.0202 8.67612 14.9496C8.69009 14.9142 8.71811 14.8862 8.75352 14.8722L8.86893 14.8267C9.00201 14.7742 9.10736 14.6689 9.15985 14.5358L9.20537 14.4204C9.23321 14.3498 9.31299 14.3152 9.38358 14.343C9.41898 14.357 9.44701 14.385 9.46097 14.4204L9.50649 14.5358C9.55898 14.6689 9.66433 14.7742 9.79741 14.8267L9.91282 14.8722C9.98341 14.9001 10.0181 14.9799 9.99022 15.0504C9.97626 15.0859 9.94823 15.1139 9.91282 15.1278L9.79741 15.1734C9.66433 15.2258 9.55898 15.3312 9.50649 15.4643L9.46097 15.5797C9.43314 15.6503 9.35335 15.6849 9.28277 15.6571C9.24736 15.6431 9.21933 15.6151 9.20537 15.5797L9.15985 15.4643C9.10736 15.3312 9.00201 15.2258 8.86893 15.1734Z" fill="white"/>
</g>
<g filter="url(#filter11_d_468_48661)">
<path fill-rule="evenodd" clipRule="evenodd" d="M6.91953 10.3834L6.77527 10.3265C6.68704 10.2917 6.64373 10.1919 6.67853 10.1037C6.69598 10.0594 6.73101 10.0244 6.77527 10.007L6.91953 9.95006C7.08589 9.88445 7.21758 9.75276 7.28319 9.5864L7.34008 9.44214C7.37488 9.35391 7.47461 9.3106 7.56284 9.3454C7.6071 9.36285 7.64213 9.39788 7.65959 9.44214L7.71649 9.5864C7.7821 9.75276 7.91378 9.88445 8.08014 9.95006L8.2244 10.007C8.31263 10.0418 8.35595 10.1415 8.32115 10.2297C8.30369 10.274 8.26866 10.309 8.2244 10.3265L8.08014 10.3834C7.91378 10.449 7.7821 10.5807 7.71649 10.747L7.65959 10.8913C7.62479 10.9795 7.52506 11.0228 7.43683 10.988C7.39257 10.9706 7.35754 10.9355 7.34008 10.8913L7.28319 10.747C7.21758 10.5807 7.08589 10.449 6.91953 10.3834Z" fill="white"/>
</g>
<g filter="url(#filter12_d_468_48661)">
<path fill-rule="evenodd" clipRule="evenodd" d="M15.4853 15.2966L15.3988 15.2625C15.3458 15.2416 15.3198 15.1818 15.3407 15.1288C15.3512 15.1023 15.3722 15.0812 15.3988 15.0708L15.4853 15.0366C15.5851 14.9973 15.6641 14.9183 15.7035 14.8184L15.7376 14.7319C15.7585 14.6789 15.8184 14.653 15.8713 14.6738C15.8979 14.6843 15.9189 14.7053 15.9293 14.7319L15.9635 14.8184C16.0029 14.9183 16.0819 14.9973 16.1817 15.0366L16.2682 15.0708C16.3212 15.0917 16.3472 15.1515 16.3263 15.2044C16.3158 15.231 16.2948 15.252 16.2682 15.2625L16.1817 15.2966C16.0819 15.336 16.0029 15.415 15.9635 15.5148L15.9293 15.6014C15.9085 15.6543 15.8486 15.6803 15.7957 15.6594C15.7691 15.6489 15.7481 15.6279 15.7376 15.6014L15.7035 15.5148C15.6641 15.415 15.5851 15.336 15.4853 15.2966Z" fill="white"/>
</g>
<g filter="url(#filter13_d_468_48661)">
<path fill-rule="evenodd" clipRule="evenodd" d="M14.1012 11.7534L14.0435 11.7306C14.0082 11.7167 13.9909 11.6768 14.0048 11.6415C14.0118 11.6238 14.0258 11.6098 14.0435 11.6028L14.1012 11.58C14.1678 11.5538 14.2204 11.5011 14.2467 11.4346L14.2694 11.3769C14.2834 11.3416 14.3232 11.3243 14.3585 11.3382C14.3762 11.3452 14.3903 11.3592 14.3972 11.3769L14.42 11.4346C14.4462 11.5011 14.4989 11.5538 14.5655 11.58L14.6232 11.6028C14.6585 11.6167 14.6758 11.6566 14.6619 11.6919C14.6549 11.7096 14.6409 11.7236 14.6232 11.7306L14.5655 11.7534C14.4989 11.7796 14.4462 11.8323 14.42 11.8988L14.3972 11.9565C14.3833 11.9918 14.3434 12.0092 14.3081 11.9952C14.2904 11.9883 14.2764 11.9742 14.2694 11.9565L14.2467 11.8988C14.2204 11.8323 14.1678 11.7796 14.1012 11.7534Z" fill="white"/>
</g>
<defs>
<filter id="filter0_d_468_48661" x="5.99984" y="11" width="6.66683" height="11.7944" filterUnits="userSpaceOnUse" color-interpolation-filters="sRGB">
<feFlood flood-opacity="0" result="BackgroundImageFix"/>
<feColorMatrix in="SourceAlpha" type="matrix" values="0 0 0 0 0 0 0 0 0 0 0 0 0 0 0 0 0 0 127 0" result="hardAlpha"/>
<feOffset dy="0.666667"/>
<feGaussianBlur stdDeviation="0.333333"/>
<feColorMatrix type="matrix" values="0 0 0 0 0.61352 0 0 0 0 0.61352 0 0 0 0 0.61352 0 0 0 0.2 0"/>
<feBlend mode="normal" in2="BackgroundImageFix" result="effect1_dropShadow_468_48661"/>
<feBlend mode="normal" in="SourceGraphic" in2="effect1_dropShadow_468_48661" result="shape"/>
</filter>
<filter id="filter1_d_468_48661" x="7.33333" y="12" width="6.66683" height="11.7944" filterUnits="userSpaceOnUse" color-interpolation-filters="sRGB">
<feFlood flood-opacity="0" result="BackgroundImageFix"/>
<feColorMatrix in="SourceAlpha" type="matrix" values="0 0 0 0 0 0 0 0 0 0 0 0 0 0 0 0 0 0 127 0" result="hardAlpha"/>
<feOffset dy="0.666667"/>
<feGaussianBlur stdDeviation="0.333333"/>
<feColorMatrix type="matrix" values="0 0 0 0 0.61352 0 0 0 0 0.61352 0 0 0 0 0.61352 0 0 0 0.2 0"/>
<feBlend mode="normal" in2="BackgroundImageFix" result="effect1_dropShadow_468_48661"/>
<feBlend mode="normal" in="SourceGraphic" in2="effect1_dropShadow_468_48661" result="shape"/>
</filter>
<filter id="filter2_d_468_48661" x="11.3333" y="11" width="6.66683" height="11.7944" filterUnits="userSpaceOnUse" color-interpolation-filters="sRGB">
<feFlood flood-opacity="0" result="BackgroundImageFix"/>
<feColorMatrix in="SourceAlpha" type="matrix" values="0 0 0 0 0 0 0 0 0 0 0 0 0 0 0 0 0 0 127 0" result="hardAlpha"/>
<feOffset dy="0.666667"/>
<feGaussianBlur stdDeviation="0.333333"/>
<feColorMatrix type="matrix" values="0 0 0 0 0.61352 0 0 0 0 0.61352 0 0 0 0 0.61352 0 0 0 0.2 0"/>
<feBlend mode="normal" in2="BackgroundImageFix" result="effect1_dropShadow_468_48661"/>
<feBlend mode="normal" in="SourceGraphic" in2="effect1_dropShadow_468_48661" result="shape"/>
</filter>
<filter id="filter3_d_468_48661" x="9.99984" y="12" width="6.66683" height="11.7944" filterUnits="userSpaceOnUse" color-interpolation-filters="sRGB">
<feFlood flood-opacity="0" result="BackgroundImageFix"/>
<feColorMatrix in="SourceAlpha" type="matrix" values="0 0 0 0 0 0 0 0 0 0 0 0 0 0 0 0 0 0 127 0" result="hardAlpha"/>
<feOffset dy="0.666667"/>
<feGaussianBlur stdDeviation="0.333333"/>
<feColorMatrix type="matrix" values="0 0 0 0 0.61352 0 0 0 0 0.61352 0 0 0 0 0.61352 0 0 0 0.2 0"/>
<feBlend mode="normal" in2="BackgroundImageFix" result="effect1_dropShadow_468_48661"/>
<feBlend mode="normal" in="SourceGraphic" in2="effect1_dropShadow_468_48661" result="shape"/>
</filter>
<filter id="filter4_d_468_48661" x="8.66683" y="12.6666" width="6.66683" height="11.7944" filterUnits="userSpaceOnUse" color-interpolation-filters="sRGB">
<feFlood flood-opacity="0" result="BackgroundImageFix"/>
<feColorMatrix in="SourceAlpha" type="matrix" values="0 0 0 0 0 0 0 0 0 0 0 0 0 0 0 0 0 0 127 0" result="hardAlpha"/>
<feOffset dy="0.666667"/>
<feGaussianBlur stdDeviation="0.333333"/>
<feColorMatrix type="matrix" values="0 0 0 0 0.61352 0 0 0 0 0.61352 0 0 0 0 0.61352 0 0 0 0.2 0"/>
<feBlend mode="normal" in2="BackgroundImageFix" result="effect1_dropShadow_468_48661"/>
<feBlend mode="normal" in="SourceGraphic" in2="effect1_dropShadow_468_48661" result="shape"/>
</filter>
<filter id="filter5_i_468_48661" x="6" y="15.0425" width="12" height="5.31478" filterUnits="userSpaceOnUse" color-interpolation-filters="sRGB">
<feFlood flood-opacity="0" result="BackgroundImageFix"/>
<feBlend mode="normal" in="SourceGraphic" in2="BackgroundImageFix" result="shape"/>
<feColorMatrix in="SourceAlpha" type="matrix" values="0 0 0 0 0 0 0 0 0 0 0 0 0 0 0 0 0 0 127 0" result="hardAlpha"/>
<feOffset dy="0.333333"/>
<feGaussianBlur stdDeviation="0.166667"/>
<feComposite in2="hardAlpha" operator="arithmetic" k2="-1" k3="1"/>
<feColorMatrix type="matrix" values="0 0 0 0 0.929412 0 0 0 0 0.568627 0 0 0 0 0 0 0 0 0.5 0"/>
<feBlend mode="normal" in2="shape" result="effect1_innerShadow_468_48661"/>
</filter>
<filter id="filter6_di_468_48661" x="5.49919" y="5.33333" width="13.0016" height="13.6" filterUnits="userSpaceOnUse" color-interpolation-filters="sRGB">
<feFlood flood-opacity="0" result="BackgroundImageFix"/>
<feColorMatrix in="SourceAlpha" type="matrix" values="0 0 0 0 0 0 0 0 0 0 0 0 0 0 0 0 0 0 127 0" result="hardAlpha"/>
<feOffset dy="0.133333"/>
<feGaussianBlur stdDeviation="0.166667"/>
<feColorMatrix type="matrix" values="0 0 0 0 1 0 0 0 0 0.909804 0 0 0 0 0.556863 0 0 0 0.4 0"/>
<feBlend mode="normal" in2="BackgroundImageFix" result="effect1_dropShadow_468_48661"/>
<feBlend mode="normal" in="SourceGraphic" in2="effect1_dropShadow_468_48661" result="shape"/>
<feColorMatrix in="SourceAlpha" type="matrix" values="0 0 0 0 0 0 0 0 0 0 0 0 0 0 0 0 0 0 127 0" result="hardAlpha"/>
<feOffset dy="0.333333"/>
<feGaussianBlur stdDeviation="0.166667"/>
<feComposite in2="hardAlpha" operator="arithmetic" k2="-1" k3="1"/>
<feColorMatrix type="matrix" values="0 0 0 0 0.31048 0 0 0 0 0.31048 0 0 0 0 0.279572 0 0 0 1 0"/>
<feBlend mode="normal" in2="shape" result="effect2_innerShadow_468_48661"/>
</filter>
<filter id="filter7_d_468_48661" x="6.38118" y="6.10307" width="11.2376" height="12.4604" filterUnits="userSpaceOnUse" color-interpolation-filters="sRGB">
<feFlood flood-opacity="0" result="BackgroundImageFix"/>
<feColorMatrix in="SourceAlpha" type="matrix" values="0 0 0 0 0 0 0 0 0 0 0 0 0 0 0 0 0 0 127 0" result="hardAlpha"/>
<feOffset dy="0.333333"/>
<feGaussianBlur stdDeviation="0.333333"/>
<feColorMatrix type="matrix" values="0 0 0 0 0.927721 0 0 0 0 0.665867 0 0 0 0 0.0535899 0 0 0 0.4 0"/>
<feBlend mode="normal" in2="BackgroundImageFix" result="effect1_dropShadow_468_48661"/>
<feBlend mode="normal" in="SourceGraphic" in2="effect1_dropShadow_468_48661" result="shape"/>
</filter>
<filter id="filter8_d_468_48661" x="7.66683" y="8.93461" width="8.66634" height="7.39876" filterUnits="userSpaceOnUse" color-interpolation-filters="sRGB">
<feFlood flood-opacity="0" result="BackgroundImageFix"/>
<feColorMatrix in="SourceAlpha" type="matrix" values="0 0 0 0 0 0 0 0 0 0 0 0 0 0 0 0 0 0 127 0" result="hardAlpha"/>
<feOffset dy="0.333333"/>
<feGaussianBlur stdDeviation="0.333333"/>
<feColorMatrix type="matrix" values="0 0 0 0 0.996078 0 0 0 0 0.733333 0 0 0 0 0.105882 0 0 0 1 0"/>
<feBlend mode="normal" in2="BackgroundImageFix" result="effect1_dropShadow_468_48661"/>
<feBlend mode="normal" in="SourceGraphic" in2="effect1_dropShadow_468_48661" result="shape"/>
</filter>
<filter id="filter9_d_468_48661" x="14.6668" y="7.99996" width="3.33333" height="3.33333" filterUnits="userSpaceOnUse" color-interpolation-filters="sRGB">
<feFlood flood-opacity="0" result="BackgroundImageFix"/>
<feColorMatrix in="SourceAlpha" type="matrix" values="0 0 0 0 0 0 0 0 0 0 0 0 0 0 0 0 0 0 127 0" result="hardAlpha"/>
<feOffset/>
<feGaussianBlur stdDeviation="0.333333"/>
<feColorMatrix type="matrix" values="0 0 0 0 1 0 0 0 0 0.94902 0 0 0 0 0.305882 0 0 0 1 0"/>
<feBlend mode="normal" in2="BackgroundImageFix" result="effect1_dropShadow_468_48661"/>
<feBlend mode="normal" in="SourceGraphic" in2="effect1_dropShadow_468_48661" result="shape"/>
</filter>
<filter id="filter10_d_468_48661" x="7.99984" y="13.6667" width="2.66683" height="2.66671" filterUnits="userSpaceOnUse" color-interpolation-filters="sRGB">
<feFlood flood-opacity="0" result="BackgroundImageFix"/>
<feColorMatrix in="SourceAlpha" type="matrix" values="0 0 0 0 0 0 0 0 0 0 0 0 0 0 0 0 0 0 127 0" result="hardAlpha"/>
<feOffset/>
<feGaussianBlur stdDeviation="0.333333"/>
<feColorMatrix type="matrix" values="0 0 0 0 1 0 0 0 0 0.94902 0 0 0 0 0.305882 0 0 0 1 0"/>
<feBlend mode="normal" in2="BackgroundImageFix" result="effect1_dropShadow_468_48661"/>
<feBlend mode="normal" in="SourceGraphic" in2="effect1_dropShadow_468_48661" result="shape"/>
</filter>
<filter id="filter11_d_468_48661" x="5.99984" y="8.66671" width="2.99984" height="2.99996" filterUnits="userSpaceOnUse" color-interpolation-filters="sRGB">
<feFlood flood-opacity="0" result="BackgroundImageFix"/>
<feColorMatrix in="SourceAlpha" type="matrix" values="0 0 0 0 0 0 0 0 0 0 0 0 0 0 0 0 0 0 127 0" result="hardAlpha"/>
<feOffset/>
<feGaussianBlur stdDeviation="0.333333"/>
<feColorMatrix type="matrix" values="0 0 0 0 1 0 0 0 0 0.94902 0 0 0 0 0.305882 0 0 0 1 0"/>
<feBlend mode="normal" in2="BackgroundImageFix" result="effect1_dropShadow_468_48661"/>
<feBlend mode="normal" in="SourceGraphic" in2="effect1_dropShadow_468_48661" result="shape"/>
</filter>
<filter id="filter12_d_468_48661" x="14.6668" y="14" width="2.33333" height="2.33333" filterUnits="userSpaceOnUse" color-interpolation-filters="sRGB">
<feFlood flood-opacity="0" result="BackgroundImageFix"/>
<feColorMatrix in="SourceAlpha" type="matrix" values="0 0 0 0 0 0 0 0 0 0 0 0 0 0 0 0 0 0 127 0" result="hardAlpha"/>
<feOffset/>
<feGaussianBlur stdDeviation="0.333333"/>
<feColorMatrix type="matrix" values="0 0 0 0 1 0 0 0 0 0.94902 0 0 0 0 0.305882 0 0 0 1 0"/>
<feBlend mode="normal" in2="BackgroundImageFix" result="effect1_dropShadow_468_48661"/>
<feBlend mode="normal" in="SourceGraphic" in2="effect1_dropShadow_468_48661" result="shape"/>
</filter>
<filter id="filter13_d_468_48661" x="13.3333" y="10.6667" width="1.99984" height="1.99996" filterUnits="userSpaceOnUse" color-interpolation-filters="sRGB">
<feFlood flood-opacity="0" result="BackgroundImageFix"/>
<feColorMatrix in="SourceAlpha" type="matrix" values="0 0 0 0 0 0 0 0 0 0 0 0 0 0 0 0 0 0 127 0" result="hardAlpha"/>
<feOffset/>
<feGaussianBlur stdDeviation="0.333333"/>
<feColorMatrix type="matrix" values="0 0 0 0 1 0 0 0 0 0.94902 0 0 0 0 0.305882 0 0 0 1 0"/>
<feBlend mode="normal" in2="BackgroundImageFix" result="effect1_dropShadow_468_48661"/>
<feBlend mode="normal" in="SourceGraphic" in2="effect1_dropShadow_468_48661" result="shape"/>
</filter>
<linearGradient id="paint0_linear_468_48661" x1="2.00147" y1="6.36204" x2="2.00147" y2="14.7079" gradientUnits="userSpaceOnUse">
<stop stop-color="#75756F"/>
<stop offset="1" stop-color="#3A342A"/>
</linearGradient>
<linearGradient id="paint1_linear_468_48661" x1="4.65869" y1="11.33" x2="4.65869" y2="14.7079" gradientUnits="userSpaceOnUse">
<stop stop-color="#FFDF6B"/>
<stop offset="1" stop-color="#F8A60A"/>
</linearGradient>
<linearGradient id="paint2_linear_468_48661" x1="1.32195" y1="6.32601" x2="1.32195" y2="14.6953" gradientUnits="userSpaceOnUse">
<stop stop-color="#75756F"/>
<stop offset="1" stop-color="#3A342A"/>
</linearGradient>
<linearGradient id="paint3_linear_468_48661" x1="3.9917" y1="9.66333" x2="3.9917" y2="13.0412" gradientUnits="userSpaceOnUse">
<stop stop-color="#FFDF6B"/>
<stop offset="1" stop-color="#F8A60A"/>
</linearGradient>
<linearGradient id="paint4_linear_468_48661" x1="0.635637" y1="6.3146" x2="0.635637" y2="14.7209" gradientUnits="userSpaceOnUse">
<stop stop-color="#75756F"/>
<stop offset="1" stop-color="#3A342A"/>
</linearGradient>
<linearGradient id="paint5_linear_468_48661" x1="3.3252" y1="7.9967" x2="3.3252" y2="11.3746" gradientUnits="userSpaceOnUse">
<stop stop-color="#FFDF6B"/>
<stop offset="1" stop-color="#F8A60A"/>
</linearGradient>
<linearGradient id="paint6_linear_468_48661" x1="-0.0216711" y1="6.32997" x2="-0.0216711" y2="14.7189" gradientUnits="userSpaceOnUse">
<stop stop-color="#75756F"/>
<stop offset="1" stop-color="#3A342A"/>
</linearGradient>
<linearGradient id="paint7_linear_468_48661" x1="2.65861" y1="6.32997" x2="2.65861" y2="9.70788" gradientUnits="userSpaceOnUse">
<stop stop-color="#FFDF6B"/>
<stop offset="1" stop-color="#F8A60A"/>
</linearGradient>
<linearGradient id="paint8_linear_468_48661" x1="21.9985" y1="6.36204" x2="21.9985" y2="14.7079" gradientUnits="userSpaceOnUse">
<stop stop-color="#75756F"/>
<stop offset="1" stop-color="#3A342A"/>
</linearGradient>
<linearGradient id="paint9_linear_468_48661" x1="19.3413" y1="11.33" x2="19.3413" y2="14.7079" gradientUnits="userSpaceOnUse">
<stop stop-color="#FFDF6B"/>
<stop offset="1" stop-color="#F8A60A"/>
</linearGradient>
<linearGradient id="paint10_linear_468_48661" x1="22.6776" y1="6.32601" x2="22.6776" y2="14.6953" gradientUnits="userSpaceOnUse">
<stop stop-color="#75756F"/>
<stop offset="1" stop-color="#3A342A"/>
</linearGradient>
<linearGradient id="paint11_linear_468_48661" x1="20.0078" y1="9.66333" x2="20.0078" y2="13.0412" gradientUnits="userSpaceOnUse">
<stop stop-color="#FFDF6B"/>
<stop offset="1" stop-color="#F8A60A"/>
</linearGradient>
<linearGradient id="paint12_linear_468_48661" x1="23.3644" y1="6.3146" x2="23.3644" y2="14.7209" gradientUnits="userSpaceOnUse">
<stop stop-color="#75756F"/>
<stop offset="1" stop-color="#3A342A"/>
</linearGradient>
<linearGradient id="paint13_linear_468_48661" x1="20.6748" y1="7.9967" x2="20.6748" y2="11.3746" gradientUnits="userSpaceOnUse">
<stop stop-color="#FFDF6B"/>
<stop offset="1" stop-color="#F8A60A"/>
</linearGradient>
<linearGradient id="paint14_linear_468_48661" x1="24.0216" y1="6.32996" x2="24.0216" y2="14.7189" gradientUnits="userSpaceOnUse">
<stop stop-color="#75756F"/>
<stop offset="1" stop-color="#3A342A"/>
</linearGradient>
<linearGradient id="paint15_linear_468_48661" x1="21.3413" y1="6.32996" x2="21.3413" y2="9.70787" gradientUnits="userSpaceOnUse">
<stop stop-color="#FFDF6B"/>
<stop offset="1" stop-color="#F8A60A"/>
</linearGradient>
<linearGradient id="paint16_linear_468_48661" x1="4.38477" y1="14" x2="4.38477" y2="16.9925" gradientUnits="userSpaceOnUse">
<stop stop-color="#75756F"/>
<stop offset="1" stop-color="#3A342A"/>
</linearGradient>
<linearGradient id="paint17_linear_468_48661" x1="4.38477" y1="14" x2="4.38477" y2="16.9925" gradientUnits="userSpaceOnUse">
<stop stop-color="#FFDF6B"/>
<stop offset="1" stop-color="#F8A60A"/>
</linearGradient>
<linearGradient id="paint18_linear_468_48661" x1="19.6665" y1="14" x2="19.6665" y2="17.1667" gradientUnits="userSpaceOnUse">
<stop stop-color="#75756F"/>
<stop offset="1" stop-color="#3A342A"/>
</linearGradient>
<linearGradient id="paint19_linear_468_48661" x1="19.6665" y1="14" x2="19.6665" y2="17.1667" gradientUnits="userSpaceOnUse">
<stop stop-color="#FFDF6B"/>
<stop offset="1" stop-color="#F8A60A"/>
</linearGradient>
<linearGradient id="paint20_linear_468_48661" x1="9" y1="3.66663" x2="9" y2="5.82907" gradientUnits="userSpaceOnUse">
<stop stop-color="#75756F"/>
<stop offset="1" stop-color="#3A342A"/>
</linearGradient>
<linearGradient id="paint21_linear_468_48661" x1="9" y1="3.66663" x2="9" y2="5.82907" gradientUnits="userSpaceOnUse">
<stop stop-color="#FFDF6B"/>
<stop offset="1" stop-color="#F8A60A"/>
</linearGradient>
<linearGradient id="paint22_linear_468_48661" x1="6" y1="15.043" x2="6" y2="20.024" gradientUnits="userSpaceOnUse">
<stop stop-color="#F39C05"/>
<stop offset="1" stop-color="#F59100"/>
</linearGradient>
<linearGradient id="paint23_linear_468_48661" x1="6" y1="15.043" x2="6" y2="20.024" gradientUnits="userSpaceOnUse">
<stop stop-color="#FFBA45"/>
<stop offset="1" stop-color="#F59100"/>
</linearGradient>
<linearGradient id="paint24_linear_468_48661" x1="6.6665" y1="3.76672" x2="6.6665" y2="8.71107" gradientUnits="userSpaceOnUse">
<stop stop-color="#75756F"/>
<stop offset="1" stop-color="#3A342A"/>
</linearGradient>
<linearGradient id="paint25_linear_468_48661" x1="6.6665" y1="3.76672" x2="6.6665" y2="8.71107" gradientUnits="userSpaceOnUse">
<stop stop-color="#FFDF6B"/>
<stop offset="1" stop-color="#F8A60A"/>
</linearGradient>
<linearGradient id="paint26_linear_468_48661" x1="13.3335" y1="3.76672" x2="13.3335" y2="8.71107" gradientUnits="userSpaceOnUse">
<stop stop-color="#75756F"/>
<stop offset="1" stop-color="#3A342A"/>
</linearGradient>
<linearGradient id="paint27_linear_468_48661" x1="13.3335" y1="3.76672" x2="13.3335" y2="8.71107" gradientUnits="userSpaceOnUse">
<stop stop-color="#FFDF6B"/>
<stop offset="1" stop-color="#F8A60A"/>
</linearGradient>
<linearGradient id="paint28_linear_468_48661" x1="4.3335" y1="4.33337" x2="4.3335" y2="19.6667" gradientUnits="userSpaceOnUse">
<stop stop-color="#FDE046"/>
<stop offset="1" stop-color="#F9B800"/>
</linearGradient>
<linearGradient id="paint29_linear_468_48661" x1="6.6665" y1="6.66663" x2="6.6665" y2="17.3333" gradientUnits="userSpaceOnUse">
<stop stop-color="#FFF550"/>
<stop offset="1" stop-color="#FFD541"/>
</linearGradient>
<linearGradient id="paint30_linear_468_48661" x1="12" y1="14.6666" x2="12" y2="11.6666" gradientUnits="userSpaceOnUse">
<stop stop-color="#878787"/>
<stop offset="1" stop-color="#1F1F1F"/>
</linearGradient>
<linearGradient id="paint31_linear_468_48661" x1="13" y1="14.6666" x2="13" y2="11.6666" gradientUnits="userSpaceOnUse">
<stop stop-color="#878787"/>
<stop offset="1" stop-color="#4E4E4E"/>
</linearGradient>
<linearGradient id="paint32_linear_468_48661" x1="15" y1="11.6666" x2="15" y2="9.93457" gradientUnits="userSpaceOnUse">
<stop stop-color="white"/>
<stop offset="1" stop-color="#A8A8A8"/>
</linearGradient>
<linearGradient id="paint33_linear_468_48661" x1="9.66667" y1="11.6666" x2="9.66667" y2="10.2232" gradientUnits="userSpaceOnUse">
<stop stop-color="#818181"/>
<stop offset="1" stop-color="#A0A0A0"/>
</linearGradient>
<linearGradient id="paint34_linear_468_48661" x1="11.6667" y1="11.6666" x2="11.6667" y2="10.2232" gradientUnits="userSpaceOnUse">
<stop stop-color="#818181"/>
<stop offset="1" stop-color="#A0A0A0"/>
</linearGradient>
<linearGradient id="paint35_linear_468_48661" x1="13.6667" y1="11.6666" x2="13.6667" y2="10.2232" gradientUnits="userSpaceOnUse">
<stop stop-color="#818181"/>
<stop offset="1" stop-color="#A0A0A0"/>
</linearGradient>
</defs>
</svg>
