<svg width="24" height="25" viewBox="0 0 24 25" fill="none" xmlns="http://www.w3.org/2000/svg">
<g filter="url(#filter0_d_468_48690)">
<path fill-rule="evenodd" clipRule="evenodd" d="M9.69043 11L14.3092 13.6667L8.91983 23.0014C8.79413 23.2191 8.48184 23.2246 8.34854 23.0115L7.0415 20.9214L4.57795 20.8345C4.32671 20.8256 4.17533 20.5524 4.30103 20.3347L9.69043 11Z" fill="#F55462"/>
</g>
<mask id="mask0_468_48690" style="mask-type:luminance" maskUnits="userSpaceOnUse" x="4" y="11" width="11" height="13">
<path fill-rule="evenodd" clipRule="evenodd" d="M9.69043 11L14.3092 13.6667L8.91983 23.0014C8.79413 23.2191 8.48184 23.2246 8.34854 23.0115L7.0415 20.9214L4.57795 20.8345C4.32671 20.8256 4.17533 20.5524 4.30103 20.3347L9.69043 11Z" fill="white"/>
</mask>
<g mask="url(#mask0_468_48690)">
<path fill-rule="evenodd" clipRule="evenodd" d="M8.17871 16.2855L10.4881 17.6189L7.48811 22.815L5.17871 21.4817L8.17871 16.2855Z" fill="white"/>
</g>
<g filter="url(#filter1_d_468_48690)">
<path fill-rule="evenodd" clipRule="evenodd" d="M14.3096 11L9.69077 13.6667L15.0802 23.0014C15.2059 23.2191 15.5182 23.2246 15.6515 23.0115L16.9585 20.9214L19.422 20.8345C19.6733 20.8256 19.8247 20.5524 19.699 20.3347L14.3096 11Z" fill="#F55462"/>
</g>
<mask id="mask1_468_48690" style="mask-type:luminance" maskUnits="userSpaceOnUse" x="9" y="11" width="11" height="13">
<path fill-rule="evenodd" clipRule="evenodd" d="M14.3096 11L9.69077 13.6667L15.0802 23.0014C15.2059 23.2191 15.5182 23.2246 15.6515 23.0115L16.9585 20.9214L19.422 20.8345C19.6733 20.8256 19.8247 20.5524 19.699 20.3347L14.3096 11Z" fill="white"/>
</mask>
<g mask="url(#mask1_468_48690)">
<path fill-rule="evenodd" clipRule="evenodd" d="M15.8213 16.2855L13.5119 17.6189L16.5119 22.815L18.8213 21.4817L15.8213 16.2855Z" fill="white"/>
</g>
<path style="mix-blend-mode:multiply" opacity="0.2" fill-rule="evenodd" clipRule="evenodd" d="M11.3332 5.38493C11.7457 5.14675 12.254 5.14675 12.6665 5.38493L17.9727 8.44847C18.3853 8.68664 18.6394 9.12681 18.6394 9.60317V15.7302C18.6394 16.2066 18.3853 16.6468 17.9727 16.8849L12.6665 19.9485C12.254 20.1866 11.7457 20.1866 11.3332 19.9485L6.02702 16.8849C5.61448 16.6468 5.36035 16.2066 5.36035 15.7302L5.36035 9.60317C5.36035 9.12681 5.61448 8.68664 6.02702 8.44847L11.3332 5.38493Z" fill="#0602F3"/>
<path fill-rule="evenodd" clipRule="evenodd" d="M17.9998 7.55897C17.9998 7.42267 18.0828 7.3001 18.2094 7.24948L19.3922 6.77634C19.5236 6.72379 19.6665 6.82054 19.6665 6.96203V12.1076C19.6665 12.2439 19.5835 12.3665 19.457 12.4171L17.9998 13V7.55897Z" fill="url(#paint0_linear_468_48690)" stroke="url(#paint1_linear_468_48690)" strokeWidth="0.333333" strokeLinecap="round" stroke-linejoin="round"/>
<mask id="mask2_468_48690" style="mask-type:luminance" maskUnits="userSpaceOnUse" x="17" y="6" width="3" height="7">
<path fill-rule="evenodd" clipRule="evenodd" d="M17.9998 7.78465C17.9998 7.51204 18.1658 7.26691 18.4189 7.16566L18.7522 7.03233C19.1902 6.85717 19.6665 7.17967 19.6665 7.65131V11.8819C19.6665 12.1545 19.5005 12.3997 19.2474 12.5009L18.9141 12.6343C18.4762 12.8094 17.9998 12.4869 17.9998 12.0153V7.78465Z" fill="white" stroke="white" strokeWidth="0.333333"/>
</mask>
<g mask="url(#mask2_468_48690)">
<g opacity="0.04">
<path fill-rule="evenodd" clipRule="evenodd" d="M12.9996 4.22559C12.3808 3.86833 11.6184 3.86833 10.9996 4.22559L5.76674 7.24677C5.14794 7.60404 4.76674 8.26429 4.76674 8.97882V15.0212C4.76674 15.7357 5.14794 16.396 5.76674 16.7532L10.9996 19.7744C11.6184 20.1317 12.3808 20.1317 12.9996 19.7744L18.2324 16.7532C18.8512 16.396 19.2324 15.7357 19.2324 15.0212L19.2324 8.97882C19.2324 8.26429 18.8512 7.60404 18.2324 7.24677L12.9996 4.22559Z" fill="#0602F3" style="mix-blend-mode:multiply"/>
</g>
</g>
<path fill-rule="evenodd" clipRule="evenodd" d="M6.00016 7.55897C6.00016 7.42267 5.91718 7.3001 5.79063 7.24948L4.60777 6.77634C4.4764 6.72379 4.3335 6.82054 4.3335 6.96203V12.1076C4.3335 12.2439 4.41648 12.3665 4.54303 12.4171L6.00016 13V7.55897Z" fill="url(#paint2_linear_468_48690)" stroke="url(#paint3_linear_468_48690)" strokeWidth="0.333333" strokeLinecap="round" stroke-linejoin="round"/>
<mask id="mask3_468_48690" style="mask-type:luminance" maskUnits="userSpaceOnUse" x="4" y="6" width="3" height="7">
<path fill-rule="evenodd" clipRule="evenodd" d="M6.00016 7.78465C6.00016 7.51204 5.8342 7.26691 5.58109 7.16566L5.24776 7.03233C4.80985 6.85717 4.3335 7.17967 4.3335 7.65131V11.8819C4.3335 12.1545 4.49946 12.3997 4.75257 12.5009L5.0859 12.6343C5.52381 12.8094 6.00016 12.4869 6.00016 12.0153V7.78465Z" fill="white" stroke="white" strokeWidth="0.333333"/>
</mask>
<g mask="url(#mask3_468_48690)">
<g opacity="0.04">
<path fill-rule="evenodd" clipRule="evenodd" d="M10.9994 4.22559C11.6182 3.86833 12.3806 3.86833 12.9994 4.22559L18.2323 7.24677C18.8511 7.60404 19.2323 8.26429 19.2323 8.97882V15.0212C19.2323 15.7357 18.8511 16.396 18.2323 16.7532L12.9994 19.7744C12.3806 20.1317 11.6182 20.1317 10.9994 19.7744L5.7666 16.7532C5.1478 16.396 4.7666 15.7357 4.7666 15.0212L4.7666 8.97882C4.7666 8.26429 5.1478 7.60404 5.7666 7.24677L10.9994 4.22559Z" fill="#0602F3" style="mix-blend-mode:multiply"/>
</g>
</g>
<path fill-rule="evenodd" clipRule="evenodd" d="M16.3332 5.78472C16.3332 5.56045 16.1162 5.40017 15.9018 5.46612L11.9998 6.66673L8.09787 5.46612C7.88351 5.40017 7.6665 5.56045 7.6665 5.78472V10.6667C7.6665 10.8508 7.81574 11.0001 7.99984 11.0001H15.9998C16.1839 11.0001 16.3332 10.8508 16.3332 10.6667V5.78472Z" fill="url(#paint4_linear_468_48690)" stroke="url(#paint5_linear_468_48690)" strokeWidth="0.333333" strokeLinecap="round" stroke-linejoin="round"/>
<mask id="mask4_468_48690" style="mask-type:luminance" maskUnits="userSpaceOnUse" x="7" y="5" width="10" height="4">
<path fill-rule="evenodd" clipRule="evenodd" d="M16.3332 5.78469C16.3332 5.56043 16.1162 5.40015 15.9018 5.4661L11.9998 6.66671L8.09787 5.4661C7.88351 5.40015 7.6665 5.56043 7.6665 5.78469V7.66671C7.6665 7.8508 7.81574 8.00004 7.99984 8.00004H15.9998C16.1839 8.00004 16.3332 7.8508 16.3332 7.66671V5.78469Z" fill="white" stroke="white" strokeWidth="0.333333" strokeLinecap="round" stroke-linejoin="round"/>
</mask>
<g mask="url(#mask4_468_48690)">
<g opacity="0.04">
<path fill-rule="evenodd" clipRule="evenodd" d="M10.9994 4.22559C11.6182 3.86833 12.3806 3.86833 12.9994 4.22559L18.2323 7.24677C18.8511 7.60404 19.2323 8.26429 19.2323 8.97882V15.0212C19.2323 15.7357 18.8511 16.396 18.2323 16.7532L12.9994 19.7744C12.3806 20.1317 11.6182 20.1317 10.9994 19.7744L5.7666 16.7532C5.1478 16.396 4.7666 15.7357 4.7666 15.0212L4.7666 8.97882C4.7666 8.26429 5.1478 7.60404 5.7666 7.24677L10.9994 4.22559Z" fill="#0602F3" style="mix-blend-mode:multiply"/>
</g>
</g>
<path fill-rule="evenodd" clipRule="evenodd" d="M11.3335 4.71827C11.746 4.4801 12.2543 4.4801 12.6668 4.71827L17.973 7.78181C18.3856 8.01998 18.6397 8.46015 18.6397 8.93651V15.0636C18.6397 15.5399 18.3856 15.9801 17.973 16.2183L12.6668 19.2818C12.2543 19.52 11.746 19.52 11.3335 19.2818L6.0273 16.2183C5.61477 15.9801 5.36063 15.5399 5.36063 15.0636V8.93651C5.36063 8.46015 5.61477 8.01998 6.0273 7.78181L11.3335 4.71827Z" fill="url(#paint6_linear_468_48690)" stroke="#FFF04D" stroke-opacity="0.4" strokeWidth="0.333333"/>
<path d="M12.5835 4.8626C12.2226 4.6542 11.7778 4.6542 11.4169 4.8626L6.11068 7.92614C5.74971 8.13454 5.52734 8.51969 5.52734 8.9365L5.52734 15.0636C5.52734 15.4804 5.74971 15.8655 6.11068 16.0739L11.4169 19.1375C11.7778 19.3459 12.2226 19.3459 12.5835 19.1375L17.8897 16.0739C18.2507 15.8655 18.4731 15.4804 18.4731 15.0636V8.9365C18.4731 8.51969 18.2507 8.13454 17.8897 7.92614L12.5835 4.8626Z" stroke="#F9B307" strokeWidth="0.333333"/>
<path opacity="0.4" d="M12.5835 19.1375C13.2076 18.7772 13.6497 18.5219 13.91 18.3716" stroke="white" strokeWidth="0.333333" strokeLinecap="round"/>
<path d="M18.4731 15.0636V8.9365C18.4731 8.51969 18.2507 8.13454 17.8897 7.92614L12.5835 4.8626C12.2226 4.6542 11.7778 4.6542 11.4169 4.8626L6.11068 7.92614C5.74971 8.13454 5.52734 8.51969 5.52734 8.9365L5.52734 15.0636" stroke="#FAC00E" strokeWidth="0.333333" strokeLinecap="round"/>
<path opacity="0.6" d="M18.4731 8.9365C18.4731 8.51969 18.2507 8.13454 17.8897 7.92614L12.5835 4.8626C12.2226 4.6542 11.7778 4.6542 11.4169 4.8626L6.11068 7.92614C5.74971 8.13454 5.52734 8.51969 5.52734 8.9365" stroke="#FDDB3D" strokeWidth="0.333333" strokeLinecap="round"/>
<path opacity="0.6" d="M12.5834 4.8626C12.2225 4.6542 11.7777 4.6542 11.4168 4.8626C11.4168 4.8626 9.64804 5.88378 8.76367 6.39437" stroke="white" strokeWidth="0.333333" strokeLinecap="round"/>
<path d="M11.4169 4.86255C11.4169 4.86255 10.4808 5.403 10.0903 5.62843" stroke="white" strokeWidth="0.333333" strokeLinecap="round"/>
<g filter="url(#filter2_d_468_48690)">
<path fill-rule="evenodd" clipRule="evenodd" d="M11.6665 6.85908C11.8728 6.73999 12.1269 6.73999 12.3332 6.85908L16.2853 9.14084C16.4916 9.25993 16.6186 9.48002 16.6186 9.71819V14.2817C16.6186 14.5199 16.4916 14.74 16.2853 14.8591L12.3332 17.1408C12.1269 17.2599 11.8728 17.2599 11.6665 17.1408L7.71437 14.8591C7.5081 14.74 7.38104 14.5199 7.38104 14.2817V9.71819C7.38104 9.48002 7.5081 9.25993 7.71437 9.14084L11.6665 6.85908Z" fill="url(#paint7_linear_468_48690)"/>
<path d="M12.4165 6.71474C12.1587 6.56588 11.841 6.56588 11.5832 6.71474L7.63104 8.99651C7.3732 9.14537 7.21437 9.42047 7.21437 9.71819V14.2817C7.21437 14.5794 7.3732 14.8546 7.63104 15.0034L11.5832 17.2852C11.841 17.434 12.1587 17.434 12.4165 17.2852L16.3686 15.0034C16.6265 14.8546 16.7853 14.5794 16.7853 14.2817V9.71819C16.7853 9.42047 16.6265 9.14537 16.3686 8.99651L12.4165 6.71474Z" stroke="#F5900D" stroke-opacity="0.1" strokeWidth="0.333333" style="mix-blend-mode:multiply"/>
</g>
<mask id="mask5_468_48690" style="mask-type:luminance" maskUnits="userSpaceOnUse" x="7" y="6" width="10" height="12">
<path fill-rule="evenodd" clipRule="evenodd" d="M11.6665 6.85908C11.8728 6.73999 12.1269 6.73999 12.3332 6.85908L16.2853 9.14084C16.4916 9.25993 16.6186 9.48002 16.6186 9.71819V14.2817C16.6186 14.5199 16.4916 14.74 16.2853 14.8591L12.3332 17.1408C12.1269 17.2599 11.8728 17.2599 11.6665 17.1408L7.71437 14.8591C7.5081 14.74 7.38104 14.5199 7.38104 14.2817V9.71819C7.38104 9.48002 7.5081 9.25993 7.71437 9.14084L11.6665 6.85908Z" fill="white"/>
</mask>
<g mask="url(#mask5_468_48690)">
<g style="mix-blend-mode:multiply" opacity="0.3">
<path fill-rule="evenodd" clipRule="evenodd" d="M11.9998 12L6.6665 13.3333V10.6666L11.9998 12ZM11.9998 12L13.3332 6.66663H10.6665L11.9998 12ZM11.9998 12L17.3332 10.6666V13.3333L11.9998 12ZM11.9998 12L14.8283 7.28591L16.7139 9.17153L11.9998 12ZM11.9998 12L14.8283 16.714L16.7139 14.8284L11.9998 12ZM11.9998 12L10.6665 17.3333H13.3332L11.9998 12ZM11.9998 12L9.17141 16.714L7.28579 14.8284L11.9998 12Z" fill="#FFD640"/>
<path d="M9.17141 7.28591L7.28579 9.17153L11.9998 12L9.17141 7.28591Z" fill="#FFD640"/>
</g>
<path opacity="0.4" d="M16.2021 9.28516L12.25 7.00339C12.0953 6.91407 11.9047 6.91407 11.75 7.00339C11.2852 7.27175 10.9558 7.46189 10.762 7.57383C10.3585 7.80679 10.0291 7.99694 9.77392 8.14427C9.33479 8.3978 8.6761 8.7781 7.79785 9.28516" stroke="white" strokeWidth="0.333333" strokeLinecap="round"/>
<path opacity="0.4" d="M16.2021 14.7032L12.25 16.985C12.0953 17.0743 11.9047 17.0743 11.75 16.985" stroke="white" strokeWidth="0.333333" strokeLinecap="round"/>
<path d="M11.7498 7.00342C11.2849 7.27177 10.9556 7.46192 10.7617 7.57386" stroke="white" strokeWidth="0.333333" strokeLinecap="round"/>
</g>
<g filter="url(#filter3_d_468_48690)">
<path d="M11.1498 10.8299L11.9999 9.5896L12.85 10.8299L14.2923 11.2551L13.3753 12.4469L13.4167 13.95L11.9999 13.4462L10.5831 13.95L10.6245 12.4469L9.70752 11.2551L11.1498 10.8299Z" fill="white"/>
<path d="M12.2749 9.40116C12.2127 9.31047 12.1099 9.25627 11.9999 9.25627C11.89 9.25627 11.7871 9.31047 11.725 9.40116L10.9419 10.5437L9.61327 10.9354C9.50782 10.9665 9.42447 11.0476 9.3905 11.1521C9.35653 11.2567 9.37629 11.3713 9.44334 11.4584L10.288 12.5562L10.2499 13.9408C10.2469 14.0507 10.2983 14.155 10.3872 14.2197C10.4761 14.2843 10.5912 14.3009 10.6948 14.2641L11.9999 13.8L13.305 14.2641C13.4086 14.3009 13.5237 14.2843 13.6126 14.2197C13.7016 14.155 13.7529 14.0507 13.7499 13.9408L13.7118 12.5562L14.5565 11.4584C14.6235 11.3713 14.6433 11.2567 14.6093 11.1521C14.5754 11.0476 14.492 10.9665 14.3866 10.9354L13.0579 10.5437L12.2749 9.40116Z" stroke="white" strokeWidth="0.666667" stroke-linejoin="round"/>
</g>
<path d="M11.1498 10.8299L11.9999 9.5896L12.85 10.8299L14.2923 11.2551L13.3753 12.4469L13.4167 13.95L11.9999 13.4462L10.5831 13.95L10.6245 12.4469L9.70752 11.2551L11.1498 10.8299Z" fill="url(#paint8_linear_468_48690)"/>
<path opacity="0.4" d="M12 12V9.5896L11.1387 10.8129L12 12Z" fill="url(#paint9_linear_468_48690)"/>
<path opacity="0.8" d="M11.9999 11.9999L11.1385 10.8129L9.70752 11.2551L11.9999 11.9999Z" fill="url(#paint10_linear_468_48690)"/>
<path opacity="0.5" d="M11.9998 12L10.6051 12.4538L10.583 13.95L11.9998 12Z" fill="url(#paint11_linear_468_48690)"/>
<path opacity="0.4" d="M13.4168 13.95L13.3947 12.4538L12 12L13.4168 13.95Z" fill="url(#paint12_linear_468_48690)"/>
<path d="M13.3947 12.4537L14.2924 11.2551L12 12L13.3947 12.4537Z" fill="#FEBA1B"/>
<path opacity="0.6" d="M14.2924 11.2551L12.8614 10.8129L12 11.9999L14.2924 11.2551Z" fill="url(#paint13_linear_468_48690)"/>
<g filter="url(#filter4_d_468_48690)">
<path fill-rule="evenodd" clipRule="evenodd" d="M15.6371 9.9266L15.464 9.85833C15.3581 9.81657 15.3062 9.69689 15.3479 9.59102C15.3689 9.53791 15.4109 9.49587 15.464 9.47492L15.6371 9.40665C15.8368 9.32791 15.9948 9.16989 16.0735 8.97026L16.1418 8.79715C16.1835 8.69127 16.3032 8.6393 16.4091 8.68105C16.4622 8.702 16.5043 8.74404 16.5252 8.79715L16.5935 8.97026C16.6722 9.16989 16.8302 9.32791 17.0299 9.40665L17.203 9.47492C17.3088 9.51668 17.3608 9.63636 17.3191 9.74223C17.2981 9.79534 17.2561 9.83738 17.203 9.85833L17.0299 9.9266C16.8302 10.0053 16.6722 10.1634 16.5935 10.363L16.5252 10.5361C16.4834 10.642 16.3638 10.694 16.2579 10.6522C16.2048 10.6313 16.1627 10.5892 16.1418 10.5361L16.0735 10.363C15.9948 10.1634 15.8368 10.0053 15.6371 9.9266Z" fill="white"/>
</g>
<g filter="url(#filter5_d_468_48690)">
<path fill-rule="evenodd" clipRule="evenodd" d="M8.20242 15.5066L8.08702 15.4611C8.01643 15.4333 7.98178 15.3535 8.00962 15.2829C8.02358 15.2475 8.05161 15.2195 8.08702 15.2055L8.20242 15.16C8.33551 15.1075 8.44086 15.0021 8.49335 14.869L8.53886 14.7536C8.5667 14.6831 8.64649 14.6484 8.71707 14.6762C8.75248 14.6902 8.7805 14.7182 8.79447 14.7536L8.83999 14.869C8.89247 15.0021 8.99782 15.1075 9.13091 15.16L9.24632 15.2055C9.3169 15.2333 9.35155 15.3131 9.32372 15.3837C9.30975 15.4191 9.28173 15.4471 9.24632 15.4611L9.13091 15.5066C8.99782 15.5591 8.89247 15.6644 8.83999 15.7975L8.79447 15.9129C8.76663 15.9835 8.68685 16.0182 8.61626 15.9903C8.58086 15.9764 8.55283 15.9484 8.53886 15.9129L8.49335 15.7975C8.44086 15.6644 8.33551 15.5591 8.20242 15.5066Z" fill="white"/>
</g>
<g filter="url(#filter6_d_468_48690)">
<path fill-rule="evenodd" clipRule="evenodd" d="M6.91953 10.3834L6.77527 10.3265C6.68704 10.2917 6.64373 10.1919 6.67853 10.1037C6.69598 10.0594 6.73101 10.0244 6.77527 10.007L6.91953 9.95006C7.08589 9.88445 7.21758 9.75276 7.28319 9.5864L7.34008 9.44214C7.37488 9.35391 7.47461 9.3106 7.56284 9.3454C7.6071 9.36285 7.64213 9.39788 7.65959 9.44214L7.71649 9.5864C7.7821 9.75276 7.91378 9.88445 8.08014 9.95006L8.2244 10.007C8.31263 10.0418 8.35595 10.1415 8.32115 10.2297C8.30369 10.274 8.26866 10.309 8.2244 10.3265L8.08014 10.3834C7.91378 10.449 7.7821 10.5807 7.71649 10.747L7.65959 10.8913C7.62479 10.9795 7.52506 11.0228 7.43683 10.988C7.39257 10.9706 7.35754 10.9355 7.34008 10.8913L7.28319 10.747C7.21758 10.5807 7.08589 10.449 6.91953 10.3834Z" fill="white"/>
</g>
<g filter="url(#filter7_d_468_48690)">
<path fill-rule="evenodd" clipRule="evenodd" d="M15.4853 15.2966L15.3988 15.2625C15.3458 15.2416 15.3198 15.1818 15.3407 15.1288C15.3512 15.1023 15.3722 15.0812 15.3988 15.0708L15.4853 15.0366C15.5851 14.9973 15.6641 14.9183 15.7035 14.8184L15.7376 14.7319C15.7585 14.6789 15.8184 14.653 15.8713 14.6738C15.8979 14.6843 15.9189 14.7053 15.9293 14.7319L15.9635 14.8184C16.0029 14.9183 16.0819 14.9973 16.1817 15.0366L16.2682 15.0708C16.3212 15.0917 16.3472 15.1515 16.3263 15.2044C16.3158 15.231 16.2948 15.252 16.2682 15.2625L16.1817 15.2966C16.0819 15.336 16.0029 15.415 15.9635 15.5148L15.9293 15.6014C15.9085 15.6543 15.8486 15.6803 15.7957 15.6594C15.7691 15.6489 15.7481 15.6279 15.7376 15.6014L15.7035 15.5148C15.6641 15.415 15.5851 15.336 15.4853 15.2966Z" fill="white"/>
</g>
<defs>
<filter id="filter0_d_468_48690" x="3.58919" y="11" width="11.3866" height="13.5014" filterUnits="userSpaceOnUse" color-interpolation-filters="sRGB">
<feFlood flood-opacity="0" result="BackgroundImageFix"/>
<feColorMatrix in="SourceAlpha" type="matrix" values="0 0 0 0 0 0 0 0 0 0 0 0 0 0 0 0 0 0 127 0" result="hardAlpha"/>
<feOffset dy="0.666667"/>
<feGaussianBlur stdDeviation="0.333333"/>
<feColorMatrix type="matrix" values="0 0 0 0 0.401412 0 0 0 0 0.333333 0 0 0 0 0.819608 0 0 0 0.2 0"/>
<feBlend mode="normal" in2="BackgroundImageFix" result="effect1_dropShadow_468_48690"/>
<feBlend mode="normal" in="SourceGraphic" in2="effect1_dropShadow_468_48690" result="shape"/>
</filter>
<filter id="filter1_d_468_48690" x="9.02425" y="11" width="11.3866" height="13.5014" filterUnits="userSpaceOnUse" color-interpolation-filters="sRGB">
<feFlood flood-opacity="0" result="BackgroundImageFix"/>
<feColorMatrix in="SourceAlpha" type="matrix" values="0 0 0 0 0 0 0 0 0 0 0 0 0 0 0 0 0 0 127 0" result="hardAlpha"/>
<feOffset dy="0.666667"/>
<feGaussianBlur stdDeviation="0.333333"/>
<feColorMatrix type="matrix" values="0 0 0 0 0.401412 0 0 0 0 0.333333 0 0 0 0 0.819608 0 0 0 0.2 0"/>
<feBlend mode="normal" in2="BackgroundImageFix" result="effect1_dropShadow_468_48690"/>
<feBlend mode="normal" in="SourceGraphic" in2="effect1_dropShadow_468_48690" result="shape"/>
</filter>
<filter id="filter2_d_468_48690" x="6.38118" y="6.10307" width="11.2376" height="12.4604" filterUnits="userSpaceOnUse" color-interpolation-filters="sRGB">
<feFlood flood-opacity="0" result="BackgroundImageFix"/>
<feColorMatrix in="SourceAlpha" type="matrix" values="0 0 0 0 0 0 0 0 0 0 0 0 0 0 0 0 0 0 127 0" result="hardAlpha"/>
<feOffset dy="0.333333"/>
<feGaussianBlur stdDeviation="0.333333"/>
<feColorMatrix type="matrix" values="0 0 0 0 0.927721 0 0 0 0 0.665867 0 0 0 0 0.0535899 0 0 0 0.4 0"/>
<feBlend mode="normal" in2="BackgroundImageFix" result="effect1_dropShadow_468_48690"/>
<feBlend mode="normal" in="SourceGraphic" in2="effect1_dropShadow_468_48690" result="shape"/>
</filter>
<filter id="filter3_d_468_48690" x="8.37435" y="8.58964" width="7.2513" height="7.02706" filterUnits="userSpaceOnUse" color-interpolation-filters="sRGB">
<feFlood flood-opacity="0" result="BackgroundImageFix"/>
<feColorMatrix in="SourceAlpha" type="matrix" values="0 0 0 0 0 0 0 0 0 0 0 0 0 0 0 0 0 0 127 0" result="hardAlpha"/>
<feOffset dy="0.333333"/>
<feGaussianBlur stdDeviation="0.333333"/>
<feColorMatrix type="matrix" values="0 0 0 0 0.996078 0 0 0 0 0.733333 0 0 0 0 0.105882 0 0 0 1 0"/>
<feBlend mode="normal" in2="BackgroundImageFix" result="effect1_dropShadow_468_48690"/>
<feBlend mode="normal" in="SourceGraphic" in2="effect1_dropShadow_468_48690" result="shape"/>
</filter>
<filter id="filter4_d_468_48690" x="14.6668" y="7.99996" width="3.33333" height="3.33333" filterUnits="userSpaceOnUse" color-interpolation-filters="sRGB">
<feFlood flood-opacity="0" result="BackgroundImageFix"/>
<feColorMatrix in="SourceAlpha" type="matrix" values="0 0 0 0 0 0 0 0 0 0 0 0 0 0 0 0 0 0 127 0" result="hardAlpha"/>
<feOffset/>
<feGaussianBlur stdDeviation="0.333333"/>
<feColorMatrix type="matrix" values="0 0 0 0 1 0 0 0 0 0.94902 0 0 0 0 0.305882 0 0 0 1 0"/>
<feBlend mode="normal" in2="BackgroundImageFix" result="effect1_dropShadow_468_48690"/>
<feBlend mode="normal" in="SourceGraphic" in2="effect1_dropShadow_468_48690" result="shape"/>
</filter>
<filter id="filter5_d_468_48690" x="7.33333" y="14" width="2.66683" height="2.66671" filterUnits="userSpaceOnUse" color-interpolation-filters="sRGB">
<feFlood flood-opacity="0" result="BackgroundImageFix"/>
<feColorMatrix in="SourceAlpha" type="matrix" values="0 0 0 0 0 0 0 0 0 0 0 0 0 0 0 0 0 0 127 0" result="hardAlpha"/>
<feOffset/>
<feGaussianBlur stdDeviation="0.333333"/>
<feColorMatrix type="matrix" values="0 0 0 0 1 0 0 0 0 0.94902 0 0 0 0 0.305882 0 0 0 1 0"/>
<feBlend mode="normal" in2="BackgroundImageFix" result="effect1_dropShadow_468_48690"/>
<feBlend mode="normal" in="SourceGraphic" in2="effect1_dropShadow_468_48690" result="shape"/>
</filter>
<filter id="filter6_d_468_48690" x="5.99984" y="8.66671" width="2.99984" height="2.99996" filterUnits="userSpaceOnUse" color-interpolation-filters="sRGB">
<feFlood flood-opacity="0" result="BackgroundImageFix"/>
<feColorMatrix in="SourceAlpha" type="matrix" values="0 0 0 0 0 0 0 0 0 0 0 0 0 0 0 0 0 0 127 0" result="hardAlpha"/>
<feOffset/>
<feGaussianBlur stdDeviation="0.333333"/>
<feColorMatrix type="matrix" values="0 0 0 0 1 0 0 0 0 0.94902 0 0 0 0 0.305882 0 0 0 1 0"/>
<feBlend mode="normal" in2="BackgroundImageFix" result="effect1_dropShadow_468_48690"/>
<feBlend mode="normal" in="SourceGraphic" in2="effect1_dropShadow_468_48690" result="shape"/>
</filter>
<filter id="filter7_d_468_48690" x="14.6668" y="14" width="2.33333" height="2.33333" filterUnits="userSpaceOnUse" color-interpolation-filters="sRGB">
<feFlood flood-opacity="0" result="BackgroundImageFix"/>
<feColorMatrix in="SourceAlpha" type="matrix" values="0 0 0 0 0 0 0 0 0 0 0 0 0 0 0 0 0 0 127 0" result="hardAlpha"/>
<feOffset/>
<feGaussianBlur stdDeviation="0.333333"/>
<feColorMatrix type="matrix" values="0 0 0 0 1 0 0 0 0 0.94902 0 0 0 0 0.305882 0 0 0 1 0"/>
<feBlend mode="normal" in2="BackgroundImageFix" result="effect1_dropShadow_468_48690"/>
<feBlend mode="normal" in="SourceGraphic" in2="effect1_dropShadow_468_48690" result="shape"/>
</filter>
<linearGradient id="paint0_linear_468_48690" x1="19.6665" y1="6.66663" x2="19.6665" y2="13" gradientUnits="userSpaceOnUse">
<stop stop-color="#F7C71A"/>
<stop offset="1" stop-color="#FBAA00"/>
</linearGradient>
<linearGradient id="paint1_linear_468_48690" x1="19.6665" y1="6.66663" x2="19.6665" y2="13" gradientUnits="userSpaceOnUse">
<stop stop-color="#FFDF6B"/>
<stop offset="1" stop-color="#F8A60A"/>
</linearGradient>
<linearGradient id="paint2_linear_468_48690" x1="4.3335" y1="6.66663" x2="4.3335" y2="13" gradientUnits="userSpaceOnUse">
<stop stop-color="#F7C71A"/>
<stop offset="1" stop-color="#FBAA00"/>
</linearGradient>
<linearGradient id="paint3_linear_468_48690" x1="4.3335" y1="6.66663" x2="4.3335" y2="13" gradientUnits="userSpaceOnUse">
<stop stop-color="#FFDF6B"/>
<stop offset="1" stop-color="#F8A60A"/>
</linearGradient>
<linearGradient id="paint4_linear_468_48690" x1="7.6665" y1="5.45129" x2="7.6665" y2="11.0001" gradientUnits="userSpaceOnUse">
<stop stop-color="#F7C71A"/>
<stop offset="1" stop-color="#FBAA00"/>
</linearGradient>
<linearGradient id="paint5_linear_468_48690" x1="7.6665" y1="5.45129" x2="7.6665" y2="11.0001" gradientUnits="userSpaceOnUse">
<stop stop-color="#FFDF6B"/>
<stop offset="1" stop-color="#F8A60A"/>
</linearGradient>
<linearGradient id="paint6_linear_468_48690" x1="4.3335" y1="4.33337" x2="4.3335" y2="19.6667" gradientUnits="userSpaceOnUse">
<stop stop-color="#FDE046"/>
<stop offset="1" stop-color="#F9B800"/>
</linearGradient>
<linearGradient id="paint7_linear_468_48690" x1="6.6665" y1="6.66663" x2="6.6665" y2="17.3333" gradientUnits="userSpaceOnUse">
<stop stop-color="#FFF550"/>
<stop offset="1" stop-color="#FFD541"/>
</linearGradient>
<linearGradient id="paint8_linear_468_48690" x1="9.58953" y1="9.5896" x2="9.58953" y2="14.4103" gradientUnits="userSpaceOnUse">
<stop stop-color="#FCA50E"/>
<stop offset="1" stop-color="#FFC823"/>
</linearGradient>
<linearGradient id="paint9_linear_468_48690" x1="11.1387" y1="8.98701" x2="9.71334" y2="10.0057" gradientUnits="userSpaceOnUse">
<stop stop-color="#FFEC36" stop-opacity="0.467505"/>
<stop offset="1" stop-color="#FFF7AB"/>
</linearGradient>
<linearGradient id="paint10_linear_468_48690" x1="9.72201" y1="11.1059" x2="11.0652" y2="12.7593" gradientUnits="userSpaceOnUse">
<stop stop-color="#FFED08" stop-opacity="0.8"/>
<stop offset="1" stop-color="white"/>
</linearGradient>
<linearGradient id="paint11_linear_468_48690" x1="11.2914" y1="14.4375" x2="12.4298" y2="12.7834" gradientUnits="userSpaceOnUse">
<stop stop-color="#FFED08" stop-opacity="0.01"/>
<stop offset="1" stop-color="#FFEF63"/>
</linearGradient>
<linearGradient id="paint12_linear_468_48690" x1="12" y1="11.5125" x2="10.8616" y2="13.1666" gradientUnits="userSpaceOnUse">
<stop stop-color="#FFEC36" stop-opacity="0.467505"/>
<stop offset="1" stop-color="#FFE94A"/>
</linearGradient>
<linearGradient id="paint13_linear_468_48690" x1="12" y1="10.5161" x2="11.6399" y2="11.9067" gradientUnits="userSpaceOnUse">
<stop stop-color="#FFEC36" stop-opacity="0.467505"/>
<stop offset="1" stop-color="#FFF7AB"/>
</linearGradient>
</defs>
</svg>
