<svg width="20" height="20" viewBox="0 0 20 20" fill="none" xmlns="http://www.w3.org/2000/svg">
<path fill-rule="evenodd" clipRule="evenodd" d="M13.2826 2.82531C13.0436 2.12189 12.4229 1.66666 11.7199 1.66666H8.27993L8.14916 1.67193C7.45767 1.7279 6.86759 2.22413 6.68587 2.92109L6.47953 3.97343L6.45535 4.06607C6.35654 4.36605 6.0803 4.57426 5.76476 4.57426L5.76476 4.57426H3.10949L3.02679 4.57997C2.72929 4.62136 2.5 4.88286 2.5 5.19929C2.5 5.54448 2.77288 5.82431 3.10949 5.82431L5.76476 5.82431H14.2351L16.8905 5.82431L16.9732 5.8186C17.2707 5.77722 17.5 5.51571 17.5 5.19929C17.5 4.8541 17.2271 4.57426 16.8905 4.57426H14.2358C14.2356 4.57426 14.2353 4.57426 14.2351 4.57426L14.1417 4.56813C13.8354 4.52765 13.5822 4.29059 13.5203 3.97318L13.3228 2.96006L13.2826 2.82531ZM12.4286 4.57426C12.4009 4.5037 12.3769 4.431 12.3569 4.35639L12.325 4.21839L12.1364 3.24399C12.0923 3.07492 11.9561 2.95114 11.7918 2.92284L11.7199 2.9167H8.27993C8.10892 2.9167 7.95691 3.01934 7.89377 3.14834L7.87235 3.20502L7.67483 4.21864C7.65073 4.34206 7.61583 4.46092 7.57126 4.57426H12.4286ZM15.8153 7.2668C16.1229 7.29223 16.3587 7.54762 16.375 7.85503L16.3671 8.02644L16.105 11.2358L15.8301 14.3678C15.7719 14.993 15.7198 15.5204 15.6749 15.9355C15.5187 17.3823 14.5796 18.2769 13.1638 18.3034C10.9578 18.3442 8.83731 18.3438 6.77811 18.2992C5.40331 18.2704 4.47805 17.366 4.32462 15.9414L4.21858 14.8918L4.03328 12.8558L3.84347 10.6217L3.62643 7.93989C3.59946 7.59581 3.84959 7.29445 4.18512 7.26679C4.49269 7.24143 4.76525 7.45486 4.82932 7.75563L4.85426 8.00143L5.05805 10.5156L5.28057 13.1216C5.38038 14.2497 5.46695 15.1626 5.53622 15.804C5.62365 16.6158 6.05115 17.0337 6.80343 17.0494C8.84654 17.0936 10.9512 17.094 13.1417 17.0536C13.9398 17.0387 14.374 16.6249 14.4633 15.7978L14.5689 14.7538C14.5998 14.4321 14.6329 14.0769 14.6678 13.6911L14.8905 11.1282L15.1588 7.83957C15.1836 7.52417 15.4327 7.28241 15.7325 7.26567L15.8153 7.2668Z" fill="#A5A5B5"/>
</svg>
