<svg width="56" height="56" viewBox="0 0 56 56" fill="none" xmlns="http://www.w3.org/2000/svg">
<rect width="56" height="56" rx="8" fill="#0085DD"/>
<g clip-path="url(#clip0_468_43320)">
<path d="M36.53 44H19.47C17.4896 43.9974 15.5912 43.2095 14.1908 41.8092C12.7905 40.4088 12.0026 38.5104 12 36.53V19.47C12.0026 17.4896 12.7905 15.5912 14.1908 14.1908C15.5912 12.7905 17.4896 12.0026 19.47 12H36.53C38.5104 12.0026 40.4088 12.7905 41.8092 14.1908C43.2095 15.5912 43.9974 17.4896 44 19.47V36.53C43.9974 38.5104 43.2095 40.4088 41.8092 41.8092C40.4088 43.2095 38.5104 43.9974 36.53 44ZM19.47 14.13C18.0537 14.13 16.6955 14.6926 15.694 15.694C14.6926 16.6955 14.13 18.0537 14.13 19.47V36.53C14.1326 37.9428 14.695 39.297 15.694 40.296C16.693 41.295 18.0472 41.8574 19.46 41.86H36.53C37.9428 41.8574 39.297 41.295 40.296 40.296C41.295 39.297 41.8574 37.9428 41.86 36.53V19.47C41.8574 18.0572 41.295 16.703 40.296 15.704C39.297 14.705 37.9428 14.1426 36.53 14.14L19.47 14.13Z" fill="white"/>
<path d="M31.6801 36.5299C31.5312 36.5303 31.3839 36.4994 31.2478 36.4391C31.1117 36.3788 30.9898 36.2905 30.89 36.1799L26.2701 31.0999C26.0497 30.8507 25.7787 30.6513 25.4753 30.5151C25.1718 30.3789 24.8427 30.3089 24.5101 30.3099C24.1759 30.3088 23.8453 30.3786 23.5402 30.5148C23.2351 30.651 22.9623 30.8504 22.7401 31.0999L18.1201 36.1799C18.0276 36.2912 17.9136 36.3825 17.7849 36.4485C17.6561 36.5144 17.5154 36.5536 17.3711 36.5636C17.2268 36.5736 17.0819 36.5542 16.9453 36.5067C16.8087 36.4591 16.6832 36.3844 16.5763 36.287C16.4694 36.1895 16.3834 36.0714 16.3234 35.9398C16.2634 35.8082 16.2307 35.6658 16.2273 35.5212C16.224 35.3766 16.2499 35.2328 16.3037 35.0985C16.3574 34.9642 16.4378 34.8423 16.5401 34.7399L21.1601 29.6599C21.5838 29.1918 22.1007 28.8175 22.6776 28.5609C23.2545 28.3043 23.8787 28.1711 24.5101 28.1699C25.1383 28.1727 25.759 28.3066 26.3324 28.5632C26.9059 28.8198 27.4194 29.1933 27.8401 29.6599L32.46 34.7299C32.5963 34.8835 32.6855 35.073 32.7169 35.2759C32.7484 35.4788 32.7209 35.6864 32.6376 35.874C32.5543 36.0617 32.4188 36.2214 32.2473 36.3341C32.0757 36.4469 31.8753 36.5079 31.6701 36.5099L31.6801 36.5299Z" fill="white"/>
<path d="M38.67 36.4599C38.5211 36.4603 38.3738 36.4294 38.2377 36.3691C38.1016 36.3088 37.9797 36.2205 37.88 36.1099L34.88 32.8199C34.6213 32.5335 34.2967 32.3145 33.9342 32.1821C33.5717 32.0496 33.1823 32.0077 32.8 32.0599C32.5623 32.0333 32.3404 31.9278 32.1697 31.7602C31.999 31.5927 31.8894 31.3728 31.8583 31.1357C31.8272 30.8985 31.8765 30.6578 31.9982 30.452C32.12 30.2461 32.3072 30.087 32.53 29.9999C33.2637 29.8935 34.0123 29.9692 34.7098 30.2203C35.4074 30.4714 36.0324 30.8903 36.53 31.4399L39.53 34.7299C39.6662 34.8835 39.7554 35.073 39.7868 35.2759C39.8183 35.4788 39.7908 35.6864 39.7075 35.874C39.6242 36.0617 39.4887 36.2214 39.3172 36.3342C39.1456 36.4469 38.9452 36.5079 38.74 36.5099L38.67 36.4599Z" fill="white"/>
<path d="M33.33 25.8701C32.6971 25.8701 32.0784 25.6824 31.5522 25.3308C31.0259 24.9791 30.6158 24.4794 30.3736 23.8946C30.1314 23.3099 30.068 22.6665 30.1915 22.0458C30.315 21.425 30.6197 20.8548 31.0673 20.4073C31.5148 19.9598 32.085 19.655 32.7057 19.5315C33.3265 19.4081 33.9699 19.4714 34.5546 19.7136C35.1393 19.9558 35.6391 20.366 35.9907 20.8922C36.3423 21.4185 36.53 22.0372 36.53 22.6701C36.53 23.5187 36.1929 24.3327 35.5927 24.9328C34.9926 25.5329 34.1787 25.8701 33.33 25.8701ZM33.33 21.6001C33.1184 21.6001 32.9115 21.6628 32.7355 21.7804C32.5596 21.898 32.4224 22.0651 32.3415 22.2606C32.2605 22.4561 32.2393 22.6712 32.2806 22.8788C32.3219 23.0864 32.4238 23.277 32.5734 23.4267C32.723 23.5763 32.9137 23.6782 33.1213 23.7195C33.3288 23.7608 33.544 23.7396 33.7395 23.6586C33.935 23.5776 34.1021 23.4405 34.2197 23.2645C34.3373 23.0886 34.4 22.8817 34.4 22.6701C34.4 22.3863 34.2873 22.1141 34.0866 21.9134C33.8859 21.7128 33.6138 21.6001 33.33 21.6001Z" fill="white"/>
</g>
<defs>
<clipPath id="clip0_468_43320">
<rect width="32" height="32" fill="white" transform="translate(12 12)"/>
</clipPath>
</defs>
</svg>
