<svg width="24" height="24" viewBox="0 0 24 24" fill="none" xmlns="http://www.w3.org/2000/svg">
<path d="M12 24C18.6275 24 24.0001 18.6274 24.0001 12C24.0001 5.37258 18.6275 0 12 0C5.3726 0 0 5.37258 0 12C0 18.6274 5.3726 24 12 24Z" fill="#4CA3FF"/>
<path fill-rule="evenodd" clipRule="evenodd" d="M16.3684 10.5071L16.3681 10.5079C17.1024 11.4287 17.5413 12.5949 17.5413 13.8634C17.5413 15.1507 17.0893 16.3328 16.3351 17.2598L16.2702 17.3396L16.253 17.2382C16.2383 17.1519 16.2211 17.0648 16.2011 16.977C15.8237 15.3187 14.594 13.8967 12.57 12.7453C11.2033 11.97 10.421 11.0363 10.2156 9.97554C10.0829 9.2896 10.1816 8.60061 10.3722 8.01046C10.5627 7.42051 10.8461 6.92623 11.0869 6.62866L11.0871 6.62846L11.8744 5.66575C12.0125 5.49692 12.2708 5.49692 12.4089 5.66575L16.3684 10.5071ZM17.6137 9.54529L17.6138 9.54493L12.3367 3.0924C12.2359 2.9692 12.0473 2.9692 11.9465 3.0924L6.66936 9.545L6.66951 9.54536L6.65234 9.56665C5.68123 10.7717 5.1001 12.3031 5.1001 13.9701C5.1001 17.8525 8.25263 21 12.1416 21C16.0306 21 19.1831 17.8525 19.1831 13.9701C19.1831 12.3031 18.602 10.7717 17.6309 9.56665L17.6137 9.54529ZM7.93203 10.4863L7.93225 10.4861L8.40425 9.9089L8.41852 10.0155C8.42983 10.0999 8.44352 10.1847 8.45978 10.2699C8.76519 11.8723 9.8562 13.2084 11.6802 14.2432C13.2658 15.1456 14.1889 16.1833 14.4549 17.3213C14.5659 17.7963 14.5857 18.2636 14.5376 18.6721L14.5346 18.6974L14.5118 18.7086C13.7962 19.0582 12.9917 19.2544 12.1415 19.2544C9.1593 19.2544 6.74165 16.8408 6.74165 13.8634C6.74165 12.585 7.18733 11.4104 7.93203 10.4863Z" fill="white"/>
</svg>
