<svg width="24" height="24" viewBox="0 0 24 24" fill="none" xmlns="http://www.w3.org/2000/svg">
<path fill-rule="evenodd" clipRule="evenodd" d="M15.9394 3.39039C15.6527 2.54628 14.9078 2 14.0642 2H9.93626L9.77933 2.00633C8.94954 2.07349 8.24145 2.66897 8.02338 3.50533L7.77577 4.76813L7.74675 4.87929C7.62835 5.23878 7.29761 5.48844 6.91962 5.48913H3.73139L3.63214 5.49597C3.27515 5.54564 3 5.85944 3 6.23915C3 6.65338 3.32745 6.98918 3.73139 6.98918H6.91661C6.91709 6.98918 6.91757 6.98918 6.91805 6.98918C6.91891 6.98918 6.91977 6.98918 6.92062 6.98918H17.0799C17.0807 6.98918 17.0816 6.98918 17.0824 6.98918C17.0829 6.98918 17.0834 6.98918 17.0839 6.98918H20.2686L20.3679 6.98234C20.7248 6.93267 21 6.61886 21 6.23915C21 5.82493 20.6725 5.48913 20.2686 5.48913H17.0824L16.9704 5.48177C16.6029 5.4332 16.299 5.14872 16.2247 4.76783L15.9877 3.55209L15.9394 3.39039ZM14.9147 5.48913C14.8814 5.40445 14.8526 5.31721 14.8286 5.22768L14.7903 5.06208L14.564 3.8928C14.5111 3.68991 14.3477 3.54138 14.1506 3.50742L14.0642 3.50006H9.93626C9.73104 3.50006 9.54863 3.62322 9.47286 3.77803L9.44716 3.84604L9.21013 5.06238C9.18121 5.21048 9.13933 5.35311 9.08584 5.48913H14.9147ZM18.9784 8.72016C19.3475 8.75067 19.6304 9.05715 19.65 9.42604L19.6405 9.63173L19.326 13.483L18.9961 17.2413C18.9263 17.9916 18.8638 18.6245 18.8099 19.1226C18.6225 20.8588 17.4955 21.9323 15.7966 21.9641C13.1494 22.013 10.6048 22.0125 8.13373 21.9591C6.48398 21.9244 5.37367 20.8392 5.18955 19.1297L5.0623 17.8701L4.83994 15.427L4.61216 12.7461L4.35172 9.52786C4.31935 9.11497 4.61951 8.75334 5.02215 8.72015C5.39123 8.68972 5.71831 8.94583 5.79519 9.30676L5.82511 9.60172L6.06966 12.6187L6.33669 15.7459C6.45646 17.0996 6.56034 18.1952 6.64346 18.9648C6.74839 19.939 7.26138 20.4404 8.16412 20.4593C10.6159 20.5124 13.1415 20.5128 15.7701 20.4643C16.7277 20.4464 17.2489 19.9499 17.356 18.9573L17.4827 17.7046C17.5198 17.3185 17.5594 16.8923 17.6014 16.4293L17.8686 13.3538L18.1906 9.40749C18.2204 9.02901 18.5192 8.73889 18.879 8.71881L18.9784 8.72016Z" fill="#18191B"/>
</svg>
