<svg width="32" height="32" viewBox="0 0 32 32" fill="none" xmlns="http://www.w3.org/2000/svg">
<circle cx="16" cy="16" r="16" fill="white"/>
<g clip-path="url(#clip0_468_43242)">
<path d="M14.2917 21.2438L11.935 23.6005C10.958 24.5776 9.37572 24.5776 8.39951 23.6007C7.42309 22.6243 7.42309 21.0419 8.39931 20.0657L13.1135 15.3515C14.0897 14.3752 15.6721 14.3752 16.6483 15.3515C16.9738 15.6769 17.5014 15.6769 17.8269 15.3515C18.1523 15.0261 18.1523 14.4984 17.8269 14.173C16.1997 12.5459 13.5621 12.5459 11.935 14.173L7.22083 18.8871C5.59371 20.5143 5.59371 23.1519 7.22083 24.779C8.84775 26.407 11.4856 26.407 13.1136 24.779L15.4703 22.4223C15.7957 22.0969 15.7957 21.5692 15.4703 21.2438C15.1448 20.9184 14.6171 20.9184 14.2917 21.2438Z" fill="black"/>
<path d="M24.7795 7.22031C23.1524 5.59319 20.5139 5.59319 18.8867 7.22031L16.0592 10.0478C15.7338 10.3733 15.7338 10.9009 16.0592 11.2263C16.3847 11.5518 16.9123 11.5518 17.2377 11.2263L20.0653 8.39883C21.0415 7.42258 22.6247 7.42258 23.6009 8.39883C24.5772 9.37505 24.5772 10.9574 23.6009 11.9337L18.4159 17.1187C17.4397 18.095 15.8573 18.095 14.8811 17.1187C14.5557 16.7933 14.028 16.7933 13.7026 17.1187C13.3771 17.4442 13.3771 17.9718 13.7026 18.2972C15.3297 19.9244 17.9673 19.9244 19.5944 18.2972L24.7795 13.1122C26.4066 11.4851 26.4066 8.84743 24.7795 7.22031Z" fill="black"/>
</g>
<defs>
<clipPath id="clip0_468_43242">
<rect width="20" height="20" fill="white" transform="translate(6 6)"/>
</clipPath>
</defs>
</svg>
