<svg width="22" height="22" viewBox="0 0 22 22" fill="none" xmlns="http://www.w3.org/2000/svg">
<g clip-path="url(#clip0_319_58427)">
<path d="M17.0039 4.14269L8.58928 4.14269C8.36644 4.14656 8.15403 4.23781 7.99781 4.39677C7.84159 4.55573 7.75405 4.76969 7.75405 4.99256C7.75405 5.21544 7.84159 5.4294 7.99781 5.58836C8.15403 5.74732 8.36644 5.83856 8.58928 5.84243H14.9519L4.382 16.4123C4.22259 16.5717 4.13304 16.7879 4.13304 17.0134C4.13304 17.2388 4.22259 17.455 4.382 17.6144C4.5414 17.7738 4.7576 17.8634 4.98304 17.8634C5.20847 17.8634 5.42467 17.7738 5.58408 17.6144L16.154 7.04451L16.154 13.4071C16.152 13.52 16.1726 13.6321 16.2144 13.7369C16.2562 13.8418 16.3185 13.9372 16.3976 14.0177C16.4767 14.0982 16.5711 14.1621 16.6752 14.2058C16.7792 14.2494 16.891 14.2719 17.0039 14.2719C17.1167 14.2719 17.2285 14.2494 17.3325 14.2058C17.4366 14.1621 17.531 14.0982 17.6101 14.0177C17.6892 13.9372 17.7515 13.8418 17.7933 13.7369C17.8352 13.6321 17.8557 13.52 17.8537 13.4071L17.8537 4.99256C17.8537 4.76717 17.7641 4.55102 17.6048 4.39165C17.4454 4.23227 17.2292 4.14272 17.0039 4.14269Z" fill="url(#paint0_linear_319_58427)"/>
</g>
<defs>
<linearGradient id="paint0_linear_319_58427" x1="-0.418945" y1="12.8135" x2="15.3973" y2="0.317847" gradientUnits="userSpaceOnUse">
<stop stop-color="#00C4FF"/>
<stop offset="1" stop-color="#0085DD"/>
</linearGradient>
<clipPath id="clip0_319_58427">
<rect width="20.4" height="20.4" fill="white" transform="translate(0.800537 0.799805)"/>
</clipPath>
</defs>
</svg>
