<svg width="32" height="32" viewBox="0 0 32 32" fill="none" xmlns="http://www.w3.org/2000/svg">
<path d="M27.131 11.5515C26.7825 11.2006 26.586 10.7266 26.5839 10.232V8.56873C26.5826 7.55664 26.1799 6.5864 25.4643 5.87074C24.7486 5.15509 23.7784 4.75243 22.7663 4.75105H21.1056C20.6118 4.7495 20.1384 4.55397 19.7874 4.20659L18.3677 2.78555C17.6513 2.07097 16.6807 1.66968 15.6688 1.66968C14.657 1.66968 13.6864 2.07097 12.97 2.78555L11.5516 4.20659C11.2006 4.55512 10.7267 4.75162 10.2321 4.75365H8.56881C7.55717 4.75503 6.58732 5.15733 5.87174 5.87243C5.15616 6.58752 4.7532 7.55709 4.75113 8.56873V10.232C4.74958 10.7258 4.55405 11.1992 4.20668 11.5502L2.78433 12.9699C2.06975 13.6863 1.66846 14.6569 1.66846 15.6688C1.66846 16.6806 2.06975 17.6512 2.78433 18.3676L4.20668 19.786C4.5552 20.1369 4.7517 20.6109 4.75373 21.1055V22.7688C4.75511 23.7809 5.15777 24.7511 5.87343 25.4668C6.58909 26.1824 7.55933 26.5851 8.57142 26.5865H10.2321C10.7261 26.5884 11.1995 26.7844 11.5503 27.1322L12.97 28.5533C13.6863 29.2682 14.6569 29.6697 15.6688 29.6697C16.6808 29.6697 17.6514 29.2682 18.3677 28.5533L19.7861 27.1335C20.137 26.785 20.611 26.5885 21.1056 26.5865H22.7689C23.781 26.5851 24.7512 26.1824 25.4669 25.4668C26.1825 24.7511 26.5852 23.7809 26.5866 22.7688V21.1055C26.5884 20.6112 26.7849 20.1376 27.1336 19.7873L28.5534 18.3676C29.2679 17.6512 29.6692 16.6806 29.6692 15.6688C29.6692 14.6569 29.2679 13.6863 28.5534 12.9699L27.131 11.5515Z" fill="white"/>
<path d="M14.3662 19.2507C14.2378 19.251 14.1108 19.2258 13.9922 19.1766C13.8737 19.1275 13.7662 19.0552 13.6758 18.9641L11.0708 16.3591C10.8982 16.1739 10.8043 15.929 10.8087 15.6759C10.8132 15.4228 10.9157 15.1814 11.0947 15.0024C11.2737 14.8234 11.5152 14.7209 11.7683 14.7164C12.0213 14.7119 12.2663 14.8059 12.4515 14.9784L14.3662 16.8918L18.8859 12.3734C19.0711 12.2008 19.316 12.1069 19.5691 12.1114C19.8222 12.1158 20.0636 12.2183 20.2426 12.3973C20.4216 12.5763 20.5241 12.8178 20.5286 13.0709C20.5331 13.3239 20.4391 13.5689 20.2666 13.7541L15.0565 18.9641C14.9661 19.0552 14.8586 19.1275 14.7401 19.1766C14.6216 19.2258 14.4945 19.251 14.3662 19.2507Z" fill="#0085DD"/>
</svg>
