<svg width="32" height="32" viewBox="0 0 32 32" fill="none" xmlns="http://www.w3.org/2000/svg">
<circle cx="16" cy="16" r="14" fill="white"/>
<path d="M16 2C8.26719 2 2 8.26719 2 16C2 23.7328 8.26719 30 16 30C23.7328 30 30 23.7328 30 16C30 8.26719 23.7328 2 16 2ZM22.4805 18.882C23.0438 19.4453 23.0438 20.3531 22.4805 20.9164L20.9164 22.4805C20.3531 23.0438 19.4453 23.0438 18.882 22.4805L16 19.5984L13.118 22.4805C12.5547 23.0438 11.6469 23.0438 11.0836 22.4805L9.51953 20.9164C8.95625 20.3531 8.95625 19.4453 9.51953 18.882L12.4016 16L9.51953 13.118C8.95625 12.5547 8.95625 11.6469 9.51953 11.0836L11.0836 9.51953C11.6469 8.95625 12.5547 8.95625 13.118 9.51953L16 12.4016L18.882 9.51953C19.4453 8.95625 20.3531 8.95625 20.9164 9.51953L22.4805 11.0836C23.0438 11.6469 23.0438 12.5547 22.4805 13.118L19.5984 16L22.4805 18.882Z" fill="url(#paint0_linear_468_49047)"/>
<defs>
<linearGradient id="paint0_linear_468_49047" x1="2.4643" y1="2.4643" x2="28.1051" y2="28.1051" gradientUnits="userSpaceOnUse">
<stop stop-color="#F46E4C"/>
<stop offset="1" stop-color="#D00C10"/>
</linearGradient>
</defs>
</svg>
