<svg width="51" height="40" viewBox="0 0 51 40" fill="none" xmlns="http://www.w3.org/2000/svg">
<g clip-path="url(#clip0_468_49545)">
<path d="M49.522 19.81L46.4976 18.8049C46.0154 18.6447 45.6626 18.3048 45.5542 17.8961L44.8747 15.3332C44.6018 14.3041 42.9724 13.9721 42.1173 14.7713L39.9878 16.7618C39.6483 17.0791 39.1353 17.2425 38.6161 17.1986L38.0314 17.1493L36.5974 17.6572L37.2287 23.4404L44.928 25.8637L45.9651 25.5457L46.0803 24.389C46.1218 23.9726 46.4168 23.5992 46.8691 23.3905L49.7059 22.0815C50.8451 21.5559 50.7364 20.2136 49.522 19.81Z" fill="#FFBA57"/>
<path d="M35.7185 16.9542L38.0314 17.1495C37.3604 17.6847 37.0551 18.4477 37.2155 19.1959L37.964 22.6874C37.9966 22.8391 38.1347 22.9621 38.319 23.006C42.0933 23.9042 44.7306 24.9834 45.9651 25.5458L45.8266 26.9348L41.0198 27.5667L36.4154 24.0421L32.5643 20.6306L35.7185 16.9542Z" fill="#FFAC3E"/>
<path d="M1.47793 19.81L4.50235 18.8049C4.98457 18.6447 5.33731 18.3048 5.44571 17.8961L6.1253 15.3332C6.39815 14.3041 8.02754 13.9721 8.88262 14.7713L11.0121 16.7618C11.3517 17.0791 11.8647 17.2425 12.3839 17.1986L12.9686 17.1493L14.4025 17.6572L13.7713 23.4404L6.07198 25.8637L5.03487 25.5457L4.91953 24.389C4.87803 23.9726 4.58301 23.5992 4.13076 23.3905L1.29395 22.0815C0.154885 21.5559 0.263576 20.2136 1.47793 19.81Z" fill="#FFBA57"/>
<path d="M15.2815 16.9542L12.9686 17.1495C13.6396 17.6847 13.945 18.4477 13.7845 19.1959L13.036 22.6874C13.0035 22.8391 12.8653 22.9621 12.681 23.006C8.90669 23.9042 6.26929 24.9834 5.03491 25.5458L5.17339 26.9348L9.98023 27.5667L14.5846 24.0421L18.4357 20.6306L15.2815 16.9542Z" fill="#FFAC3E"/>
<path d="M14.7601 16.4046C15.4475 16.9407 15.7613 17.713 15.599 18.47L14.7214 22.5634L16.3424 23.3392H34.6576L36.2786 22.5634L35.401 18.47C35.2387 17.7131 35.5525 16.9407 36.2399 16.4046L40.5514 13.0424C42.2826 11.6924 41.3273 9.34034 38.9349 9.06222L32.9765 8.36956C32.0264 8.25909 31.2051 7.78175 30.7803 7.09308L28.1156 2.77362C27.0456 1.03933 23.9542 1.03933 22.8843 2.77362L20.2196 7.09308C19.7947 7.78175 18.9735 8.25909 18.0234 8.36956L12.065 9.06222C9.67259 9.34034 8.71732 11.6924 10.4485 13.0424L14.7601 16.4046Z" fill="#FFE27A"/>
<path d="M14.7214 22.5634L14.5811 23.2175C14.5195 23.505 14.5251 23.7819 14.5845 24.0423H36.4154C36.4749 23.7819 36.4805 23.505 36.4188 23.2175L36.2786 22.5634C33.2354 21.9663 29.608 21.5304 25.5 21.5304C21.392 21.5304 17.7645 21.9662 14.7214 22.5634Z" fill="#F9CF58"/>
<path d="M44.8885 30.8108L39.6 31.3677L40.153 32.3834L38.9877 32.878L38.2337 34.738C38.152 34.9396 38.2798 35.1577 38.5258 35.2364C42.1972 36.4102 44.7273 37.7454 45.9256 38.4484C46.2569 38.6428 46.7234 38.4553 46.7271 38.1266L46.7566 35.517C46.7583 35.3691 46.861 35.2339 47.0243 35.1645L49.82 33.9772C50.1451 33.8392 50.1822 33.4781 49.8889 33.3002C49.0473 32.7895 47.3504 31.8359 44.8885 30.8108Z" fill="#C61926"/>
<path d="M42.4193 34.2119C41.8115 33.9271 40.6437 33.4202 38.9878 32.878L39.6 31.3678C42.2327 32.2156 43.6875 32.9937 43.6951 32.9979L43.135 34.0248C43.0143 34.2461 42.6798 34.3339 42.4193 34.2119Z" fill="#B2182B"/>
<path d="M6.11147 30.8108C6.11147 30.8108 11.4 31.3677 11.3999 31.3677L10.8469 32.3834L12.0122 32.878L12.7662 34.738C12.8479 34.9396 12.7201 35.1577 12.4741 35.2364C8.80268 36.4102 6.2726 37.7454 5.07426 38.4484C4.74301 38.6428 4.27651 38.4553 4.2728 38.1266L4.24321 35.517C4.24155 35.3691 4.13881 35.2339 3.97553 35.1645L1.17992 33.9772C0.854827 33.8392 0.817718 33.4781 1.11098 33.3002C1.95268 32.7895 3.64946 31.8359 6.11147 30.8108Z" fill="#C61926"/>
<path d="M8.58071 34.2119C9.18853 33.9271 10.3564 33.4202 12.0123 32.878L11.4 31.3678C8.76733 32.2156 7.31255 32.9937 7.30493 32.9979L7.86509 34.0248C7.98579 34.2461 8.32026 34.3339 8.58071 34.2119Z" fill="#B2182B"/>
<path d="M42.7172 31.6226C42.7172 31.6226 36.6722 28.5299 25.5 28.5299C14.3277 28.5299 8.24537 31.7696 8.24537 31.7696L6.45992 31.4498L4.41441 27.6996C4.31333 27.5144 4.39898 27.2976 4.61548 27.1934C6.35855 26.3539 14.0712 22.9821 25.5 22.9821C36.9287 22.9821 44.6414 26.354 46.3843 27.1934C46.6008 27.2976 46.6865 27.5144 46.5854 27.6996L44.5399 31.4497L42.7172 31.6226Z" fill="#FF4755"/>
<path d="M25.5 27.5675C14.7885 27.5675 7.68606 30.842 6.46008 31.4498L7.30452 32.998C7.30452 32.998 14.3278 29.2331 25.5 29.2331C36.6723 29.2331 43.6955 32.998 43.6955 32.998L44.54 31.4498C43.314 30.842 36.2115 27.5675 25.5 27.5675Z" fill="#FC2B3A"/>
</g>
<defs>
<clipPath id="clip0_468_49545">
<rect width="50" height="40" fill="white" transform="translate(0.5)"/>
</clipPath>
</defs>
</svg>
