<svg width="33" height="32" viewBox="0 0 33 32" fill="none" xmlns="http://www.w3.org/2000/svg">
<g clip-path="url(#clip0_468_42402)">
<path d="M16.25 7.59042C12.0384 7.5918 8.91703 10.4297 8.06971 13.8961C7.34646 16.8532 8.19059 19.8717 10.3265 21.9711C11.112 22.7429 11.5625 23.8946 11.5625 25.1306V26.3125L13.2203 28.25H16.25H19.023L20.9375 26.3125V25.1333C20.9375 23.9111 21.4099 22.7364 22.2348 21.9107C23.8168 20.3249 24.6875 18.2256 24.6875 16C24.6875 11.4623 21.1072 7.58917 16.25 7.59042Z" fill="white"/>
<path d="M3.125 16.9375H1.1875C0.669312 16.9375 0.25 16.5182 0.25 16C0.25 15.4818 0.669312 15.0625 1.1875 15.0625H3.125C3.64319 15.0625 4.0625 15.4818 4.0625 16C4.0625 16.5182 3.64319 16.9375 3.125 16.9375Z" fill="white"/>
<path d="M31.3125 16.9375H29.375C28.8568 16.9375 28.4375 16.5182 28.4375 16C28.4375 15.4818 28.8568 15.0625 29.375 15.0625H31.3125C31.8307 15.0625 32.25 15.4818 32.25 16C32.25 16.5182 31.8307 16.9375 31.3125 16.9375Z" fill="white"/>
<path d="M2.44765 23.9688C2.18853 23.5202 2.34234 22.947 2.79096 22.688L4.41509 21.7505C4.86184 21.4914 5.4359 21.6452 5.6959 22.0938C5.95502 22.5424 5.80121 23.1155 5.35259 23.3746L3.72846 24.3121C3.28484 24.5684 2.70965 24.4211 2.44765 23.9688Z" fill="white"/>
<path d="M26.8041 9.9063C26.545 9.45767 26.6988 8.88455 27.1474 8.62548L28.7715 7.68798C29.2174 7.42798 29.7933 7.58267 30.0523 8.0313C30.3114 8.47992 30.1577 9.05305 29.709 9.31211L28.0849 10.2496C27.6413 10.5059 27.0661 10.3586 26.8041 9.9063Z" fill="white"/>
<path d="M22.3437 5.44581C21.8951 5.18668 21.7413 4.61362 22.0004 4.165L22.9379 2.54087C23.197 2.09225 23.7701 1.93843 24.2187 2.19756C24.6673 2.45668 24.8211 3.02975 24.562 3.47837L23.6245 5.1025C23.3629 5.55406 22.788 5.70243 22.3437 5.44581Z" fill="white"/>
<path d="M8.87538 5.1025L7.93788 3.47837C7.67876 3.02975 7.83257 2.45662 8.2812 2.19756C8.72613 1.93843 9.30201 2.09225 9.56201 2.54087L10.4995 4.165C10.7586 4.61362 10.6048 5.18675 10.1562 5.44581C9.71257 5.70206 9.13738 5.55475 8.87538 5.1025Z" fill="white"/>
<path d="M28.7715 24.3121L27.1474 23.3746C26.6988 23.1155 26.545 22.5424 26.8041 22.0938C27.0632 21.6452 27.6372 21.4914 28.0849 21.7505L29.709 22.688C30.1577 22.9471 30.3115 23.5202 30.0523 23.9688C29.7907 24.4204 29.2158 24.5687 28.7715 24.3121Z" fill="white"/>
<path d="M4.41509 10.2496L2.79096 9.31211C2.34234 9.05298 2.18853 8.47992 2.44765 8.0313C2.70678 7.58267 3.28078 7.42798 3.72846 7.68798L5.35259 8.62548C5.80121 8.88461 5.95502 9.45767 5.6959 9.9063C5.43409 10.3583 4.85902 10.506 4.41509 10.2496Z" fill="white"/>
<path d="M16.25 26.3125H11.5625V26.9781C11.5625 29.7594 13.6215 32 16.25 32C18.8346 32 20.9375 29.8346 20.9375 27.25V26.3125H16.25Z" fill="white"/>
<path d="M16.25 0C15.7318 0 15.3125 0.419312 15.3125 0.9375V2.875C15.3125 3.39319 15.7318 3.8125 16.25 3.8125C16.7682 3.8125 17.1875 3.39319 17.1875 2.875V0.9375C17.1875 0.419312 16.7682 0 16.25 0Z" fill="white"/>
<path d="M17.1875 2.875V0.9375C17.1875 0.419312 16.7682 0 16.25 0V3.8125C16.7682 3.8125 17.1875 3.39319 17.1875 2.875Z" fill="white"/>
<path d="M16.25 12.25C14.6991 12.25 13.4375 13.5116 13.4375 15.0625C13.4375 15.5807 13.8568 16 14.375 16C14.8932 16 15.3125 15.5807 15.3125 15.0625C15.3125 14.5453 15.7327 14.125 16.25 14.125C16.7673 14.125 17.1875 14.5453 17.1875 15.0625C17.1875 15.4489 16.9559 15.7913 16.5961 15.9341C16.4687 15.9848 16.3617 16.0638 16.25 16.1363C15.678 16.5078 15.3125 17.1327 15.3125 17.8749C15.3125 18.3931 15.7318 18.8124 16.25 18.8124C16.7682 18.8124 17.1875 18.3931 17.1875 17.8749L17.2891 17.6763C18.3667 17.2479 19.0625 16.2216 19.0625 15.0625C19.0625 13.5116 17.8009 12.25 16.25 12.25Z" fill="#0085DD"/>
<path d="M16.25 22.5625C16.7678 22.5625 17.1875 22.1428 17.1875 21.625C17.1875 21.1072 16.7678 20.6875 16.25 20.6875C15.7322 20.6875 15.3125 21.1072 15.3125 21.625C15.3125 22.1428 15.7322 22.5625 16.25 22.5625Z" fill="#0085DD"/>
</g>
<defs>
<clipPath id="clip0_468_42402">
<rect width="32" height="32" fill="white" transform="translate(0.25)"/>
</clipPath>
</defs>
</svg>
