<svg xmlns="http://www.w3.org/2000/svg" x="0px" y="0px" width="100" height="100" viewBox="0,0,256,256">
<g fill="#28a745" fill-rule="nonzero" stroke="none" strokeWidth="1" strokeLinecap="butt" stroke-linejoin="miter" stroke-miterlimit="10" stroke-dasharray="" stroke-dashoffset="0" font-family="none" font-weight="none" font-size="none" text-anchor="none" style="mix-blend-mode: normal"><g transform="scale(5.12,5.12)"><path d="M42.96484,8.68945c-0.32905,0.01422 -0.63001,0.18953 -0.80469,0.46875l-20.46094,31.70898l-14.02734,-12.70898c-0.26481,-0.24006 -0.63757,-0.3206 -0.97786,-0.21129c-0.34029,0.10931 -0.59642,0.39187 -0.67189,0.74123c-0.07547,0.34936 0.04118,0.71245 0.306,0.95248l14.90039,13.5c0.21763,0.19707 0.51087,0.28856 0.80196,0.2502c0.29109,-0.03836 0.55061,-0.20269 0.70976,-0.44942l21.09961,-32.69922c0.20817,-0.31326 0.22298,-0.71683 0.03833,-1.04451c-0.18465,-0.32768 -0.53754,-0.52404 -0.91333,-0.50823z"></path></g></g>
</svg>