<svg width="21" height="20" viewBox="0 0 21 20" fill="none" xmlns="http://www.w3.org/2000/svg">
<g clip-path="url(#clip0_313_34765)">
<path d="M12.4725 19.7266H18.9766C19.6669 19.7266 20.2266 19.1669 20.2266 18.4766V11.9725C20.2266 11.2821 19.6669 10.7225 18.9766 10.7225H12.4725C11.7821 10.7225 11.2225 11.2821 11.2225 11.9725V18.4766C11.2225 19.1669 11.7821 19.7266 12.4725 19.7266Z" fill="#71CA00"/>
<path d="M8.5275 10.7227H2.02344C1.33308 10.7227 0.773438 11.2823 0.773438 11.9727V18.4767C0.773438 19.1671 1.33308 19.7267 2.02344 19.7267H8.5275C9.21786 19.7267 9.7775 19.1671 9.7775 18.4767V11.9727C9.7775 11.2823 9.21786 10.7227 8.5275 10.7227Z" fill="#2570D8"/>
<path d="M12.4725 9.27832H18.9766C19.6669 9.27832 20.2266 8.71868 20.2266 8.02832V1.52426C20.2266 0.833902 19.6669 0.274258 18.9766 0.274258H12.4725C11.7821 0.274258 11.2225 0.833902 11.2225 1.52426V8.02832C11.2225 8.71868 11.7821 9.27832 12.4725 9.27832Z" fill="#FFD11C"/>
<path d="M8.5275 0.273438H2.02344C1.33308 0.273438 0.773438 0.833082 0.773438 1.52344V8.0275C0.773438 8.71786 1.33308 9.2775 2.02344 9.2775H8.5275C9.21786 9.2775 9.7775 8.71786 9.7775 8.0275V1.52344C9.7775 0.833082 9.21786 0.273438 8.5275 0.273438Z" fill="#F75000"/>
<path d="M15.2546 17.8234L12.4819 15.191L13.3424 14.2846L15.1987 16.0468L18.1963 12.8184L19.1124 13.669L15.2546 17.8234Z" fill="white"/>
<path d="M5.87642 12.1143H3.08813V18.3357H5.87642C6.29705 18.3352 6.70032 18.1679 6.99778 17.8705C7.29524 17.5731 7.4626 17.1699 7.46313 16.7493V16.1868C7.46287 15.8388 7.3475 15.5007 7.13501 15.2252C7.3475 14.9497 7.46287 14.6116 7.46313 14.2636V13.7011C7.46268 13.2804 7.29537 12.8771 6.9979 12.5796C6.70044 12.2821 6.29711 12.1148 5.87642 12.1143ZM4.33813 13.3643H5.87642C5.96565 13.3644 6.0512 13.3999 6.11432 13.463C6.17744 13.526 6.21297 13.6116 6.21313 13.7008V14.2633C6.21301 14.3526 6.17749 14.4381 6.11437 14.5012C6.05124 14.5643 5.96567 14.5998 5.87642 14.5999H4.33813V13.3643ZM6.21313 16.7493C6.21297 16.8385 6.17743 16.924 6.11431 16.9871C6.05119 17.0501 5.96564 17.0856 5.87642 17.0857H4.33813V15.85H5.87642C5.96567 15.8501 6.05124 15.8856 6.11437 15.9487C6.17749 16.0118 6.21301 16.0974 6.21313 16.1866V16.7493Z" fill="white"/>
<path d="M15.4441 2.91602H17.2869V1.66602H15.4441C14.9384 1.66655 14.4537 1.86764 14.0961 2.22516C13.7386 2.58267 13.5374 3.06742 13.5369 3.57305V5.98039C13.5377 6.48588 13.7389 6.97043 14.0964 7.32778C14.4539 7.68512 14.9386 7.8861 15.4441 7.88664H17.2869V6.63664H15.4441C15.27 6.63648 15.103 6.56731 14.9799 6.4443C14.8567 6.3213 14.7873 6.15447 14.7869 5.98039V3.57305C14.7871 3.39883 14.8564 3.23181 14.9796 3.10863C15.1028 2.98545 15.2698 2.91618 15.4441 2.91602Z" fill="white"/>
<path d="M5.5559 1.66602H4.99512C4.48965 1.6668 4.00513 1.868 3.64779 2.22549C3.29044 2.58298 3.08945 3.06758 3.08887 3.57305V7.26242H4.33887V5.93305H6.21387V7.26242H7.46387V3.57305C7.46329 3.06729 7.26205 2.58242 6.90434 2.22488C6.54662 1.86734 6.06166 1.66635 5.5559 1.66602ZM4.33809 4.68305V3.57367C4.33846 3.39974 4.40772 3.23303 4.53071 3.11004C4.6537 2.98705 4.8204 2.91779 4.99434 2.91742H5.55512C5.7292 2.91759 5.89612 2.98675 6.01931 3.10976C6.14249 3.23277 6.21189 3.39959 6.2123 3.57367V4.68305H4.33809Z" fill="white"/>
</g>
<defs>
<clipPath id="clip0_313_34765">
<rect width="20" height="20" fill="white" transform="translate(0.5)"/>
</clipPath>
</defs>
</svg>
