<svg width="40" height="40" viewBox="0 0 40 40" fill="none" xmlns="http://www.w3.org/2000/svg">
<g filter="url(#filter0_b_1639_65964)">
<circle cx="20" cy="20" r="20" fill="#F6F6F6"/>
</g>
<g clip-path="url(#clip0_1639_65964)">
<path d="M29.051 17H28.955C28.8143 16.9988 28.6772 16.9552 28.5616 16.8749C28.446 16.7946 28.3573 16.6814 28.307 16.55C28.254 16.4231 28.24 16.2833 28.2667 16.1484C28.2934 16.0135 28.3597 15.8896 28.457 15.7925L28.5252 15.7242C28.9367 15.3113 29.1677 14.7521 29.1677 14.1691C29.1677 13.5862 28.9367 13.027 28.5252 12.614L27.392 11.4815C26.9793 11.0698 26.4202 10.8385 25.8372 10.8385C25.2543 10.8385 24.6952 11.0698 24.2825 11.4815L24.2142 11.5497C24.1137 11.6466 23.9871 11.712 23.8499 11.7379C23.7127 11.7637 23.571 11.749 23.442 11.6955C23.3131 11.642 23.2026 11.552 23.1241 11.4366C23.0455 11.3212 23.0024 11.1853 23 11.0457V10.949C22.9994 10.366 22.7675 9.80699 22.3553 9.39473C21.943 8.98247 21.384 8.7506 20.801 8.75H19.199C18.616 8.7506 18.057 8.98247 17.6447 9.39473C17.2325 9.80699 17.0006 10.366 17 10.949V11.0457C16.9963 11.1843 16.9526 11.3189 16.8741 11.4331C16.7955 11.5473 16.6855 11.6363 16.5574 11.6893C16.4294 11.7424 16.2886 11.7571 16.1524 11.7318C16.0161 11.7065 15.89 11.6422 15.7895 11.5468L15.725 11.4785C15.3123 11.0668 14.7532 10.8355 14.1702 10.8355C13.5873 10.8355 13.0282 11.0668 12.6155 11.4785L11.4785 12.611C11.0671 13.024 10.8361 13.5832 10.8361 14.1661C10.8361 14.7491 11.0671 15.3083 11.4785 15.7213L11.5468 15.7895C11.645 15.8901 11.7108 16.0179 11.7356 16.1563C11.7603 16.2947 11.7429 16.4374 11.6855 16.5657C11.634 16.6936 11.5456 16.8032 11.4315 16.8806C11.3174 16.958 11.1828 16.9995 11.045 17H10.949C10.366 17.0006 9.80699 17.2325 9.39473 17.6447C8.98247 18.057 8.7506 18.616 8.75 19.199V20.801C8.7506 21.384 8.98247 21.943 9.39473 22.3553C9.80699 22.7675 10.366 22.9994 10.949 23H11.045C11.1857 23.0012 11.3228 23.0448 11.4384 23.1251C11.554 23.2054 11.6427 23.3186 11.693 23.45C11.746 23.5769 11.76 23.7167 11.7333 23.8516C11.7066 23.9865 11.6403 24.1104 11.543 24.2075L11.4748 24.2758C11.0633 24.6887 10.8323 25.2479 10.8323 25.8309C10.8323 26.4138 11.0633 26.973 11.4748 27.386L12.6073 28.5177C13.0199 28.9299 13.5792 29.1614 14.1624 29.1614C14.7456 29.1614 15.3049 28.9299 15.7175 28.5177L15.7857 28.4495C15.8864 28.3513 16.0142 28.2856 16.1526 28.2608C16.291 28.2361 16.4336 28.2535 16.562 28.3107C16.6899 28.362 16.7995 28.4503 16.8769 28.5643C16.9543 28.6782 16.9958 28.8127 16.9963 28.9505V29.0472C16.9961 29.3366 17.0529 29.6231 17.1635 29.8904C17.2742 30.1578 17.4364 30.4007 17.641 30.6053C17.8456 30.8099 18.0885 30.9721 18.3558 31.0827C18.6231 31.1934 18.9097 31.2502 19.199 31.25H20.801C21.384 31.2494 21.943 31.0175 22.3553 30.6053C22.7675 30.193 22.9994 29.634 23 29.051V28.9543C23.0037 28.8157 23.0474 28.6811 23.1259 28.5669C23.2045 28.4527 23.3145 28.3637 23.4426 28.3107C23.5706 28.2576 23.7114 28.2429 23.8476 28.2682C23.9839 28.2935 24.11 28.3578 24.2105 28.4533L24.2787 28.5215C24.6914 28.9332 25.2506 29.1645 25.8335 29.1645C26.4164 29.1645 26.9756 28.9332 27.3883 28.5215L28.5215 27.3898C28.9329 26.9768 29.1639 26.4176 29.1639 25.8346C29.1639 25.2517 28.9329 24.6925 28.5215 24.2795L28.4533 24.2113C28.355 24.1107 28.2892 23.9829 28.2644 23.8445C28.2397 23.7061 28.2571 23.5634 28.3145 23.435C28.3659 23.307 28.4542 23.1972 28.5683 23.1197C28.6824 23.0422 28.8171 23.0005 28.955 23H29.051C29.634 22.9994 30.193 22.7675 30.6053 22.3553C31.0175 21.943 31.2494 21.384 31.25 20.801V19.199C31.2494 18.616 31.0175 18.057 30.6053 17.6447C30.193 17.2325 29.634 17.0006 29.051 17ZM29.75 20.801C29.7498 20.9863 29.6761 21.164 29.545 21.295C29.414 21.4261 29.2363 21.4998 29.051 21.5H28.955C28.5198 21.5037 28.0953 21.6354 27.7344 21.8788C27.3735 22.1221 27.0923 22.4663 26.9257 22.8684C26.7591 23.2705 26.7145 23.7127 26.7976 24.14C26.8807 24.5672 27.0877 24.9606 27.3927 25.271L27.4603 25.3392C27.5912 25.4706 27.6647 25.6484 27.6647 25.8339C27.6647 26.0193 27.5912 26.1972 27.4603 26.3285L26.327 27.4603C26.1959 27.5913 26.0181 27.665 25.8328 27.665C25.6474 27.665 25.4696 27.5913 25.3385 27.4603L25.271 27.392C24.9605 27.0873 24.5671 26.8806 24.14 26.7977C23.7129 26.7149 23.2708 26.7595 22.8688 26.926C22.4669 27.0925 22.1228 27.3736 21.8794 27.7343C21.636 28.0949 21.504 28.5192 21.5 28.9543V29.051C21.4998 29.2363 21.4261 29.414 21.295 29.545C21.164 29.6761 20.9863 29.7498 20.801 29.75H19.199C19.0137 29.7498 18.836 29.6761 18.705 29.545C18.5739 29.414 18.5002 29.2363 18.5 29.051V28.9543C18.4979 28.5183 18.3671 28.0927 18.124 27.7308C17.8809 27.3689 17.5363 27.0869 17.1335 26.9201C16.7307 26.7533 16.2876 26.7092 15.8599 26.7933C15.4321 26.8774 15.0387 27.0859 14.729 27.3927L14.6607 27.461C14.5295 27.5917 14.3518 27.6651 14.1665 27.6651C13.9812 27.6651 13.8035 27.5917 13.6723 27.461L12.5398 26.3293C12.4088 26.1979 12.3353 26.0201 12.3353 25.8346C12.3353 25.6492 12.4088 25.4713 12.5398 25.34L12.608 25.2717C12.9134 24.9613 13.1206 24.5678 13.2038 24.1404C13.287 23.713 13.2424 23.2705 13.0757 22.8682C12.909 22.4659 12.6275 22.1216 12.2664 21.8783C11.9052 21.635 11.4804 21.5034 11.045 21.5H10.949C10.7637 21.4998 10.586 21.4261 10.455 21.295C10.3239 21.164 10.2502 20.9863 10.25 20.801V19.199C10.2502 19.0137 10.3239 18.836 10.455 18.705C10.586 18.5739 10.7637 18.5002 10.949 18.5H11.045C11.4802 18.4963 11.9047 18.3646 12.2656 18.1212C12.6265 17.8779 12.9077 17.5337 13.0743 17.1316C13.2409 16.7295 13.2855 16.2873 13.2024 15.86C13.1193 15.4328 12.9124 15.0394 12.6073 14.729L12.5398 14.6607C12.4089 14.5296 12.3353 14.3518 12.3353 14.1665C12.3353 13.9812 12.4089 13.8034 12.5398 13.6723L13.6723 12.539C13.8033 12.4079 13.9811 12.3343 14.1665 12.3343C14.3519 12.3343 14.5297 12.4079 14.6607 12.539L14.7282 12.6073C15.0387 12.9122 15.432 13.1191 15.8592 13.2021C16.2864 13.2851 16.7286 13.2407 17.1307 13.0742C17.5328 12.9077 17.877 12.6266 18.1205 12.266C18.364 11.9053 18.4959 11.4809 18.5 11.0457V10.949C18.5002 10.7637 18.5739 10.586 18.705 10.455C18.836 10.3239 19.0137 10.2502 19.199 10.25H20.801C20.9863 10.2502 21.164 10.3239 21.295 10.455C21.4261 10.586 21.4998 10.7637 21.5 10.949V11.0457C21.5038 11.4809 21.6357 11.9053 21.8791 12.2661C22.1225 12.6268 22.4667 12.908 22.8687 13.0745C23.2708 13.241 23.713 13.2854 24.1402 13.2024C24.5674 13.1193 24.9606 12.9123 25.271 12.6073L25.3392 12.539C25.4703 12.4079 25.6481 12.3343 25.8335 12.3343C26.0189 12.3343 26.1967 12.4079 26.3278 12.539L27.4603 13.6723C27.5911 13.8034 27.6647 13.9812 27.6647 14.1665C27.6647 14.3518 27.5911 14.5296 27.4603 14.6607L27.392 14.729C27.0869 15.0395 26.8799 15.4329 26.7968 15.8602C26.7138 16.2875 26.7584 16.7298 26.9251 17.1319C27.0917 17.5341 27.3731 17.8783 27.7341 18.1215C28.0951 18.3648 28.5197 18.4964 28.955 18.5H29.051C29.2363 18.5002 29.414 18.5739 29.545 18.705C29.6761 18.836 29.7498 19.0137 29.75 19.199V20.801Z" fill="#262626"/>
<path d="M20 14.75C18.9617 14.75 17.9466 15.0579 17.0833 15.6348C16.2199 16.2117 15.547 17.0316 15.1496 17.9909C14.7523 18.9502 14.6483 20.0058 14.8509 21.0242C15.0535 22.0426 15.5535 22.9781 16.2877 23.7123C17.0219 24.4465 17.9574 24.9466 18.9758 25.1491C19.9942 25.3517 21.0498 25.2477 22.0091 24.8504C22.9684 24.453 23.7883 23.7801 24.3652 22.9167C24.9421 22.0534 25.25 21.0384 25.25 20C25.2484 18.6081 24.6948 17.2737 23.7106 16.2894C22.7263 15.3052 21.3919 14.7516 20 14.75ZM20 23.75C19.2583 23.75 18.5333 23.5301 17.9166 23.118C17.2999 22.706 16.8193 22.1203 16.5355 21.4351C16.2516 20.7498 16.1774 19.9958 16.3221 19.2684C16.4668 18.541 16.8239 17.8728 17.3484 17.3483C17.8728 16.8239 18.541 16.4667 19.2684 16.3221C19.9958 16.1774 20.7498 16.2516 21.4351 16.5355C22.1203 16.8193 22.706 17.2999 23.118 17.9166C23.5301 18.5333 23.75 19.2583 23.75 20C23.7488 20.9942 23.3533 21.9473 22.6503 22.6503C21.9473 23.3533 20.9942 23.7488 20 23.75Z" fill="#262626"/>
</g>
<defs>
<filter id="filter0_b_1639_65964" x="-24" y="-24" width="88" height="88" filterUnits="userSpaceOnUse" color-interpolation-filters="sRGB">
<feFlood flood-opacity="0" result="BackgroundImageFix"/>
<feGaussianBlur in="BackgroundImageFix" stdDeviation="12"/>
<feComposite in2="SourceAlpha" operator="in" result="effect1_backgroundBlur_1639_65964"/>
<feBlend mode="normal" in="SourceGraphic" in2="effect1_backgroundBlur_1639_65964" result="shape"/>
</filter>
<clipPath id="clip0_1639_65964">
<rect width="24" height="24" fill="white" transform="translate(8 8)"/>
</clipPath>
</defs>
</svg>
