<svg width="33" height="32" viewBox="0 0 33 32" fill="none" xmlns="http://www.w3.org/2000/svg">
<path d="M28.3381 8.76472V29.9385C28.3381 31.0772 27.4144 32 26.2766 32H7.22306C6.08437 32 5.16162 31.0772 5.16162 29.9385V2.06147C5.16156 0.922781 6.08431 3.05176e-05 7.22306 3.05176e-05H19.5734L28.3381 8.76472Z" fill="white"/>
<path d="M22.6754 16.0658H10.8237V17.3828H22.6754V16.0658Z" fill="#E4E6E8"/>
<path d="M22.6754 19.0071H10.8237V20.324H22.6754V19.0071Z" fill="#E4E6E8"/>
<path d="M22.6754 21.9481H10.8237V23.2651H22.6754V21.9481Z" fill="#E4E6E8"/>
<path d="M19.2522 24.8893H10.8237V26.2063H19.2522V24.8893Z" fill="#E4E6E8"/>
<path d="M20.7695 8.57431L28.3384 11.6925V8.76474L24.0471 7.49768L20.7695 8.57431Z" fill="#C8C9CB"/>
<path d="M28.3384 8.76472H21.6352C20.4964 8.76472 19.5737 7.84197 19.5737 6.70328V3.05176e-05L28.3384 8.76472Z" fill="#E4E6E8"/>
</svg>
