<svg width="24" height="24" viewBox="0 0 24 24" fill="none" xmlns="http://www.w3.org/2000/svg">
<g filter="url(#filter0_b_468_43088)">
<rect width="24" height="24" rx="12" fill="white"/>
<path fill-rule="evenodd" clipRule="evenodd" d="M14.2978 6.97772C14.1305 6.48533 13.696 6.16667 13.2039 6.16667H10.796L10.7044 6.17036C10.2204 6.20954 9.80732 6.5569 9.68011 7.04477L9.53567 7.78141L9.51874 7.84625C9.44963 8.05609 9.2565 8.20178 9.03582 8.20199C9.03566 8.20199 9.0355 8.20199 9.03533 8.20199L7.17664 8.20199L7.11875 8.20598C6.91051 8.23496 6.75 8.41801 6.75 8.63951C6.75 8.88114 6.94102 9.07702 7.17664 9.07702H9.03488C9.03503 9.07702 9.03518 9.07702 9.03533 9.07702C9.0356 9.07702 9.03587 9.07702 9.03614 9.07702H14.9638C14.964 9.07702 14.9643 9.07702 14.9646 9.07702C14.9647 9.07702 14.9649 9.07702 14.965 9.07702H16.8234L16.8812 9.07303C17.0895 9.04406 17.25 8.861 17.25 8.63951C17.25 8.39787 17.059 8.20199 16.8234 8.20199L14.9646 8.20199L14.8992 8.1977C14.6848 8.16936 14.5076 8.00342 14.4642 7.78123L14.326 7.07205L14.2978 6.97772ZM13.7 8.20199C13.6806 8.1526 13.6638 8.10171 13.6498 8.04948L13.6275 7.95288L13.4954 7.2708C13.4646 7.15245 13.3693 7.06581 13.2543 7.04599L13.2039 7.0417H10.796C10.6762 7.0417 10.5698 7.11355 10.5256 7.20385L10.5106 7.24352L10.3724 7.95306C10.3555 8.03945 10.3311 8.12265 10.2999 8.20199H13.7ZM16.0707 10.0868C16.286 10.1046 16.4511 10.2833 16.4625 10.4985L16.4569 10.6185L16.2735 12.8651L16.0811 15.0575C16.0403 15.4951 16.0039 15.8643 15.9724 16.1549C15.8631 17.1676 15.2057 17.7939 14.2147 17.8124C12.6705 17.8409 11.1861 17.8406 9.74467 17.8095C8.78232 17.7893 8.13464 17.1562 8.02724 16.159L7.95301 15.4243L7.8233 13.9991L7.69043 12.4352L7.5385 10.5579C7.51962 10.3171 7.69471 10.1061 7.92959 10.0868C8.14488 10.069 8.33568 10.2184 8.38053 10.4289L8.39798 10.601L8.54063 12.3609L8.6964 14.1851C8.76627 14.9748 8.82686 15.6139 8.87535 16.0628C8.93656 16.6311 9.2358 16.9236 9.7624 16.9346C11.1926 16.9655 12.6659 16.9658 14.1992 16.9375C14.7578 16.9271 15.0618 16.6375 15.1243 16.0585L15.1982 15.3277C15.2199 15.1025 15.243 14.8538 15.2675 14.5837L15.4234 12.7897L15.6112 10.4877C15.6285 10.2669 15.8029 10.0977 16.0127 10.086L16.0707 10.0868Z" fill="#A5A5B5"/>
</g>
<defs>
<filter id="filter0_b_468_43088" x="-80" y="-80" width="184" height="184" filterUnits="userSpaceOnUse" color-interpolation-filters="sRGB">
<feFlood floodOpacity="0" result="BackgroundImageFix"/>
<feGaussianBlur in="BackgroundImageFix" stdDeviation="40"/>
<feComposite in2="SourceAlpha" operator="in" result="effect1_backgroundBlur_468_43088"/>
<feBlend mode="normal" in="SourceGraphic" in2="effect1_backgroundBlur_468_43088" result="shape"/>
</filter>
</defs>
</svg>
