<svg width="33" height="32" viewBox="0 0 33 32" fill="none" xmlns="http://www.w3.org/2000/svg">
<g clip-path="url(#clip0_468_42435)">
<path d="M13.9863 11.524C13.9863 6.41164 18.1308 2.26722 23.2431 2.26715C28.3575 2.26709 32.4937 6.39783 32.5001 11.5122C32.505 15.3966 30.1169 18.7234 26.7287 20.1016V22.8418C26.7287 23.0908 26.4491 23.2376 26.2442 23.0961L22.8789 20.7732C17.9355 20.5817 13.9863 16.5144 13.9863 11.524Z" fill="#DC2E43"/>
<path d="M17.104 9.35244C17.865 5.85703 20.6005 3.09894 24.0838 2.30539C23.8068 2.28058 23.5266 2.26715 23.2431 2.26715C18.1307 2.26722 13.9863 6.41164 13.9863 11.524C13.9863 14.638 15.524 17.3923 17.8814 19.0701V19.0665C18.555 19.5463 19.2944 19.9399 20.0853 20.2269C20.2263 19.5355 20.2992 18.8256 20.2992 18.1056C20.2992 15.3761 19.2553 12.8869 17.547 11.0132C17.1388 10.5656 16.9751 9.94439 17.104 9.35244Z" fill="#B0192B"/>
<path d="M19.0138 18.1056C19.0138 12.9932 14.8694 8.84873 9.75703 8.84866C4.64264 8.8486 0.506434 12.9794 0.500007 18.0937C0.495123 21.9781 2.88317 25.3049 6.27145 26.6831V29.4233C6.27145 29.6723 6.55101 29.8191 6.75595 29.6776L10.1212 27.3547C15.0647 27.1632 19.0138 23.0959 19.0138 18.1056Z" fill="#71CA00"/>
<path d="M9.05608 27.7111C9.05608 26.8641 8.60147 26.0861 7.87057 25.6581C5.12412 24.0497 3.2804 21.0668 3.2847 17.6532C3.28984 13.5277 5.98335 10.0423 9.7087 8.84879C4.617 8.8752 0.50637 12.9958 0.500007 18.0937C0.495123 21.9781 2.88317 25.3048 6.27145 26.6831V29.4233C6.27145 29.6723 6.55101 29.8191 6.75595 29.6776L9.05602 28.0899V27.7111H9.05608Z" fill="#60A10E"/>
<path d="M25.5655 11.7385L27.375 9.92897C27.5378 9.76625 27.5378 9.50238 27.375 9.33966L26.1354 8.10004C25.9727 7.93732 25.7088 7.93732 25.5461 8.10004L23.7366 9.90957L21.9271 8.10004C21.7643 7.93732 21.5005 7.93732 21.3377 8.10004L20.0981 9.33966C19.9354 9.50238 19.9354 9.76625 20.0981 9.92897L21.9076 11.7385L20.0981 13.548C19.9354 13.7108 19.9354 13.9746 20.0981 14.1373L21.3377 15.377C21.5005 15.5397 21.7643 15.5397 21.9271 15.377L23.7366 13.5674L25.5461 15.377C25.7088 15.5397 25.9727 15.5397 26.1354 15.377L27.375 14.1373C27.5378 13.9746 27.5378 13.7108 27.375 13.548L25.5655 11.7385Z" fill="#F9F7F8"/>
<path d="M7.37149 21.9422H9.05024C9.10718 21.9422 9.16187 21.9196 9.20223 21.8794L14.2344 16.8657C14.3211 16.7794 14.3226 16.6395 14.2378 16.5512L12.7413 14.993C12.6543 14.9024 12.5099 14.9008 12.4209 14.9894L8.32867 19.0666L7.30247 17.7741C7.2697 17.7328 7.2098 17.7254 7.16796 17.7576L5.25118 19.2286C5.20844 19.2614 5.20079 19.3228 5.23414 19.3651L7.17934 21.8328C7.18795 21.8438 7.19682 21.8547 7.20582 21.8654C7.24695 21.914 7.30761 21.9422 7.37149 21.9422Z" fill="#F9F7F8"/>
</g>
<defs>
<clipPath id="clip0_468_42435">
<rect width="32" height="32" fill="white" transform="translate(0.5)"/>
</clipPath>
</defs>
</svg>
