<svg width="26" height="40" viewBox="0 0 26 40" fill="none" xmlns="http://www.w3.org/2000/svg">
<path d="M13.8821 37.8869C13.7905 37.7036 13.6702 37.5547 13.5213 37.4402C13.3724 37.3142 13.2064 37.2226 13.0231 37.1653C12.8399 37.108 12.6566 37.0794 12.4734 37.0794C12.3016 37.0794 12.124 37.1138 11.9408 37.1825C11.2765 37.4001 10.9443 37.8525 10.9443 38.5397C10.9443 38.7802 10.9901 38.9921 11.0818 39.1754C11.3337 39.7251 11.7633 40 12.3703 40C12.7941 40 13.1548 39.8969 13.4526 39.6908C13.6244 39.5762 13.7619 39.4273 13.8649 39.2441C13.968 39.0494 14.0196 38.8203 14.0196 38.5569C14.0196 38.2935 13.9737 38.0701 13.8821 37.8869Z" fill="url(#paint0_linear_1397_15743)"/>
<path d="M3.6602 34.5932C2.65231 34.5932 2.14836 34.1007 2.14836 33.1157C2.14836 32.0964 3.08181 31.3233 4.9487 30.7964C9.94236 29.422 15.7803 25.0599 17.9221 23.0556C20.2586 20.8565 21.4268 17.8271 21.4268 13.9674C21.4268 11.8828 21.2321 10.245 20.8427 9.05387C20.4647 7.86272 20.0581 6.9121 19.6229 6.20199C19.1991 5.48043 18.6723 4.85622 18.0423 4.32937C16.7023 3.22984 15.0072 2.68008 12.957 2.68008C8.95983 2.68008 6.3771 4.71305 5.20886 8.77899C4.81945 10.1648 4.62474 11.8084 4.62474 13.7097C4.62474 18.1765 5.78153 21.1085 8.0951 22.5058C8.65632 22.8494 9.32061 23.0785 10.088 23.193C10.3285 23.2617 10.506 23.4278 10.6206 23.6912C10.8267 24.1608 10.8611 24.4701 10.7236 24.619C10.4373 24.9282 9.84746 25.0714 8.9541 25.0485C8.0722 25.0141 7.24183 24.8652 6.463 24.6018C5.68417 24.3384 4.96834 23.9719 4.3155 23.5023C3.66266 23.0327 3.08426 22.4829 2.58032 21.853C2.07637 21.2231 1.64687 20.5244 1.29181 19.757C0.570253 18.1994 0.209473 16.5329 0.209473 14.7576C0.209473 12.9824 0.392726 11.4075 0.759233 10.0331C1.13719 8.64728 1.64687 7.41604 2.28826 6.33943C2.9411 5.25136 3.70274 4.31219 4.5732 3.5219C5.45511 2.72017 6.40001 2.0616 7.4079 1.5462C9.38933 0.515401 11.365 0 13.335 0C15.305 0 17.0173 0.29206 18.4718 0.876181C19.9379 1.44885 21.2092 2.27922 22.2858 3.36728C24.6223 5.71522 25.7905 8.81908 25.7905 12.6789C25.7905 18.291 23.706 22.5631 19.537 25.4952C17.8075 26.6978 13.4814 30.3326 11.0992 31.0541L12.7313 31.707C14.8043 32.5087 16.3963 32.9096 17.5073 32.9096C20.1301 32.9096 21.9512 32.2682 22.9705 30.9854C23.36 30.9625 23.652 31.0885 23.8467 31.3634C24.0414 31.6497 24.1388 32.0219 24.1388 32.4801C24.1388 32.9382 23.9842 33.425 23.6749 33.9404C23.3657 34.4672 22.9305 34.9253 22.3692 35.3148C21.1552 36.1738 19.6433 36.6033 17.8337 36.6033C16.6884 36.6033 15.566 36.3914 14.4664 35.9676C13.3669 35.5553 12.5022 35.2002 11.8723 34.9024L10.0168 34.095C8.65386 33.5109 7.66887 33.2188 7.06185 33.2188C6.46627 33.2188 5.99669 33.2589 5.65309 33.3391C5.30948 33.4192 5.01742 33.5223 4.7769 33.6483C4.46766 33.8086 4.09543 34.1236 3.6602 34.5932Z" fill="url(#paint1_linear_1397_15743)"/>
<defs>
<linearGradient id="paint0_linear_1397_15743" x1="10.9443" y1="37.0794" x2="14.2552" y2="37.3768" gradientUnits="userSpaceOnUse">
<stop stop-color="#00C4FF"/>
<stop offset="1" stop-color="#0085DD"/>
</linearGradient>
<linearGradient id="paint1_linear_1397_15743" x1="0.209473" y1="0" x2="27.8743" y2="1.64923" gradientUnits="userSpaceOnUse">
<stop stop-color="#00C4FF"/>
<stop offset="1" stop-color="#0085DD"/>
</linearGradient>
</defs>
</svg>
