<svg width="24" height="24" viewBox="0 0 24 24" fill="none" xmlns="http://www.w3.org/2000/svg">
<path fill-rule="evenodd" clipRule="evenodd" d="M19 7C19 6.44772 18.5523 6 18 6H6C5.44772 6 5 6.44772 5 7C5 7.55228 5.44772 8 6 8H18C18.5523 8 19 7.55228 19 7ZM19 12C19 11.4477 18.5523 11 18 11H10C9.44771 11 9 11.4477 9 12C9 12.5523 9.44772 13 10 13H18C18.5523 13 19 12.5523 19 12ZM18 16C18.5523 16 19 16.4477 19 17C19 17.5523 18.5523 18 18 18H6C5.44772 18 5 17.5523 5 17C5 16.4477 5.44772 16 6 16H18Z" fill="#262626"/>
</svg>
