<svg width="16" height="16" viewBox="0 0 16 16" fill="none" xmlns="http://www.w3.org/2000/svg">
<g clip-path="url(#clip0_1397_15516)">
<path d="M8 16C12.4183 16 16 12.4183 16 8C16 3.58172 12.4183 0 8 0C3.58172 0 0 3.58172 0 8C0 12.4183 3.58172 16 8 16Z" fill="#EAB14D"/>
<path d="M7.99991 0C7.85709 0 7.71519 0.00390625 7.57422 0.0112813C11.7946 0.232594 15.1486 3.72453 15.1486 8C15.1486 12.2755 11.7946 15.7674 7.57422 15.9887C7.71519 15.9961 7.85709 16 7.99991 16C12.4182 16 15.9999 12.4183 15.9999 8C15.9999 3.58172 12.4182 0 7.99991 0Z" fill="#E49542"/>
<path d="M8.00008 14.234C11.443 14.234 14.2341 11.4429 14.2341 8.00001C14.2341 4.55708 11.443 1.76604 8.00008 1.76604C4.55716 1.76604 1.76611 4.55708 1.76611 8.00001C1.76611 11.4429 4.55716 14.234 8.00008 14.234Z" fill="#F4FBFF"/>
<path d="M7.99996 1.76604C7.8273 1.76604 7.6564 1.77338 7.4873 1.78713C10.6904 2.04788 13.2086 4.72972 13.2086 8.00001C13.2086 11.2703 10.6904 13.9521 7.4873 14.2129C7.6564 14.2267 7.8273 14.234 7.99996 14.234C11.4429 14.234 14.2339 11.4429 14.2339 8.00004C14.2339 4.55713 11.4429 1.76604 7.99996 1.76604Z" fill="#DAF1F4"/>
<path d="M7.99974 3.68472C7.86639 3.68472 7.7583 3.57663 7.7583 3.44329V3.08891C7.7583 2.95557 7.86639 2.84747 7.99974 2.84747C8.13308 2.84747 8.24121 2.95557 8.24121 3.08891V3.44329C8.24121 3.57663 8.13308 3.68472 7.99974 3.68472Z" fill="#2B4D66"/>
<path d="M11.2087 5.02482C11.1469 5.02482 11.0851 5.00123 11.038 4.95411C10.9437 4.85979 10.9437 4.70695 11.038 4.61264L11.2886 4.36207C11.3829 4.26776 11.5358 4.26779 11.6301 4.36207C11.7244 4.45639 11.7244 4.60923 11.6301 4.70354L11.3795 4.95414C11.3323 5.00123 11.2705 5.02482 11.2087 5.02482Z" fill="#2B4D66"/>
<path d="M12.8844 8.24147H12.53C12.3966 8.24147 12.2886 8.13337 12.2886 8.00003C12.2886 7.86668 12.3967 7.75859 12.53 7.75859H12.8844C13.0178 7.75859 13.1258 7.86668 13.1258 8.00003C13.1258 8.13337 13.0177 8.24147 12.8844 8.24147Z" fill="#2B4D66"/>
<path d="M11.4408 11.701C11.379 11.701 11.3172 11.6774 11.27 11.6303L11.0194 11.3797C10.9252 11.2854 10.9252 11.1326 11.0194 11.0382C11.1138 10.944 11.2666 10.944 11.3609 11.0382L11.6115 11.2888C11.7058 11.3831 11.7058 11.536 11.6115 11.6303C11.5643 11.6774 11.5025 11.701 11.4408 11.701Z" fill="#2B4D66"/>
<path d="M7.97337 13.1263C7.84003 13.1263 7.73193 13.0182 7.73193 12.8849V12.5305C7.73193 12.3972 7.84003 12.2891 7.97337 12.2891C8.10671 12.2891 8.21481 12.3972 8.21481 12.5305V12.8849C8.21481 13.0182 8.10671 13.1263 7.97337 13.1263Z" fill="#2B4D66"/>
<path d="M4.5139 11.6824C4.45212 11.6824 4.39031 11.6588 4.34318 11.6117C4.24887 11.5174 4.2489 11.3645 4.34318 11.2702L4.59378 11.0196C4.68809 10.9254 4.84093 10.9253 4.93525 11.0197C5.02953 11.1139 5.02953 11.2668 4.93522 11.3611L4.68462 11.6117C4.6375 11.6588 4.57568 11.6824 4.5139 11.6824Z" fill="#2B4D66"/>
<path d="M3.44298 8.21519H3.08861C2.95526 8.21519 2.84717 8.1071 2.84717 7.97375C2.84717 7.84041 2.95526 7.73232 3.08861 7.73232H3.44298C3.57632 7.73232 3.68442 7.84041 3.68442 7.97375C3.68445 8.1071 3.57632 8.21519 3.44298 8.21519Z" fill="#2B4D66"/>
<path d="M4.78305 5.00623C4.72127 5.00623 4.65949 4.98267 4.61234 4.93551L4.36174 4.68495C4.26746 4.59063 4.26743 4.43779 4.36171 4.34348C4.45602 4.2492 4.60887 4.24917 4.70318 4.34345L4.95377 4.59404C5.04805 4.68832 5.04809 4.8412 4.9538 4.93551C4.90662 4.98263 4.84484 5.00623 4.78305 5.00623Z" fill="#2B4D66"/>
<path d="M8.00007 8.24147H5.94945C5.8161 8.24147 5.70801 8.13334 5.70801 8C5.70801 7.86666 5.8161 7.75856 5.94945 7.75856H7.7586V4.68678C7.7586 4.55344 7.86669 4.44534 8.00004 4.44534C8.13338 4.44534 8.24148 4.55344 8.24148 4.68678V8C8.24151 8.13334 8.13341 8.24147 8.00007 8.24147Z" fill="#2B4D66"/>
<path d="M10.4769 9.51535C10.4397 9.51535 10.402 9.50672 10.3666 9.48857L7.88938 8.21469C7.77079 8.15372 7.7241 8.00816 7.78507 7.88957C7.84604 7.77097 7.9916 7.72425 8.11023 7.78525L10.5875 9.0591C10.7061 9.1201 10.7528 9.26566 10.6918 9.38422C10.6489 9.4675 10.5644 9.51535 10.4769 9.51535Z" fill="#DA4A54"/>
<path d="M7.99991 8.64444C8.35582 8.64444 8.64434 8.35591 8.64434 8C8.64434 7.64408 8.35582 7.35556 7.99991 7.35556C7.64399 7.35556 7.35547 7.64408 7.35547 8C7.35547 8.35591 7.64399 8.64444 7.99991 8.64444Z" fill="#365E7D"/>
</g>
<defs>
<clipPath id="clip0_1397_15516">
<rect width="16" height="16" fill="white"/>
</clipPath>
</defs>
</svg>
